<svg xmlns="http://www.w3.org/2000/svg" xmlns:xlink="http://www.w3.org/1999/xlink" width="40" zoomAndPan="magnify" viewBox="0 0 30 30.000001" height="40" preserveAspectRatio="xMidYMid meet" version="1.0"><defs><clipPath id="0286adccaf"><path d="M 0.484375 0 L 29.515625 0 L 29.515625 29.03125 L 0.484375 29.03125 Z M 0.484375 0 " clip-rule="nonzero"/></clipPath><clipPath id="ac4257a241"><path d="M 3 12 L 17 12 L 17 26 L 3 26 Z M 3 12 " clip-rule="nonzero"/></clipPath><clipPath id="67add7c4dd"><path d="M 0.484375 14.535156 L 10.078125 5.667969 L 23.378906 20.058594 L 13.785156 28.925781 Z M 0.484375 14.535156 " clip-rule="nonzero"/></clipPath><clipPath id="181b47daf8"><path d="M 0.484375 14.535156 L 10.078125 5.667969 L 23.378906 20.058594 L 13.785156 28.925781 Z M 0.484375 14.535156 " clip-rule="nonzero"/></clipPath><clipPath id="a8c5685a48"><path d="M 9 6 L 24 6 L 24 20 L 9 20 Z M 9 6 " clip-rule="nonzero"/></clipPath><clipPath id="234e1628b4"><path d="M 7.125 8.683594 L 16.71875 -0.183594 L 29.527344 13.675781 L 19.933594 22.542969 Z M 7.125 8.683594 " clip-rule="nonzero"/></clipPath><clipPath id="45bc910d6c"><path d="M 7.125 8.683594 L 16.71875 -0.183594 L 29.527344 13.675781 L 19.933594 22.542969 Z M 7.125 8.683594 " clip-rule="nonzero"/></clipPath></defs><g clip-path="url(#0286adccaf)"><path fill="#ffffff" d="M 0.484375 0 L 29.515625 0 L 29.515625 29.03125 L 0.484375 29.03125 Z M 0.484375 0 " fill-opacity="1" fill-rule="nonzero"/><path fill="#ffffff" d="M 0.484375 0 L 29.515625 0 L 29.515625 29.03125 L 0.484375 29.03125 Z M 0.484375 0 " fill-opacity="1" fill-rule="nonzero"/></g><g clip-path="url(#ac4257a241)"><g clip-path="url(#67add7c4dd)"><g clip-path="url(#181b47daf8)"><path fill="#18cb96" d="M 16.5625 12.964844 L 5.066406 12.453125 C 2.84375 12.355469 2.46875 16.679688 5.101562 16.753906 L 12.253906 16.945312 L 11.707031 24.144531 C 11.542969 26.335938 15.816406 26.570312 15.9375 24.339844 Z M 16.5625 12.964844 " fill-opacity="1" fill-rule="nonzero"/></g></g></g><g clip-path="url(#a8c5685a48)"><g clip-path="url(#234e1628b4)"><g clip-path="url(#45bc910d6c)"><path fill="#18cb96" d="M 23.105469 7.128906 L 11.679688 6.621094 C 9.472656 6.523438 9.101562 10.820312 11.714844 10.890625 L 18.824219 11.085938 L 18.28125 18.238281 C 18.117188 20.417969 22.363281 20.648438 22.484375 18.433594 Z M 23.105469 7.128906 " fill-opacity="1" fill-rule="nonzero"/></g></g></g></svg>