<svg xmlns="http://www.w3.org/2000/svg" xmlns:xlink="http://www.w3.org/1999/xlink" width="500" zoomAndPan="magnify" viewBox="0 0 375 374.999991" height="500" preserveAspectRatio="xMidYMid meet" version="1.0"><defs><g/><clipPath id="a2f0a0d2e9"><path d="M 253 81 L 275 81 L 275 103 L 253 103 Z M 253 81 " clip-rule="nonzero"/></clipPath><clipPath id="74a832b938"><path d="M 249.007812 84.402344 L 263.878906 70.65625 L 284.242188 92.6875 L 269.371094 106.433594 Z M 249.007812 84.402344 " clip-rule="nonzero"/></clipPath><clipPath id="e7ca3e06fe"><path d="M 249.007812 84.402344 L 263.878906 70.65625 L 284.242188 92.6875 L 269.371094 106.433594 Z M 249.007812 84.402344 " clip-rule="nonzero"/></clipPath><clipPath id="deda7d3fd5"><path d="M 262 71 L 284 71 L 284 93 L 262 93 Z M 262 71 " clip-rule="nonzero"/></clipPath><clipPath id="c981432efc"><path d="M 258.109375 74.957031 L 272.980469 61.210938 L 293.34375 83.242188 L 278.472656 96.988281 Z M 258.109375 74.957031 " clip-rule="nonzero"/></clipPath><clipPath id="d60c1f83be"><path d="M 258.109375 74.957031 L 272.980469 61.210938 L 293.34375 83.242188 L 278.472656 96.988281 Z M 258.109375 74.957031 " clip-rule="nonzero"/></clipPath></defs><g clip-path="url(#a2f0a0d2e9)"><g clip-path="url(#74a832b938)"><g clip-path="url(#e7ca3e06fe)"><path fill="#18cb96" d="M 274.214844 81.941406 L 256.191406 81.140625 C 252.710938 80.988281 252.121094 87.769531 256.246094 87.882812 L 267.460938 88.183594 L 266.605469 99.46875 C 266.34375 102.90625 273.046875 103.269531 273.238281 99.777344 Z M 274.214844 81.941406 " fill-opacity="1" fill-rule="nonzero"/></g></g></g><g fill="#373643" fill-opacity="1"><g transform="translate(33.882613, 116.361064)"><g><path d="M 20.8125 -22.78125 C 21.59375 -22.78125 22.210938 -22.5625 22.671875 -22.125 C 23.140625 -21.695312 23.375 -21.140625 23.375 -20.453125 L 23.375 -2.328125 C 23.375 -1.640625 23.140625 -1.078125 22.671875 -0.640625 C 22.210938 -0.210938 21.59375 0 20.8125 0 C 20.070312 0 19.488281 -0.171875 19.0625 -0.515625 C 18.644531 -0.859375 18.394531 -1.3125 18.3125 -1.875 C 17.289062 -1.070312 16.15625 -0.484375 14.90625 -0.109375 C 13.65625 0.265625 12.460938 0.453125 11.328125 0.453125 C 9.179688 0.453125 7.320312 -0.0351562 5.75 -1.015625 C 4.1875 -2.003906 2.984375 -3.394531 2.140625 -5.1875 C 1.304688 -6.976562 0.890625 -9.066406 0.890625 -11.453125 C 0.890625 -13.785156 1.351562 -15.832031 2.28125 -17.59375 C 3.207031 -19.351562 4.5 -20.734375 6.15625 -21.734375 C 7.8125 -22.734375 9.726562 -23.234375 11.90625 -23.234375 C 12.863281 -23.234375 13.921875 -23.050781 15.078125 -22.6875 C 16.242188 -22.332031 17.320312 -21.769531 18.3125 -21 C 18.425781 -21.53125 18.691406 -21.957031 19.109375 -22.28125 C 19.523438 -22.613281 20.09375 -22.78125 20.8125 -22.78125 Z M 11.859375 -4.078125 C 13.171875 -4.078125 14.4375 -4.363281 15.65625 -4.9375 C 16.882812 -5.519531 17.753906 -6.378906 18.265625 -7.515625 L 18.265625 -15.265625 C 17.691406 -16.367188 16.835938 -17.21875 15.703125 -17.8125 C 14.578125 -18.414062 13.429688 -18.71875 12.265625 -18.71875 C 10.390625 -18.71875 8.875 -18.03125 7.71875 -16.65625 C 6.570312 -15.28125 6 -13.535156 6 -11.421875 C 6 -9.210938 6.535156 -7.4375 7.609375 -6.09375 C 8.679688 -4.75 10.097656 -4.078125 11.859375 -4.078125 Z M 11.859375 -4.078125 "/></g></g></g><g fill="#373643" fill-opacity="1"><g transform="translate(59.749998, 116.361064)"><g><path d="M 20.859375 -28.96875 C 21.484375 -28.96875 22.070312 -28.785156 22.625 -28.421875 C 23.175781 -28.066406 23.453125 -27.5 23.453125 -26.71875 L 23.453125 -2.28125 C 23.453125 -0.757812 22.585938 0 20.859375 0 C 19.304688 0 18.5 -0.71875 18.4375 -2.15625 C 17.488281 -1.3125 16.414062 -0.671875 15.21875 -0.234375 C 14.03125 0.191406 12.894531 0.40625 11.8125 0.40625 C 9.570312 0.40625 7.640625 -0.0976562 6.015625 -1.109375 C 4.390625 -2.128906 3.144531 -3.550781 2.28125 -5.375 C 1.414062 -7.195312 0.984375 -9.285156 0.984375 -11.640625 C 0.984375 -13.910156 1.445312 -15.910156 2.375 -17.640625 C 3.300781 -19.367188 4.59375 -20.734375 6.25 -21.734375 C 7.90625 -22.734375 9.820312 -23.234375 12 -23.234375 C 12.976562 -23.234375 14.035156 -23.035156 15.171875 -22.640625 C 16.304688 -22.253906 17.367188 -21.675781 18.359375 -20.90625 L 18.359375 -26.71875 C 18.359375 -27.5 18.617188 -28.066406 19.140625 -28.421875 C 19.660156 -28.785156 20.234375 -28.96875 20.859375 -28.96875 Z M 11.953125 -4.125 C 13.441406 -4.125 14.789062 -4.457031 16 -5.125 C 17.207031 -5.800781 18.019531 -6.78125 18.4375 -8.0625 L 18.40625 -14.953125 C 17.894531 -16.171875 17.0625 -17.101562 15.90625 -17.75 C 14.757812 -18.394531 13.578125 -18.71875 12.359375 -18.71875 C 10.472656 -18.71875 8.957031 -18.035156 7.8125 -16.671875 C 6.664062 -15.316406 6.09375 -13.625 6.09375 -11.59375 C 6.09375 -9.414062 6.628906 -7.625 7.703125 -6.21875 C 8.773438 -4.820312 10.191406 -4.125 11.953125 -4.125 Z M 11.953125 -4.125 "/></g></g></g><g fill="#373643" fill-opacity="1"><g transform="translate(85.662141, 116.361064)"><g><path d="M 20.8125 -22.78125 C 21.59375 -22.78125 22.210938 -22.5625 22.671875 -22.125 C 23.140625 -21.695312 23.375 -21.140625 23.375 -20.453125 L 23.375 -2.328125 C 23.375 -1.640625 23.140625 -1.078125 22.671875 -0.640625 C 22.210938 -0.210938 21.59375 0 20.8125 0 C 20.070312 0 19.488281 -0.171875 19.0625 -0.515625 C 18.644531 -0.859375 18.394531 -1.3125 18.3125 -1.875 C 17.289062 -1.070312 16.15625 -0.484375 14.90625 -0.109375 C 13.65625 0.265625 12.460938 0.453125 11.328125 0.453125 C 9.179688 0.453125 7.320312 -0.0351562 5.75 -1.015625 C 4.1875 -2.003906 2.984375 -3.394531 2.140625 -5.1875 C 1.304688 -6.976562 0.890625 -9.066406 0.890625 -11.453125 C 0.890625 -13.785156 1.351562 -15.832031 2.28125 -17.59375 C 3.207031 -19.351562 4.5 -20.734375 6.15625 -21.734375 C 7.8125 -22.734375 9.726562 -23.234375 11.90625 -23.234375 C 12.863281 -23.234375 13.921875 -23.050781 15.078125 -22.6875 C 16.242188 -22.332031 17.320312 -21.769531 18.3125 -21 C 18.425781 -21.53125 18.691406 -21.957031 19.109375 -22.28125 C 19.523438 -22.613281 20.09375 -22.78125 20.8125 -22.78125 Z M 11.859375 -4.078125 C 13.171875 -4.078125 14.4375 -4.363281 15.65625 -4.9375 C 16.882812 -5.519531 17.753906 -6.378906 18.265625 -7.515625 L 18.265625 -15.265625 C 17.691406 -16.367188 16.835938 -17.21875 15.703125 -17.8125 C 14.578125 -18.414062 13.429688 -18.71875 12.265625 -18.71875 C 10.390625 -18.71875 8.875 -18.03125 7.71875 -16.65625 C 6.570312 -15.28125 6 -13.535156 6 -11.421875 C 6 -9.210938 6.535156 -7.4375 7.609375 -6.09375 C 8.679688 -4.75 10.097656 -4.078125 11.859375 -4.078125 Z M 11.859375 -4.078125 "/></g></g></g><g fill="#373643" fill-opacity="1"><g transform="translate(111.529523, 116.361064)"><g><path d="M 13.703125 -23.234375 C 15.910156 -23.234375 17.84375 -22.75 19.5 -21.78125 C 21.15625 -20.8125 22.4375 -19.453125 23.34375 -17.703125 C 24.25 -15.960938 24.703125 -13.941406 24.703125 -11.640625 C 24.703125 -9.253906 24.25 -7.148438 23.34375 -5.328125 C 22.4375 -3.503906 21.175781 -2.082031 19.5625 -1.0625 C 17.945312 -0.0507812 16.050781 0.453125 13.875 0.453125 C 12.863281 0.453125 11.757812 0.273438 10.5625 -0.078125 C 9.375 -0.441406 8.285156 -0.953125 7.296875 -1.609375 L 7.296875 5.234375 C 7.296875 5.984375 7.035156 6.550781 6.515625 6.9375 C 5.992188 7.320312 5.421875 7.515625 4.796875 7.515625 C 4.140625 7.515625 3.546875 7.320312 3.015625 6.9375 C 2.492188 6.550781 2.234375 5.984375 2.234375 5.234375 L 2.234375 -20.5 C 2.234375 -21.21875 2.460938 -21.773438 2.921875 -22.171875 C 3.390625 -22.578125 4.023438 -22.78125 4.828125 -22.78125 C 6.171875 -22.78125 6.960938 -22.257812 7.203125 -21.21875 C 8.253906 -21.96875 9.34375 -22.488281 10.46875 -22.78125 C 11.601562 -23.082031 12.679688 -23.234375 13.703125 -23.234375 Z M 13.75 -4.078125 C 15.507812 -4.078125 16.925781 -4.769531 18 -6.15625 C 19.070312 -7.539062 19.609375 -9.351562 19.609375 -11.59375 C 19.609375 -13.707031 19.03125 -15.421875 17.875 -16.734375 C 16.726562 -18.054688 15.21875 -18.71875 13.34375 -18.71875 C 12.144531 -18.71875 10.976562 -18.410156 9.84375 -17.796875 C 8.707031 -17.179688 7.859375 -16.304688 7.296875 -15.171875 L 7.296875 -7.75 C 7.773438 -6.582031 8.625 -5.675781 9.84375 -5.03125 C 11.070312 -4.394531 12.375 -4.078125 13.75 -4.078125 Z M 13.75 -4.078125 "/></g></g></g><g fill="#373643" fill-opacity="1"><g transform="translate(137.575931, 116.361064)"><g><path d="M 12.3125 -4.25 C 13 -4.632812 13.617188 -4.769531 14.171875 -4.65625 C 14.722656 -4.539062 15.171875 -4.28125 15.515625 -3.875 C 15.859375 -3.46875 16.03125 -3 16.03125 -2.46875 C 16.03125 -2.070312 15.910156 -1.679688 15.671875 -1.296875 C 15.429688 -0.910156 15.054688 -0.582031 14.546875 -0.3125 C 13.890625 0.0390625 13.289062 0.253906 12.75 0.328125 C 12.21875 0.410156 11.59375 0.453125 10.875 0.453125 C 8.9375 0.453125 7.441406 0.0507812 6.390625 -0.75 C 5.347656 -1.5625 4.632812 -2.609375 4.25 -3.890625 C 3.863281 -5.171875 3.671875 -6.53125 3.671875 -7.96875 L 3.671875 -18.53125 L 1.96875 -18.53125 C 1.132812 -18.53125 0.515625 -18.753906 0.109375 -19.203125 C -0.296875 -19.648438 -0.5 -20.128906 -0.5 -20.640625 C -0.5 -21.171875 -0.289062 -21.660156 0.125 -22.109375 C 0.550781 -22.554688 1.164062 -22.78125 1.96875 -22.78125 L 3.671875 -22.78125 L 3.671875 -26.640625 C 3.671875 -27.410156 3.921875 -27.988281 4.421875 -28.375 C 4.929688 -28.769531 5.515625 -28.96875 6.171875 -28.96875 C 6.804688 -28.96875 7.390625 -28.769531 7.921875 -28.375 C 8.460938 -27.988281 8.734375 -27.410156 8.734375 -26.640625 L 8.734375 -22.78125 L 12.21875 -22.78125 C 13 -22.78125 13.597656 -22.554688 14.015625 -22.109375 C 14.429688 -21.660156 14.640625 -21.171875 14.640625 -20.640625 C 14.640625 -20.097656 14.429688 -19.609375 14.015625 -19.171875 C 13.597656 -18.742188 13 -18.53125 12.21875 -18.53125 L 8.734375 -18.53125 L 8.734375 -7.96875 C 8.734375 -7.3125 8.773438 -6.675781 8.859375 -6.0625 C 8.953125 -5.445312 9.15625 -4.9375 9.46875 -4.53125 C 9.78125 -4.132812 10.25 -3.9375 10.875 -3.9375 C 11.113281 -3.9375 11.375 -3.972656 11.65625 -4.046875 C 11.945312 -4.117188 12.164062 -4.1875 12.3125 -4.25 Z M 12.3125 -4.25 "/></g></g></g><g fill="#373643" fill-opacity="1"><g transform="translate(153.105173, 116.361064)"><g><path d="M 6.71875 -26.140625 C 6.71875 -25.398438 6.441406 -24.84375 5.890625 -24.46875 C 5.335938 -24.09375 4.75 -23.90625 4.125 -23.90625 C 3.46875 -23.90625 2.867188 -24.09375 2.328125 -24.46875 C 1.785156 -24.84375 1.515625 -25.398438 1.515625 -26.140625 L 1.515625 -26.71875 C 1.515625 -27.5 1.785156 -28.066406 2.328125 -28.421875 C 2.867188 -28.785156 3.46875 -28.96875 4.125 -28.96875 C 4.75 -28.96875 5.335938 -28.785156 5.890625 -28.421875 C 6.441406 -28.066406 6.71875 -27.5 6.71875 -26.71875 Z M 1.5625 -20.59375 C 1.5625 -21.3125 1.835938 -21.851562 2.390625 -22.21875 C 2.941406 -22.59375 3.519531 -22.78125 4.125 -22.78125 C 4.75 -22.78125 5.328125 -22.59375 5.859375 -22.21875 C 6.398438 -21.851562 6.671875 -21.328125 6.671875 -20.640625 L 6.671875 -2.1875 C 6.671875 -1.445312 6.398438 -0.894531 5.859375 -0.53125 C 5.328125 -0.175781 4.75 0 4.125 0 C 3.519531 0 2.941406 -0.175781 2.390625 -0.53125 C 1.835938 -0.894531 1.5625 -1.445312 1.5625 -2.1875 Z M 1.5625 -20.59375 "/></g></g></g><g fill="#373643" fill-opacity="1"><g transform="translate(160.444452, 116.361064)"><g><path d="M 32.765625 -23.234375 C 34.859375 -23.234375 36.632812 -22.773438 38.09375 -21.859375 C 39.5625 -20.953125 40.679688 -19.6875 41.453125 -18.0625 C 42.222656 -16.4375 42.609375 -14.550781 42.609375 -12.40625 L 42.609375 -2.328125 C 42.609375 -1.640625 42.390625 -1.078125 41.953125 -0.640625 C 41.523438 -0.210938 40.894531 0 40.0625 0 C 39.320312 0 38.710938 -0.210938 38.234375 -0.640625 C 37.753906 -1.078125 37.515625 -1.640625 37.515625 -2.328125 L 37.515625 -12.484375 C 37.515625 -14.335938 37.070312 -15.84375 36.1875 -17 C 35.3125 -18.164062 33.929688 -18.75 32.046875 -18.75 C 31.097656 -18.75 30.09375 -18.453125 29.03125 -17.859375 C 27.96875 -17.265625 27.070312 -16.398438 26.34375 -15.265625 C 25.613281 -14.128906 25.25 -12.742188 25.25 -11.109375 L 25.25 -2.328125 C 25.25 -1.640625 25.03125 -1.078125 24.59375 -0.640625 C 24.164062 -0.210938 23.546875 0 22.734375 0 C 21.992188 0 21.375 -0.210938 20.875 -0.640625 C 20.382812 -1.078125 20.140625 -1.640625 20.140625 -2.328125 L 20.140625 -12.484375 C 20.140625 -14.335938 19.695312 -15.84375 18.8125 -17 C 17.9375 -18.164062 16.5625 -18.75 14.6875 -18.75 C 14.113281 -18.75 13.453125 -18.59375 12.703125 -18.28125 C 11.960938 -17.96875 11.234375 -17.5 10.515625 -16.875 C 9.804688 -16.25 9.21875 -15.457031 8.75 -14.5 C 8.289062 -13.550781 8.0625 -12.421875 8.0625 -11.109375 L 8.0625 -2.234375 C 8.0625 -1.492188 7.789062 -0.9375 7.25 -0.5625 C 6.71875 -0.1875 6.132812 0 5.5 0 C 4.84375 0 4.257812 -0.1875 3.75 -0.5625 C 3.25 -0.9375 3 -1.492188 3 -2.234375 L 3 -20.5 C 3 -21.125 3.242188 -21.660156 3.734375 -22.109375 C 4.234375 -22.554688 4.820312 -22.78125 5.5 -22.78125 C 6.28125 -22.78125 6.898438 -22.554688 7.359375 -22.109375 C 7.828125 -21.660156 8.0625 -21.125 8.0625 -20.5 L 8.0625 -20.375 C 9.28125 -21.53125 10.53125 -22.296875 11.8125 -22.671875 C 13.101562 -23.046875 14.3125 -23.234375 15.4375 -23.234375 C 17.320312 -23.234375 18.953125 -22.851562 20.328125 -22.09375 C 21.703125 -21.332031 22.789062 -20.296875 23.59375 -18.984375 C 24.519531 -20.117188 25.519531 -20.988281 26.59375 -21.59375 C 27.664062 -22.207031 28.738281 -22.632812 29.8125 -22.875 C 30.882812 -23.113281 31.867188 -23.234375 32.765625 -23.234375 Z M 32.765625 -23.234375 "/></g></g></g><g fill="#373643" fill-opacity="1"><g transform="translate(206.54061, 116.361064)"><g><path d="M 6.71875 -26.140625 C 6.71875 -25.398438 6.441406 -24.84375 5.890625 -24.46875 C 5.335938 -24.09375 4.75 -23.90625 4.125 -23.90625 C 3.46875 -23.90625 2.867188 -24.09375 2.328125 -24.46875 C 1.785156 -24.84375 1.515625 -25.398438 1.515625 -26.140625 L 1.515625 -26.71875 C 1.515625 -27.5 1.785156 -28.066406 2.328125 -28.421875 C 2.867188 -28.785156 3.46875 -28.96875 4.125 -28.96875 C 4.75 -28.96875 5.335938 -28.785156 5.890625 -28.421875 C 6.441406 -28.066406 6.71875 -27.5 6.71875 -26.71875 Z M 1.5625 -20.59375 C 1.5625 -21.3125 1.835938 -21.851562 2.390625 -22.21875 C 2.941406 -22.59375 3.519531 -22.78125 4.125 -22.78125 C 4.75 -22.78125 5.328125 -22.59375 5.859375 -22.21875 C 6.398438 -21.851562 6.671875 -21.328125 6.671875 -20.640625 L 6.671875 -2.1875 C 6.671875 -1.445312 6.398438 -0.894531 5.859375 -0.53125 C 5.328125 -0.175781 4.75 0 4.125 0 C 3.519531 0 2.941406 -0.175781 2.390625 -0.53125 C 1.835938 -0.894531 1.5625 -1.445312 1.5625 -2.1875 Z M 1.5625 -20.59375 "/></g></g></g><g fill="#373643" fill-opacity="1"><g transform="translate(213.879888, 116.361064)"><g><path d="M 7.75 -4.4375 L 19.0625 -4.484375 C 19.9375 -4.484375 20.585938 -4.242188 21.015625 -3.765625 C 21.453125 -3.285156 21.671875 -2.757812 21.671875 -2.1875 C 21.671875 -1.625 21.453125 -1.117188 21.015625 -0.671875 C 20.585938 -0.222656 19.9375 0 19.0625 0 L 2.859375 0 C 1.992188 0 1.328125 -0.222656 0.859375 -0.671875 C 0.398438 -1.117188 0.171875 -1.625 0.171875 -2.1875 C 0.171875 -2.820312 0.457031 -3.421875 1.03125 -3.984375 L 13.78125 -18.265625 L 3.359375 -18.21875 C 2.554688 -18.21875 1.9375 -18.445312 1.5 -18.90625 C 1.0625 -19.375 0.84375 -19.890625 0.84375 -20.453125 C 0.84375 -21.054688 1.0625 -21.59375 1.5 -22.0625 C 1.9375 -22.539062 2.554688 -22.78125 3.359375 -22.78125 L 18.75 -22.78125 C 19.5625 -22.78125 20.210938 -22.535156 20.703125 -22.046875 C 21.191406 -21.554688 21.4375 -21.007812 21.4375 -20.40625 C 21.4375 -19.875 21.171875 -19.3125 20.640625 -18.71875 Z M 7.75 -4.4375 "/></g></g></g><g fill="#373643" fill-opacity="1"><g transform="translate(235.853676, 116.361064)"><g><path d="M 12.796875 -3.984375 C 13.660156 -3.984375 14.507812 -4.101562 15.34375 -4.34375 C 16.1875 -4.582031 16.96875 -4.984375 17.6875 -5.546875 C 18.375 -6.171875 19.046875 -6.460938 19.703125 -6.421875 C 20.359375 -6.378906 20.898438 -6.140625 21.328125 -5.703125 C 21.765625 -5.273438 21.984375 -4.738281 21.984375 -4.09375 C 21.984375 -3.457031 21.671875 -2.835938 21.046875 -2.234375 C 19.992188 -1.222656 18.75 -0.515625 17.3125 -0.109375 C 15.882812 0.296875 14.425781 0.484375 12.9375 0.453125 C 10.613281 0.453125 8.5625 -0.0234375 6.78125 -0.984375 C 5.007812 -1.941406 3.625 -3.269531 2.625 -4.96875 C 1.625 -6.664062 1.125 -8.632812 1.125 -10.875 C 1.125 -13.320312 1.597656 -15.46875 2.546875 -17.3125 C 3.503906 -19.164062 4.851562 -20.613281 6.59375 -21.65625 C 8.34375 -22.707031 10.410156 -23.234375 12.796875 -23.234375 C 15.191406 -23.234375 17.222656 -22.75 18.890625 -21.78125 C 20.554688 -20.8125 21.832031 -19.453125 22.71875 -17.703125 C 23.601562 -15.960938 24.046875 -13.925781 24.046875 -11.59375 C 24.046875 -10.84375 23.894531 -10.207031 23.59375 -9.6875 C 23.289062 -9.164062 22.5 -8.90625 21.21875 -8.90625 L 6.3125 -8.90625 C 6.726562 -7.445312 7.519531 -6.257812 8.6875 -5.34375 C 9.851562 -4.4375 11.222656 -3.984375 12.796875 -3.984375 Z M 12.84375 -18.796875 C 11.113281 -18.796875 9.664062 -18.25 8.5 -17.15625 C 7.34375 -16.070312 6.597656 -14.648438 6.265625 -12.890625 L 19.296875 -12.890625 C 19.140625 -14.648438 18.554688 -16.070312 17.546875 -17.15625 C 16.535156 -18.25 14.96875 -18.796875 12.84375 -18.796875 Z M 12.84375 -18.796875 "/></g></g></g><g fill="#373643" fill-opacity="1"><g transform="translate(44.811862, 138.446446)"><g><path d="M 0.640625 -3.234375 C 0.640625 -3.898438 0.769531 -4.484375 1.03125 -4.984375 C 1.300781 -5.484375 1.671875 -5.863281 2.140625 -6.125 C 2.609375 -6.394531 3.148438 -6.53125 3.765625 -6.53125 C 4.566406 -6.53125 5.226562 -6.328125 5.75 -5.921875 C 6.269531 -5.515625 6.59375 -4.972656 6.71875 -4.296875 L 6.15625 -4.296875 C 6.0625 -4.847656 5.796875 -5.28125 5.359375 -5.59375 C 4.929688 -5.914062 4.398438 -6.078125 3.765625 -6.078125 C 3.285156 -6.078125 2.851562 -5.972656 2.46875 -5.765625 C 2.082031 -5.554688 1.769531 -5.234375 1.53125 -4.796875 C 1.300781 -4.367188 1.1875 -3.847656 1.1875 -3.234375 C 1.1875 -2.609375 1.300781 -2.082031 1.53125 -1.65625 C 1.769531 -1.226562 2.082031 -0.90625 2.46875 -0.6875 C 2.851562 -0.476562 3.285156 -0.375 3.765625 -0.375 C 4.398438 -0.375 4.929688 -0.53125 5.359375 -0.84375 C 5.796875 -1.15625 6.0625 -1.59375 6.15625 -2.15625 L 6.71875 -2.15625 C 6.59375 -1.476562 6.269531 -0.929688 5.75 -0.515625 C 5.226562 -0.109375 4.566406 0.09375 3.765625 0.09375 C 3.148438 0.09375 2.609375 -0.0390625 2.140625 -0.3125 C 1.671875 -0.582031 1.300781 -0.96875 1.03125 -1.46875 C 0.769531 -1.96875 0.640625 -2.554688 0.640625 -3.234375 Z M 0.640625 -3.234375 "/></g></g></g><g fill="#373643" fill-opacity="1"><g transform="translate(51.73228, 138.446446)"><g><path d="M 3.8125 0.09375 C 3.207031 0.09375 2.660156 -0.0390625 2.171875 -0.3125 C 1.691406 -0.582031 1.316406 -0.96875 1.046875 -1.46875 C 0.773438 -1.96875 0.640625 -2.554688 0.640625 -3.234375 C 0.640625 -3.898438 0.773438 -4.484375 1.046875 -4.984375 C 1.328125 -5.484375 1.710938 -5.863281 2.203125 -6.125 C 2.691406 -6.394531 3.234375 -6.53125 3.828125 -6.53125 C 4.429688 -6.53125 4.972656 -6.394531 5.453125 -6.125 C 5.941406 -5.863281 6.320312 -5.484375 6.59375 -4.984375 C 6.863281 -4.484375 7 -3.898438 7 -3.234375 C 7 -2.554688 6.859375 -1.96875 6.578125 -1.46875 C 6.304688 -0.96875 5.925781 -0.582031 5.4375 -0.3125 C 4.957031 -0.0390625 4.414062 0.09375 3.8125 0.09375 Z M 3.8125 -0.375 C 4.28125 -0.375 4.71875 -0.476562 5.125 -0.6875 C 5.53125 -0.90625 5.851562 -1.226562 6.09375 -1.65625 C 6.34375 -2.082031 6.46875 -2.609375 6.46875 -3.234375 C 6.46875 -3.847656 6.34375 -4.367188 6.09375 -4.796875 C 5.851562 -5.222656 5.53125 -5.539062 5.125 -5.75 C 4.726562 -5.957031 4.296875 -6.0625 3.828125 -6.0625 C 3.359375 -6.0625 2.921875 -5.957031 2.515625 -5.75 C 2.117188 -5.539062 1.796875 -5.222656 1.546875 -4.796875 C 1.304688 -4.367188 1.1875 -3.847656 1.1875 -3.234375 C 1.1875 -2.609375 1.304688 -2.082031 1.546875 -1.65625 C 1.785156 -1.226562 2.101562 -0.90625 2.5 -0.6875 C 2.90625 -0.476562 3.34375 -0.375 3.8125 -0.375 Z M 3.8125 -0.375 "/></g></g></g><g fill="#373643" fill-opacity="1"><g transform="translate(58.93761, 138.446446)"><g><path d="M 8.59375 -6.578125 C 9.332031 -6.578125 9.9375 -6.34375 10.40625 -5.875 C 10.875 -5.40625 11.109375 -4.707031 11.109375 -3.78125 L 11.109375 0 L 10.578125 0 L 10.578125 -3.734375 C 10.578125 -4.503906 10.390625 -5.09375 10.015625 -5.5 C 9.648438 -5.90625 9.148438 -6.109375 8.515625 -6.109375 C 7.847656 -6.109375 7.3125 -5.878906 6.90625 -5.421875 C 6.507812 -4.960938 6.3125 -4.300781 6.3125 -3.4375 L 6.3125 0 L 5.78125 0 L 5.78125 -3.734375 C 5.78125 -4.503906 5.59375 -5.09375 5.21875 -5.5 C 4.851562 -5.90625 4.351562 -6.109375 3.71875 -6.109375 C 3.050781 -6.109375 2.515625 -5.878906 2.109375 -5.421875 C 1.710938 -4.960938 1.515625 -4.300781 1.515625 -3.4375 L 1.515625 0 L 0.96875 0 L 0.96875 -6.453125 L 1.515625 -6.453125 L 1.515625 -5.046875 C 1.691406 -5.554688 1.984375 -5.9375 2.390625 -6.1875 C 2.796875 -6.445312 3.265625 -6.578125 3.796875 -6.578125 C 4.378906 -6.578125 4.882812 -6.425781 5.3125 -6.125 C 5.738281 -5.820312 6.03125 -5.375 6.1875 -4.78125 C 6.332031 -5.375 6.625 -5.820312 7.0625 -6.125 C 7.5 -6.425781 8.007812 -6.578125 8.59375 -6.578125 Z M 8.59375 -6.578125 "/></g></g></g><g fill="#373643" fill-opacity="1"><g transform="translate(70.511503, 138.446446)"><g><path d="M 1.515625 -4.75 C 1.710938 -5.269531 2.046875 -5.695312 2.515625 -6.03125 C 2.992188 -6.363281 3.566406 -6.53125 4.234375 -6.53125 C 4.835938 -6.53125 5.375 -6.394531 5.84375 -6.125 C 6.320312 -5.851562 6.691406 -5.46875 6.953125 -4.96875 C 7.210938 -4.476562 7.34375 -3.898438 7.34375 -3.234375 C 7.34375 -2.566406 7.210938 -1.976562 6.953125 -1.46875 C 6.691406 -0.96875 6.320312 -0.582031 5.84375 -0.3125 C 5.375 -0.0390625 4.835938 0.09375 4.234375 0.09375 C 3.566406 0.09375 2.992188 -0.0703125 2.515625 -0.40625 C 2.035156 -0.738281 1.703125 -1.164062 1.515625 -1.6875 L 1.515625 0 L 0.96875 0 L 0.96875 -8.78125 L 1.515625 -8.78125 Z M 6.796875 -3.234375 C 6.796875 -3.816406 6.6875 -4.320312 6.46875 -4.75 C 6.25 -5.175781 5.9375 -5.5 5.53125 -5.71875 C 5.132812 -5.945312 4.675781 -6.0625 4.15625 -6.0625 C 3.65625 -6.0625 3.203125 -5.945312 2.796875 -5.71875 C 2.398438 -5.488281 2.085938 -5.15625 1.859375 -4.71875 C 1.628906 -4.289062 1.515625 -3.796875 1.515625 -3.234375 C 1.515625 -2.660156 1.628906 -2.15625 1.859375 -1.71875 C 2.085938 -1.289062 2.398438 -0.957031 2.796875 -0.71875 C 3.203125 -0.488281 3.65625 -0.375 4.15625 -0.375 C 4.675781 -0.375 5.132812 -0.488281 5.53125 -0.71875 C 5.9375 -0.945312 6.25 -1.273438 6.46875 -1.703125 C 6.6875 -2.128906 6.796875 -2.640625 6.796875 -3.234375 Z M 6.796875 -3.234375 "/></g></g></g><g fill="#373643" fill-opacity="1"><g transform="translate(78.049216, 138.446446)"><g><path d="M 1.25 -7.890625 C 1.125 -7.890625 1.015625 -7.929688 0.921875 -8.015625 C 0.835938 -8.097656 0.796875 -8.207031 0.796875 -8.34375 C 0.796875 -8.476562 0.835938 -8.585938 0.921875 -8.671875 C 1.015625 -8.765625 1.125 -8.8125 1.25 -8.8125 C 1.375 -8.8125 1.476562 -8.765625 1.5625 -8.671875 C 1.65625 -8.585938 1.703125 -8.476562 1.703125 -8.34375 C 1.703125 -8.207031 1.65625 -8.097656 1.5625 -8.015625 C 1.476562 -7.929688 1.375 -7.890625 1.25 -7.890625 Z M 1.515625 -6.453125 L 1.515625 0 L 0.96875 0 L 0.96875 -6.453125 Z M 1.515625 -6.453125 "/></g></g></g><g fill="#373643" fill-opacity="1"><g transform="translate(80.090616, 138.446446)"><g><path d="M 3.890625 -6.578125 C 4.648438 -6.578125 5.269531 -6.34375 5.75 -5.875 C 6.238281 -5.40625 6.484375 -4.707031 6.484375 -3.78125 L 6.484375 0 L 5.96875 0 L 5.96875 -3.734375 C 5.96875 -4.503906 5.769531 -5.09375 5.375 -5.5 C 4.988281 -5.90625 4.460938 -6.109375 3.796875 -6.109375 C 3.097656 -6.109375 2.539062 -5.882812 2.125 -5.4375 C 1.71875 -5 1.515625 -4.347656 1.515625 -3.484375 L 1.515625 0 L 0.96875 0 L 0.96875 -6.453125 L 1.515625 -6.453125 L 1.515625 -5.078125 C 1.691406 -5.566406 1.988281 -5.9375 2.40625 -6.1875 C 2.832031 -6.445312 3.328125 -6.578125 3.890625 -6.578125 Z M 3.890625 -6.578125 "/></g></g></g><g fill="#373643" fill-opacity="1"><g transform="translate(87.034779, 138.446446)"><g><path d="M 6.78125 -3.65625 C 6.78125 -3.375 6.769531 -3.160156 6.75 -3.015625 L 1.1875 -3.015625 C 1.207031 -2.441406 1.332031 -1.957031 1.5625 -1.5625 C 1.800781 -1.164062 2.113281 -0.867188 2.5 -0.671875 C 2.894531 -0.472656 3.320312 -0.375 3.78125 -0.375 C 4.40625 -0.375 4.929688 -0.53125 5.359375 -0.84375 C 5.796875 -1.15625 6.066406 -1.578125 6.171875 -2.109375 L 6.734375 -2.109375 C 6.609375 -1.453125 6.28125 -0.921875 5.75 -0.515625 C 5.226562 -0.109375 4.570312 0.09375 3.78125 0.09375 C 3.175781 0.09375 2.632812 -0.0390625 2.15625 -0.3125 C 1.6875 -0.582031 1.316406 -0.96875 1.046875 -1.46875 C 0.773438 -1.96875 0.640625 -2.554688 0.640625 -3.234375 C 0.640625 -3.898438 0.769531 -4.484375 1.03125 -4.984375 C 1.300781 -5.484375 1.671875 -5.863281 2.140625 -6.125 C 2.617188 -6.394531 3.164062 -6.53125 3.78125 -6.53125 C 4.394531 -6.53125 4.925781 -6.394531 5.375 -6.125 C 5.832031 -5.863281 6.179688 -5.515625 6.421875 -5.078125 C 6.660156 -4.640625 6.78125 -4.164062 6.78125 -3.65625 Z M 6.25 -3.453125 C 6.269531 -4.023438 6.164062 -4.507812 5.9375 -4.90625 C 5.71875 -5.300781 5.410156 -5.59375 5.015625 -5.78125 C 4.628906 -5.976562 4.210938 -6.078125 3.765625 -6.078125 C 3.316406 -6.078125 2.898438 -5.976562 2.515625 -5.78125 C 2.128906 -5.59375 1.816406 -5.300781 1.578125 -4.90625 C 1.335938 -4.507812 1.207031 -4.023438 1.1875 -3.453125 Z M 6.25 -3.453125 "/></g></g></g><g fill="#373643" fill-opacity="1"><g transform="translate(94.00268, 138.446446)"><g><path d="M 3.125 0.09375 C 2.40625 0.09375 1.816406 -0.0625 1.359375 -0.375 C 0.898438 -0.695312 0.644531 -1.148438 0.59375 -1.734375 L 1.140625 -1.734375 C 1.179688 -1.316406 1.375 -0.984375 1.71875 -0.734375 C 2.0625 -0.492188 2.53125 -0.375 3.125 -0.375 C 3.613281 -0.375 4 -0.492188 4.28125 -0.734375 C 4.570312 -0.984375 4.71875 -1.289062 4.71875 -1.65625 C 4.71875 -1.914062 4.640625 -2.125 4.484375 -2.28125 C 4.335938 -2.445312 4.148438 -2.570312 3.921875 -2.65625 C 3.691406 -2.75 3.378906 -2.84375 2.984375 -2.9375 C 2.503906 -3.070312 2.117188 -3.195312 1.828125 -3.3125 C 1.535156 -3.4375 1.285156 -3.617188 1.078125 -3.859375 C 0.867188 -4.109375 0.765625 -4.441406 0.765625 -4.859375 C 0.765625 -5.160156 0.851562 -5.4375 1.03125 -5.6875 C 1.21875 -5.945312 1.472656 -6.148438 1.796875 -6.296875 C 2.128906 -6.453125 2.5 -6.53125 2.90625 -6.53125 C 3.582031 -6.53125 4.128906 -6.359375 4.546875 -6.015625 C 4.960938 -5.679688 5.1875 -5.21875 5.21875 -4.625 L 4.671875 -4.625 C 4.648438 -5.050781 4.484375 -5.398438 4.171875 -5.671875 C 3.867188 -5.941406 3.441406 -6.078125 2.890625 -6.078125 C 2.429688 -6.078125 2.050781 -5.957031 1.75 -5.71875 C 1.457031 -5.488281 1.3125 -5.203125 1.3125 -4.859375 C 1.3125 -4.554688 1.394531 -4.3125 1.5625 -4.125 C 1.726562 -3.9375 1.9375 -3.789062 2.1875 -3.6875 C 2.4375 -3.59375 2.769531 -3.492188 3.1875 -3.390625 C 3.632812 -3.265625 3.992188 -3.144531 4.265625 -3.03125 C 4.535156 -2.914062 4.765625 -2.75 4.953125 -2.53125 C 5.148438 -2.3125 5.25 -2.019531 5.25 -1.65625 C 5.25 -1.320312 5.15625 -1.019531 4.96875 -0.75 C 4.789062 -0.488281 4.539062 -0.28125 4.21875 -0.125 C 3.894531 0.0195312 3.53125 0.09375 3.125 0.09375 Z M 3.125 0.09375 "/></g></g></g><g fill="#373643" fill-opacity="1"><g transform="translate(99.45108, 138.446446)"><g/></g></g><g fill="#373643" fill-opacity="1"><g transform="translate(102.347196, 138.446446)"><g><path d="M 0.640625 -3.234375 C 0.640625 -3.898438 0.769531 -4.476562 1.03125 -4.96875 C 1.300781 -5.46875 1.671875 -5.851562 2.140625 -6.125 C 2.609375 -6.394531 3.144531 -6.53125 3.75 -6.53125 C 4.40625 -6.53125 4.972656 -6.363281 5.453125 -6.03125 C 5.941406 -5.707031 6.285156 -5.285156 6.484375 -4.765625 L 6.484375 -8.78125 L 7.015625 -8.78125 L 7.015625 0 L 6.484375 0 L 6.484375 -1.703125 C 6.296875 -1.179688 5.960938 -0.75 5.484375 -0.40625 C 5.015625 -0.0703125 4.4375 0.09375 3.75 0.09375 C 3.144531 0.09375 2.609375 -0.0390625 2.140625 -0.3125 C 1.671875 -0.582031 1.300781 -0.96875 1.03125 -1.46875 C 0.769531 -1.976562 0.640625 -2.566406 0.640625 -3.234375 Z M 6.484375 -3.234375 C 6.484375 -3.796875 6.363281 -4.289062 6.125 -4.71875 C 5.894531 -5.15625 5.578125 -5.488281 5.171875 -5.71875 C 4.773438 -5.945312 4.328125 -6.0625 3.828125 -6.0625 C 3.304688 -6.0625 2.847656 -5.945312 2.453125 -5.71875 C 2.054688 -5.5 1.742188 -5.175781 1.515625 -4.75 C 1.296875 -4.320312 1.1875 -3.816406 1.1875 -3.234375 C 1.1875 -2.640625 1.296875 -2.128906 1.515625 -1.703125 C 1.742188 -1.273438 2.054688 -0.945312 2.453125 -0.71875 C 2.847656 -0.488281 3.304688 -0.375 3.828125 -0.375 C 4.328125 -0.375 4.78125 -0.488281 5.1875 -0.71875 C 5.59375 -0.957031 5.910156 -1.289062 6.140625 -1.71875 C 6.367188 -2.15625 6.484375 -2.660156 6.484375 -3.234375 Z M 6.484375 -3.234375 "/></g></g></g><g fill="#373643" fill-opacity="1"><g transform="translate(109.88491, 138.446446)"><g><path d="M 0.640625 -3.234375 C 0.640625 -3.898438 0.769531 -4.476562 1.03125 -4.96875 C 1.300781 -5.46875 1.671875 -5.851562 2.140625 -6.125 C 2.609375 -6.394531 3.144531 -6.53125 3.75 -6.53125 C 4.4375 -6.53125 5.015625 -6.363281 5.484375 -6.03125 C 5.960938 -5.695312 6.296875 -5.273438 6.484375 -4.765625 L 6.484375 -6.453125 L 7.015625 -6.453125 L 7.015625 0 L 6.484375 0 L 6.484375 -1.703125 C 6.296875 -1.179688 5.960938 -0.75 5.484375 -0.40625 C 5.003906 -0.0703125 4.425781 0.09375 3.75 0.09375 C 3.144531 0.09375 2.609375 -0.0390625 2.140625 -0.3125 C 1.671875 -0.582031 1.300781 -0.96875 1.03125 -1.46875 C 0.769531 -1.976562 0.640625 -2.566406 0.640625 -3.234375 Z M 6.484375 -3.234375 C 6.484375 -3.796875 6.363281 -4.289062 6.125 -4.71875 C 5.894531 -5.15625 5.578125 -5.488281 5.171875 -5.71875 C 4.773438 -5.945312 4.328125 -6.0625 3.828125 -6.0625 C 3.304688 -6.0625 2.847656 -5.945312 2.453125 -5.71875 C 2.054688 -5.5 1.742188 -5.175781 1.515625 -4.75 C 1.296875 -4.320312 1.1875 -3.816406 1.1875 -3.234375 C 1.1875 -2.640625 1.296875 -2.128906 1.515625 -1.703125 C 1.742188 -1.273438 2.054688 -0.945312 2.453125 -0.71875 C 2.847656 -0.488281 3.304688 -0.375 3.828125 -0.375 C 4.328125 -0.375 4.78125 -0.488281 5.1875 -0.71875 C 5.59375 -0.957031 5.910156 -1.289062 6.140625 -1.71875 C 6.367188 -2.15625 6.484375 -2.660156 6.484375 -3.234375 Z M 6.484375 -3.234375 "/></g></g></g><g fill="#373643" fill-opacity="1"><g transform="translate(117.422623, 138.446446)"><g><path d="M 1.765625 -5.984375 L 1.765625 -1.71875 C 1.765625 -1.25 1.851562 -0.921875 2.03125 -0.734375 C 2.207031 -0.554688 2.515625 -0.46875 2.953125 -0.46875 L 3.6875 -0.46875 L 3.6875 0 L 2.875 0 C 2.3125 0 1.894531 -0.128906 1.625 -0.390625 C 1.363281 -0.660156 1.234375 -1.101562 1.234375 -1.71875 L 1.234375 -5.984375 L 0.265625 -5.984375 L 0.265625 -6.453125 L 1.234375 -6.453125 L 1.234375 -8.09375 L 1.765625 -8.09375 L 1.765625 -6.453125 L 3.6875 -6.453125 L 3.6875 -5.984375 Z M 1.765625 -5.984375 "/></g></g></g><g fill="#373643" fill-opacity="1"><g transform="translate(121.090357, 138.446446)"><g><path d="M 0.640625 -3.234375 C 0.640625 -3.898438 0.769531 -4.476562 1.03125 -4.96875 C 1.300781 -5.46875 1.671875 -5.851562 2.140625 -6.125 C 2.609375 -6.394531 3.144531 -6.53125 3.75 -6.53125 C 4.4375 -6.53125 5.015625 -6.363281 5.484375 -6.03125 C 5.960938 -5.695312 6.296875 -5.273438 6.484375 -4.765625 L 6.484375 -6.453125 L 7.015625 -6.453125 L 7.015625 0 L 6.484375 0 L 6.484375 -1.703125 C 6.296875 -1.179688 5.960938 -0.75 5.484375 -0.40625 C 5.003906 -0.0703125 4.425781 0.09375 3.75 0.09375 C 3.144531 0.09375 2.609375 -0.0390625 2.140625 -0.3125 C 1.671875 -0.582031 1.300781 -0.96875 1.03125 -1.46875 C 0.769531 -1.976562 0.640625 -2.566406 0.640625 -3.234375 Z M 6.484375 -3.234375 C 6.484375 -3.796875 6.363281 -4.289062 6.125 -4.71875 C 5.894531 -5.15625 5.578125 -5.488281 5.171875 -5.71875 C 4.773438 -5.945312 4.328125 -6.0625 3.828125 -6.0625 C 3.304688 -6.0625 2.847656 -5.945312 2.453125 -5.71875 C 2.054688 -5.5 1.742188 -5.175781 1.515625 -4.75 C 1.296875 -4.320312 1.1875 -3.816406 1.1875 -3.234375 C 1.1875 -2.640625 1.296875 -2.128906 1.515625 -1.703125 C 1.742188 -1.273438 2.054688 -0.945312 2.453125 -0.71875 C 2.847656 -0.488281 3.304688 -0.375 3.828125 -0.375 C 4.328125 -0.375 4.78125 -0.488281 5.1875 -0.71875 C 5.59375 -0.957031 5.910156 -1.289062 6.140625 -1.71875 C 6.367188 -2.15625 6.484375 -2.660156 6.484375 -3.234375 Z M 6.484375 -3.234375 "/></g></g></g><g fill="#373643" fill-opacity="1"><g transform="translate(128.62807, 138.446446)"><g/></g></g><g fill="#373643" fill-opacity="1"><g transform="translate(131.524186, 138.446446)"><g><path d="M 3.125 0.09375 C 2.40625 0.09375 1.816406 -0.0625 1.359375 -0.375 C 0.898438 -0.695312 0.644531 -1.148438 0.59375 -1.734375 L 1.140625 -1.734375 C 1.179688 -1.316406 1.375 -0.984375 1.71875 -0.734375 C 2.0625 -0.492188 2.53125 -0.375 3.125 -0.375 C 3.613281 -0.375 4 -0.492188 4.28125 -0.734375 C 4.570312 -0.984375 4.71875 -1.289062 4.71875 -1.65625 C 4.71875 -1.914062 4.640625 -2.125 4.484375 -2.28125 C 4.335938 -2.445312 4.148438 -2.570312 3.921875 -2.65625 C 3.691406 -2.75 3.378906 -2.84375 2.984375 -2.9375 C 2.503906 -3.070312 2.117188 -3.195312 1.828125 -3.3125 C 1.535156 -3.4375 1.285156 -3.617188 1.078125 -3.859375 C 0.867188 -4.109375 0.765625 -4.441406 0.765625 -4.859375 C 0.765625 -5.160156 0.851562 -5.4375 1.03125 -5.6875 C 1.21875 -5.945312 1.472656 -6.148438 1.796875 -6.296875 C 2.128906 -6.453125 2.5 -6.53125 2.90625 -6.53125 C 3.582031 -6.53125 4.128906 -6.359375 4.546875 -6.015625 C 4.960938 -5.679688 5.1875 -5.21875 5.21875 -4.625 L 4.671875 -4.625 C 4.648438 -5.050781 4.484375 -5.398438 4.171875 -5.671875 C 3.867188 -5.941406 3.441406 -6.078125 2.890625 -6.078125 C 2.429688 -6.078125 2.050781 -5.957031 1.75 -5.71875 C 1.457031 -5.488281 1.3125 -5.203125 1.3125 -4.859375 C 1.3125 -4.554688 1.394531 -4.3125 1.5625 -4.125 C 1.726562 -3.9375 1.9375 -3.789062 2.1875 -3.6875 C 2.4375 -3.59375 2.769531 -3.492188 3.1875 -3.390625 C 3.632812 -3.265625 3.992188 -3.144531 4.265625 -3.03125 C 4.535156 -2.914062 4.765625 -2.75 4.953125 -2.53125 C 5.148438 -2.3125 5.25 -2.019531 5.25 -1.65625 C 5.25 -1.320312 5.15625 -1.019531 4.96875 -0.75 C 4.789062 -0.488281 4.539062 -0.28125 4.21875 -0.125 C 3.894531 0.0195312 3.53125 0.09375 3.125 0.09375 Z M 3.125 0.09375 "/></g></g></g><g fill="#373643" fill-opacity="1"><g transform="translate(136.972587, 138.446446)"><g><path d="M 0.640625 -3.234375 C 0.640625 -3.898438 0.769531 -4.484375 1.03125 -4.984375 C 1.300781 -5.484375 1.671875 -5.863281 2.140625 -6.125 C 2.609375 -6.394531 3.148438 -6.53125 3.765625 -6.53125 C 4.566406 -6.53125 5.226562 -6.328125 5.75 -5.921875 C 6.269531 -5.515625 6.59375 -4.972656 6.71875 -4.296875 L 6.15625 -4.296875 C 6.0625 -4.847656 5.796875 -5.28125 5.359375 -5.59375 C 4.929688 -5.914062 4.398438 -6.078125 3.765625 -6.078125 C 3.285156 -6.078125 2.851562 -5.972656 2.46875 -5.765625 C 2.082031 -5.554688 1.769531 -5.234375 1.53125 -4.796875 C 1.300781 -4.367188 1.1875 -3.847656 1.1875 -3.234375 C 1.1875 -2.609375 1.300781 -2.082031 1.53125 -1.65625 C 1.769531 -1.226562 2.082031 -0.90625 2.46875 -0.6875 C 2.851562 -0.476562 3.285156 -0.375 3.765625 -0.375 C 4.398438 -0.375 4.929688 -0.53125 5.359375 -0.84375 C 5.796875 -1.15625 6.0625 -1.59375 6.15625 -2.15625 L 6.71875 -2.15625 C 6.59375 -1.476562 6.269531 -0.929688 5.75 -0.515625 C 5.226562 -0.109375 4.566406 0.09375 3.765625 0.09375 C 3.148438 0.09375 2.609375 -0.0390625 2.140625 -0.3125 C 1.671875 -0.582031 1.300781 -0.96875 1.03125 -1.46875 C 0.769531 -1.96875 0.640625 -2.554688 0.640625 -3.234375 Z M 0.640625 -3.234375 "/></g></g></g><g fill="#373643" fill-opacity="1"><g transform="translate(143.893006, 138.446446)"><g><path d="M 1.25 -7.890625 C 1.125 -7.890625 1.015625 -7.929688 0.921875 -8.015625 C 0.835938 -8.097656 0.796875 -8.207031 0.796875 -8.34375 C 0.796875 -8.476562 0.835938 -8.585938 0.921875 -8.671875 C 1.015625 -8.765625 1.125 -8.8125 1.25 -8.8125 C 1.375 -8.8125 1.476562 -8.765625 1.5625 -8.671875 C 1.65625 -8.585938 1.703125 -8.476562 1.703125 -8.34375 C 1.703125 -8.207031 1.65625 -8.097656 1.5625 -8.015625 C 1.476562 -7.929688 1.375 -7.890625 1.25 -7.890625 Z M 1.515625 -6.453125 L 1.515625 0 L 0.96875 0 L 0.96875 -6.453125 Z M 1.515625 -6.453125 "/></g></g></g><g fill="#373643" fill-opacity="1"><g transform="translate(145.934403, 138.446446)"><g><path d="M 6.78125 -3.65625 C 6.78125 -3.375 6.769531 -3.160156 6.75 -3.015625 L 1.1875 -3.015625 C 1.207031 -2.441406 1.332031 -1.957031 1.5625 -1.5625 C 1.800781 -1.164062 2.113281 -0.867188 2.5 -0.671875 C 2.894531 -0.472656 3.320312 -0.375 3.78125 -0.375 C 4.40625 -0.375 4.929688 -0.53125 5.359375 -0.84375 C 5.796875 -1.15625 6.066406 -1.578125 6.171875 -2.109375 L 6.734375 -2.109375 C 6.609375 -1.453125 6.28125 -0.921875 5.75 -0.515625 C 5.226562 -0.109375 4.570312 0.09375 3.78125 0.09375 C 3.175781 0.09375 2.632812 -0.0390625 2.15625 -0.3125 C 1.6875 -0.582031 1.316406 -0.96875 1.046875 -1.46875 C 0.773438 -1.96875 0.640625 -2.554688 0.640625 -3.234375 C 0.640625 -3.898438 0.769531 -4.484375 1.03125 -4.984375 C 1.300781 -5.484375 1.671875 -5.863281 2.140625 -6.125 C 2.617188 -6.394531 3.164062 -6.53125 3.78125 -6.53125 C 4.394531 -6.53125 4.925781 -6.394531 5.375 -6.125 C 5.832031 -5.863281 6.179688 -5.515625 6.421875 -5.078125 C 6.660156 -4.640625 6.78125 -4.164062 6.78125 -3.65625 Z M 6.25 -3.453125 C 6.269531 -4.023438 6.164062 -4.507812 5.9375 -4.90625 C 5.71875 -5.300781 5.410156 -5.59375 5.015625 -5.78125 C 4.628906 -5.976562 4.210938 -6.078125 3.765625 -6.078125 C 3.316406 -6.078125 2.898438 -5.976562 2.515625 -5.78125 C 2.128906 -5.59375 1.816406 -5.300781 1.578125 -4.90625 C 1.335938 -4.507812 1.207031 -4.023438 1.1875 -3.453125 Z M 6.25 -3.453125 "/></g></g></g><g fill="#373643" fill-opacity="1"><g transform="translate(152.902298, 138.446446)"><g><path d="M 3.890625 -6.578125 C 4.648438 -6.578125 5.269531 -6.34375 5.75 -5.875 C 6.238281 -5.40625 6.484375 -4.707031 6.484375 -3.78125 L 6.484375 0 L 5.96875 0 L 5.96875 -3.734375 C 5.96875 -4.503906 5.769531 -5.09375 5.375 -5.5 C 4.988281 -5.90625 4.460938 -6.109375 3.796875 -6.109375 C 3.097656 -6.109375 2.539062 -5.882812 2.125 -5.4375 C 1.71875 -5 1.515625 -4.347656 1.515625 -3.484375 L 1.515625 0 L 0.96875 0 L 0.96875 -6.453125 L 1.515625 -6.453125 L 1.515625 -5.078125 C 1.691406 -5.566406 1.988281 -5.9375 2.40625 -6.1875 C 2.832031 -6.445312 3.328125 -6.578125 3.890625 -6.578125 Z M 3.890625 -6.578125 "/></g></g></g><g fill="#373643" fill-opacity="1"><g transform="translate(159.846458, 138.446446)"><g><path d="M 0.640625 -3.234375 C 0.640625 -3.898438 0.769531 -4.484375 1.03125 -4.984375 C 1.300781 -5.484375 1.671875 -5.863281 2.140625 -6.125 C 2.609375 -6.394531 3.148438 -6.53125 3.765625 -6.53125 C 4.566406 -6.53125 5.226562 -6.328125 5.75 -5.921875 C 6.269531 -5.515625 6.59375 -4.972656 6.71875 -4.296875 L 6.15625 -4.296875 C 6.0625 -4.847656 5.796875 -5.28125 5.359375 -5.59375 C 4.929688 -5.914062 4.398438 -6.078125 3.765625 -6.078125 C 3.285156 -6.078125 2.851562 -5.972656 2.46875 -5.765625 C 2.082031 -5.554688 1.769531 -5.234375 1.53125 -4.796875 C 1.300781 -4.367188 1.1875 -3.847656 1.1875 -3.234375 C 1.1875 -2.609375 1.300781 -2.082031 1.53125 -1.65625 C 1.769531 -1.226562 2.082031 -0.90625 2.46875 -0.6875 C 2.851562 -0.476562 3.285156 -0.375 3.765625 -0.375 C 4.398438 -0.375 4.929688 -0.53125 5.359375 -0.84375 C 5.796875 -1.15625 6.0625 -1.59375 6.15625 -2.15625 L 6.71875 -2.15625 C 6.59375 -1.476562 6.269531 -0.929688 5.75 -0.515625 C 5.226562 -0.109375 4.566406 0.09375 3.765625 0.09375 C 3.148438 0.09375 2.609375 -0.0390625 2.140625 -0.3125 C 1.671875 -0.582031 1.300781 -0.96875 1.03125 -1.46875 C 0.769531 -1.96875 0.640625 -2.554688 0.640625 -3.234375 Z M 0.640625 -3.234375 "/></g></g></g><g fill="#373643" fill-opacity="1"><g transform="translate(166.766871, 138.446446)"><g><path d="M 6.78125 -3.65625 C 6.78125 -3.375 6.769531 -3.160156 6.75 -3.015625 L 1.1875 -3.015625 C 1.207031 -2.441406 1.332031 -1.957031 1.5625 -1.5625 C 1.800781 -1.164062 2.113281 -0.867188 2.5 -0.671875 C 2.894531 -0.472656 3.320312 -0.375 3.78125 -0.375 C 4.40625 -0.375 4.929688 -0.53125 5.359375 -0.84375 C 5.796875 -1.15625 6.066406 -1.578125 6.171875 -2.109375 L 6.734375 -2.109375 C 6.609375 -1.453125 6.28125 -0.921875 5.75 -0.515625 C 5.226562 -0.109375 4.570312 0.09375 3.78125 0.09375 C 3.175781 0.09375 2.632812 -0.0390625 2.15625 -0.3125 C 1.6875 -0.582031 1.316406 -0.96875 1.046875 -1.46875 C 0.773438 -1.96875 0.640625 -2.554688 0.640625 -3.234375 C 0.640625 -3.898438 0.769531 -4.484375 1.03125 -4.984375 C 1.300781 -5.484375 1.671875 -5.863281 2.140625 -6.125 C 2.617188 -6.394531 3.164062 -6.53125 3.78125 -6.53125 C 4.394531 -6.53125 4.925781 -6.394531 5.375 -6.125 C 5.832031 -5.863281 6.179688 -5.515625 6.421875 -5.078125 C 6.660156 -4.640625 6.78125 -4.164062 6.78125 -3.65625 Z M 6.25 -3.453125 C 6.269531 -4.023438 6.164062 -4.507812 5.9375 -4.90625 C 5.71875 -5.300781 5.410156 -5.59375 5.015625 -5.78125 C 4.628906 -5.976562 4.210938 -6.078125 3.765625 -6.078125 C 3.316406 -6.078125 2.898438 -5.976562 2.515625 -5.78125 C 2.128906 -5.59375 1.816406 -5.300781 1.578125 -4.90625 C 1.335938 -4.507812 1.207031 -4.023438 1.1875 -3.453125 Z M 6.25 -3.453125 "/></g></g></g><g fill="#373643" fill-opacity="1"><g transform="translate(173.734766, 138.446446)"><g/></g></g><g fill="#373643" fill-opacity="1"><g transform="translate(176.630877, 138.446446)"><g><path d="M 7.203125 -2.890625 C 6.921875 -2.390625 6.648438 -1.960938 6.390625 -1.609375 L 7.953125 0 L 7.28125 0 L 6.078125 -1.21875 C 5.671875 -0.75 5.238281 -0.40625 4.78125 -0.1875 C 4.332031 0.0195312 3.816406 0.125 3.234375 0.125 C 2.710938 0.125 2.238281 0.0195312 1.8125 -0.1875 C 1.394531 -0.394531 1.066406 -0.6875 0.828125 -1.0625 C 0.597656 -1.4375 0.484375 -1.867188 0.484375 -2.359375 C 0.484375 -2.953125 0.648438 -3.460938 0.984375 -3.890625 C 1.328125 -4.328125 1.816406 -4.671875 2.453125 -4.921875 C 2.148438 -5.242188 1.925781 -5.546875 1.78125 -5.828125 C 1.644531 -6.109375 1.578125 -6.40625 1.578125 -6.71875 C 1.578125 -7.226562 1.753906 -7.640625 2.109375 -7.953125 C 2.472656 -8.273438 2.945312 -8.4375 3.53125 -8.4375 C 3.882812 -8.4375 4.207031 -8.363281 4.5 -8.21875 C 4.789062 -8.070312 5.019531 -7.867188 5.1875 -7.609375 C 5.351562 -7.347656 5.4375 -7.046875 5.4375 -6.703125 L 4.90625 -6.703125 C 4.90625 -7.097656 4.769531 -7.410156 4.5 -7.640625 C 4.226562 -7.867188 3.90625 -7.984375 3.53125 -7.984375 C 3.101562 -7.984375 2.757812 -7.863281 2.5 -7.625 C 2.238281 -7.394531 2.109375 -7.09375 2.109375 -6.71875 C 2.109375 -6.445312 2.179688 -6.1875 2.328125 -5.9375 C 2.472656 -5.6875 2.695312 -5.398438 3 -5.078125 L 6.03125 -1.96875 C 6.25 -2.289062 6.5 -2.679688 6.78125 -3.140625 L 7.453125 -4.28125 L 8.015625 -4.28125 Z M 3.234375 -0.34375 C 3.742188 -0.34375 4.191406 -0.441406 4.578125 -0.640625 C 4.972656 -0.835938 5.351562 -1.15625 5.71875 -1.59375 L 2.796875 -4.5625 L 2.765625 -4.546875 C 1.597656 -4.117188 1.015625 -3.394531 1.015625 -2.375 C 1.015625 -1.988281 1.109375 -1.640625 1.296875 -1.328125 C 1.492188 -1.015625 1.757812 -0.769531 2.09375 -0.59375 C 2.425781 -0.425781 2.804688 -0.34375 3.234375 -0.34375 Z M 3.234375 -0.34375 "/></g></g></g><g fill="#373643" fill-opacity="1"><g transform="translate(184.441629, 138.446446)"><g/></g></g><g fill="#373643" fill-opacity="1"><g transform="translate(187.337739, 138.446446)"><g><path d="M 8.59375 -6.578125 C 9.332031 -6.578125 9.9375 -6.34375 10.40625 -5.875 C 10.875 -5.40625 11.109375 -4.707031 11.109375 -3.78125 L 11.109375 0 L 10.578125 0 L 10.578125 -3.734375 C 10.578125 -4.503906 10.390625 -5.09375 10.015625 -5.5 C 9.648438 -5.90625 9.148438 -6.109375 8.515625 -6.109375 C 7.847656 -6.109375 7.3125 -5.878906 6.90625 -5.421875 C 6.507812 -4.960938 6.3125 -4.300781 6.3125 -3.4375 L 6.3125 0 L 5.78125 0 L 5.78125 -3.734375 C 5.78125 -4.503906 5.59375 -5.09375 5.21875 -5.5 C 4.851562 -5.90625 4.351562 -6.109375 3.71875 -6.109375 C 3.050781 -6.109375 2.515625 -5.878906 2.109375 -5.421875 C 1.710938 -4.960938 1.515625 -4.300781 1.515625 -3.4375 L 1.515625 0 L 0.96875 0 L 0.96875 -6.453125 L 1.515625 -6.453125 L 1.515625 -5.046875 C 1.691406 -5.554688 1.984375 -5.9375 2.390625 -6.1875 C 2.796875 -6.445312 3.265625 -6.578125 3.796875 -6.578125 C 4.378906 -6.578125 4.882812 -6.425781 5.3125 -6.125 C 5.738281 -5.820312 6.03125 -5.375 6.1875 -4.78125 C 6.332031 -5.375 6.625 -5.820312 7.0625 -6.125 C 7.5 -6.425781 8.007812 -6.578125 8.59375 -6.578125 Z M 8.59375 -6.578125 "/></g></g></g><g fill="#373643" fill-opacity="1"><g transform="translate(198.911629, 138.446446)"><g><path d="M 0.640625 -3.234375 C 0.640625 -3.898438 0.769531 -4.476562 1.03125 -4.96875 C 1.300781 -5.46875 1.671875 -5.851562 2.140625 -6.125 C 2.609375 -6.394531 3.144531 -6.53125 3.75 -6.53125 C 4.4375 -6.53125 5.015625 -6.363281 5.484375 -6.03125 C 5.960938 -5.695312 6.296875 -5.273438 6.484375 -4.765625 L 6.484375 -6.453125 L 7.015625 -6.453125 L 7.015625 0 L 6.484375 0 L 6.484375 -1.703125 C 6.296875 -1.179688 5.960938 -0.75 5.484375 -0.40625 C 5.003906 -0.0703125 4.425781 0.09375 3.75 0.09375 C 3.144531 0.09375 2.609375 -0.0390625 2.140625 -0.3125 C 1.671875 -0.582031 1.300781 -0.96875 1.03125 -1.46875 C 0.769531 -1.976562 0.640625 -2.566406 0.640625 -3.234375 Z M 6.484375 -3.234375 C 6.484375 -3.796875 6.363281 -4.289062 6.125 -4.71875 C 5.894531 -5.15625 5.578125 -5.488281 5.171875 -5.71875 C 4.773438 -5.945312 4.328125 -6.0625 3.828125 -6.0625 C 3.304688 -6.0625 2.847656 -5.945312 2.453125 -5.71875 C 2.054688 -5.5 1.742188 -5.175781 1.515625 -4.75 C 1.296875 -4.320312 1.1875 -3.816406 1.1875 -3.234375 C 1.1875 -2.640625 1.296875 -2.128906 1.515625 -1.703125 C 1.742188 -1.273438 2.054688 -0.945312 2.453125 -0.71875 C 2.847656 -0.488281 3.304688 -0.375 3.828125 -0.375 C 4.328125 -0.375 4.78125 -0.488281 5.1875 -0.71875 C 5.59375 -0.957031 5.910156 -1.289062 6.140625 -1.71875 C 6.367188 -2.15625 6.484375 -2.660156 6.484375 -3.234375 Z M 6.484375 -3.234375 "/></g></g></g><g fill="#373643" fill-opacity="1"><g transform="translate(206.449337, 138.446446)"><g><path d="M 1.515625 -5.125 C 1.671875 -5.59375 1.945312 -5.953125 2.34375 -6.203125 C 2.75 -6.453125 3.265625 -6.578125 3.890625 -6.578125 L 3.890625 -6.015625 L 3.71875 -6.015625 C 3.082031 -6.015625 2.554688 -5.832031 2.140625 -5.46875 C 1.722656 -5.113281 1.515625 -4.53125 1.515625 -3.71875 L 1.515625 0 L 0.96875 0 L 0.96875 -6.453125 L 1.515625 -6.453125 Z M 1.515625 -5.125 "/></g></g></g><g fill="#373643" fill-opacity="1"><g transform="translate(210.152679, 138.446446)"><g><path d="M 4.328125 0 L 1.515625 -2.953125 L 1.515625 0 L 0.96875 0 L 0.96875 -8.78125 L 1.515625 -8.78125 L 1.515625 -3.53125 L 4.28125 -6.453125 L 5.015625 -6.453125 L 1.90625 -3.234375 L 5.0625 0 Z M 4.328125 0 "/></g></g></g><g fill="#373643" fill-opacity="1"><g transform="translate(214.888816, 138.446446)"><g><path d="M 6.78125 -3.65625 C 6.78125 -3.375 6.769531 -3.160156 6.75 -3.015625 L 1.1875 -3.015625 C 1.207031 -2.441406 1.332031 -1.957031 1.5625 -1.5625 C 1.800781 -1.164062 2.113281 -0.867188 2.5 -0.671875 C 2.894531 -0.472656 3.320312 -0.375 3.78125 -0.375 C 4.40625 -0.375 4.929688 -0.53125 5.359375 -0.84375 C 5.796875 -1.15625 6.066406 -1.578125 6.171875 -2.109375 L 6.734375 -2.109375 C 6.609375 -1.453125 6.28125 -0.921875 5.75 -0.515625 C 5.226562 -0.109375 4.570312 0.09375 3.78125 0.09375 C 3.175781 0.09375 2.632812 -0.0390625 2.15625 -0.3125 C 1.6875 -0.582031 1.316406 -0.96875 1.046875 -1.46875 C 0.773438 -1.96875 0.640625 -2.554688 0.640625 -3.234375 C 0.640625 -3.898438 0.769531 -4.484375 1.03125 -4.984375 C 1.300781 -5.484375 1.671875 -5.863281 2.140625 -6.125 C 2.617188 -6.394531 3.164062 -6.53125 3.78125 -6.53125 C 4.394531 -6.53125 4.925781 -6.394531 5.375 -6.125 C 5.832031 -5.863281 6.179688 -5.515625 6.421875 -5.078125 C 6.660156 -4.640625 6.78125 -4.164062 6.78125 -3.65625 Z M 6.25 -3.453125 C 6.269531 -4.023438 6.164062 -4.507812 5.9375 -4.90625 C 5.71875 -5.300781 5.410156 -5.59375 5.015625 -5.78125 C 4.628906 -5.976562 4.210938 -6.078125 3.765625 -6.078125 C 3.316406 -6.078125 2.898438 -5.976562 2.515625 -5.78125 C 2.128906 -5.59375 1.816406 -5.300781 1.578125 -4.90625 C 1.335938 -4.507812 1.207031 -4.023438 1.1875 -3.453125 Z M 6.25 -3.453125 "/></g></g></g><g fill="#373643" fill-opacity="1"><g transform="translate(221.856711, 138.446446)"><g><path d="M 1.765625 -5.984375 L 1.765625 -1.71875 C 1.765625 -1.25 1.851562 -0.921875 2.03125 -0.734375 C 2.207031 -0.554688 2.515625 -0.46875 2.953125 -0.46875 L 3.6875 -0.46875 L 3.6875 0 L 2.875 0 C 2.3125 0 1.894531 -0.128906 1.625 -0.390625 C 1.363281 -0.660156 1.234375 -1.101562 1.234375 -1.71875 L 1.234375 -5.984375 L 0.265625 -5.984375 L 0.265625 -6.453125 L 1.234375 -6.453125 L 1.234375 -8.09375 L 1.765625 -8.09375 L 1.765625 -6.453125 L 3.6875 -6.453125 L 3.6875 -5.984375 Z M 1.765625 -5.984375 "/></g></g></g><g fill="#373643" fill-opacity="1"><g transform="translate(225.52444, 138.446446)"><g><path d="M 1.25 -7.890625 C 1.125 -7.890625 1.015625 -7.929688 0.921875 -8.015625 C 0.835938 -8.097656 0.796875 -8.207031 0.796875 -8.34375 C 0.796875 -8.476562 0.835938 -8.585938 0.921875 -8.671875 C 1.015625 -8.765625 1.125 -8.8125 1.25 -8.8125 C 1.375 -8.8125 1.476562 -8.765625 1.5625 -8.671875 C 1.65625 -8.585938 1.703125 -8.476562 1.703125 -8.34375 C 1.703125 -8.207031 1.65625 -8.097656 1.5625 -8.015625 C 1.476562 -7.929688 1.375 -7.890625 1.25 -7.890625 Z M 1.515625 -6.453125 L 1.515625 0 L 0.96875 0 L 0.96875 -6.453125 Z M 1.515625 -6.453125 "/></g></g></g><g fill="#373643" fill-opacity="1"><g transform="translate(227.565837, 138.446446)"><g><path d="M 3.890625 -6.578125 C 4.648438 -6.578125 5.269531 -6.34375 5.75 -5.875 C 6.238281 -5.40625 6.484375 -4.707031 6.484375 -3.78125 L 6.484375 0 L 5.96875 0 L 5.96875 -3.734375 C 5.96875 -4.503906 5.769531 -5.09375 5.375 -5.5 C 4.988281 -5.90625 4.460938 -6.109375 3.796875 -6.109375 C 3.097656 -6.109375 2.539062 -5.882812 2.125 -5.4375 C 1.71875 -5 1.515625 -4.347656 1.515625 -3.484375 L 1.515625 0 L 0.96875 0 L 0.96875 -6.453125 L 1.515625 -6.453125 L 1.515625 -5.078125 C 1.691406 -5.566406 1.988281 -5.9375 2.40625 -6.1875 C 2.832031 -6.445312 3.328125 -6.578125 3.890625 -6.578125 Z M 3.890625 -6.578125 "/></g></g></g><g fill="#373643" fill-opacity="1"><g transform="translate(234.509997, 138.446446)"><g><path d="M 3.75 -6.53125 C 4.4375 -6.53125 5.015625 -6.363281 5.484375 -6.03125 C 5.960938 -5.707031 6.296875 -5.289062 6.484375 -4.78125 L 6.484375 -6.453125 L 7.015625 -6.453125 L 7.015625 0.203125 C 7.015625 0.796875 6.882812 1.316406 6.625 1.765625 C 6.363281 2.210938 6.007812 2.554688 5.5625 2.796875 C 5.125 3.035156 4.628906 3.15625 4.078125 3.15625 C 3.273438 3.15625 2.609375 2.960938 2.078125 2.578125 C 1.546875 2.191406 1.195312 1.671875 1.03125 1.015625 L 1.5625 1.015625 C 1.726562 1.523438 2.023438 1.929688 2.453125 2.234375 C 2.890625 2.546875 3.429688 2.703125 4.078125 2.703125 C 4.535156 2.703125 4.945312 2.597656 5.3125 2.390625 C 5.675781 2.191406 5.960938 1.90625 6.171875 1.53125 C 6.378906 1.15625 6.484375 0.710938 6.484375 0.203125 L 6.484375 -1.6875 C 6.296875 -1.175781 5.960938 -0.75 5.484375 -0.40625 C 5.003906 -0.0703125 4.425781 0.09375 3.75 0.09375 C 3.144531 0.09375 2.609375 -0.0390625 2.140625 -0.3125 C 1.671875 -0.582031 1.300781 -0.96875 1.03125 -1.46875 C 0.769531 -1.976562 0.640625 -2.566406 0.640625 -3.234375 C 0.640625 -3.898438 0.769531 -4.476562 1.03125 -4.96875 C 1.300781 -5.46875 1.671875 -5.851562 2.140625 -6.125 C 2.609375 -6.394531 3.144531 -6.53125 3.75 -6.53125 Z M 6.484375 -3.234375 C 6.484375 -3.796875 6.363281 -4.289062 6.125 -4.71875 C 5.894531 -5.15625 5.578125 -5.488281 5.171875 -5.71875 C 4.773438 -5.945312 4.328125 -6.0625 3.828125 -6.0625 C 3.304688 -6.0625 2.847656 -5.945312 2.453125 -5.71875 C 2.054688 -5.5 1.742188 -5.175781 1.515625 -4.75 C 1.296875 -4.320312 1.1875 -3.816406 1.1875 -3.234375 C 1.1875 -2.640625 1.296875 -2.128906 1.515625 -1.703125 C 1.742188 -1.273438 2.054688 -0.945312 2.453125 -0.71875 C 2.847656 -0.488281 3.304688 -0.375 3.828125 -0.375 C 4.328125 -0.375 4.78125 -0.488281 5.1875 -0.71875 C 5.59375 -0.957031 5.910156 -1.289062 6.140625 -1.71875 C 6.367188 -2.15625 6.484375 -2.660156 6.484375 -3.234375 Z M 6.484375 -3.234375 "/></g></g></g><g fill="#373643" fill-opacity="1"><g transform="translate(242.050134, 138.446446)"><g/></g></g><g clip-path="url(#deda7d3fd5)"><g clip-path="url(#c981432efc)"><g clip-path="url(#d60c1f83be)"><path fill="#18cb96" d="M 283.316406 72.5 L 265.292969 71.695312 C 261.8125 71.542969 261.222656 78.324219 265.347656 78.4375 L 276.5625 78.738281 L 275.707031 90.023438 C 275.445312 93.460938 282.148438 93.824219 282.339844 90.332031 Z M 283.316406 72.5 " fill-opacity="1" fill-rule="nonzero"/></g></g></g></svg>