<svg xmlns="http://www.w3.org/2000/svg" xmlns:xlink="http://www.w3.org/1999/xlink" width="500" zoomAndPan="magnify" viewBox="0 0 375 374.999991" height="500" preserveAspectRatio="xMidYMid meet" version="1.0"><defs><g/><clipPath id="fa60172d79"><path d="M 267 165 L 289 165 L 289 187 L 267 187 Z M 267 165 " clip-rule="nonzero"/></clipPath><clipPath id="b080843bce"><path d="M 263.527344 168.453125 L 278.398438 154.707031 L 298.761719 176.738281 L 283.890625 190.484375 Z M 263.527344 168.453125 " clip-rule="nonzero"/></clipPath><clipPath id="7591650ba9"><path d="M 263.527344 168.453125 L 278.398438 154.707031 L 298.761719 176.738281 L 283.890625 190.484375 Z M 263.527344 168.453125 " clip-rule="nonzero"/></clipPath><clipPath id="a382666591"><path d="M 278 155 L 300 155 L 300 177 L 278 177 Z M 278 155 " clip-rule="nonzero"/></clipPath><clipPath id="7ddebb59c6"><path d="M 274.199219 158.589844 L 289.070312 144.84375 L 309.429688 166.875 L 294.558594 180.621094 Z M 274.199219 158.589844 " clip-rule="nonzero"/></clipPath><clipPath id="afc8ac061e"><path d="M 274.199219 158.589844 L 289.070312 144.84375 L 309.429688 166.875 L 294.558594 180.621094 Z M 274.199219 158.589844 " clip-rule="nonzero"/></clipPath></defs><g clip-path="url(#fa60172d79)"><g clip-path="url(#b080843bce)"><g clip-path="url(#7591650ba9)"><path fill="#18cb96" d="M 288.734375 165.996094 L 270.710938 165.191406 C 267.226562 165.039062 266.640625 171.820312 270.765625 171.933594 L 281.980469 172.234375 L 281.125 183.519531 C 280.863281 186.957031 287.566406 187.320312 287.757812 183.828125 Z M 288.734375 165.996094 " fill-opacity="1" fill-rule="nonzero"/></g></g></g><g clip-path="url(#a382666591)"><g clip-path="url(#7ddebb59c6)"><g clip-path="url(#afc8ac061e)"><path fill="#18cb96" d="M 299.40625 156.132812 L 281.378906 155.332031 C 277.898438 155.175781 277.3125 161.957031 281.4375 162.070312 L 292.652344 162.375 L 291.792969 173.660156 C 291.535156 177.09375 298.234375 177.457031 298.425781 173.964844 Z M 299.40625 156.132812 " fill-opacity="1" fill-rule="nonzero"/></g></g></g><g fill="#ffffff" fill-opacity="1"><g transform="translate(41.953595, 196.927019)"><g><path d="M 20.921875 -22.90625 C 21.703125 -22.90625 22.320312 -22.6875 22.78125 -22.25 C 23.25 -21.8125 23.484375 -21.25 23.484375 -20.5625 L 23.484375 -2.34375 C 23.484375 -1.65625 23.25 -1.09375 22.78125 -0.65625 C 22.320312 -0.21875 21.703125 0 20.921875 0 C 20.171875 0 19.585938 -0.171875 19.171875 -0.515625 C 18.753906 -0.859375 18.5 -1.316406 18.40625 -1.890625 C 17.382812 -1.078125 16.242188 -0.484375 14.984375 -0.109375 C 13.722656 0.265625 12.523438 0.453125 11.390625 0.453125 C 9.222656 0.453125 7.351562 -0.0390625 5.78125 -1.03125 C 4.207031 -2.019531 3 -3.414062 2.15625 -5.21875 C 1.320312 -7.019531 0.90625 -9.117188 0.90625 -11.515625 C 0.90625 -13.859375 1.367188 -15.914062 2.296875 -17.6875 C 3.222656 -19.457031 4.519531 -20.84375 6.1875 -21.84375 C 7.851562 -22.851562 9.78125 -23.359375 11.96875 -23.359375 C 12.925781 -23.359375 13.988281 -23.175781 15.15625 -22.8125 C 16.332031 -22.457031 17.414062 -21.890625 18.40625 -21.109375 C 18.519531 -21.648438 18.785156 -22.082031 19.203125 -22.40625 C 19.628906 -22.738281 20.203125 -22.90625 20.921875 -22.90625 Z M 11.921875 -4.09375 C 13.242188 -4.09375 14.519531 -4.382812 15.75 -4.96875 C 16.976562 -5.550781 17.847656 -6.414062 18.359375 -7.5625 L 18.359375 -15.34375 C 17.785156 -16.457031 16.925781 -17.3125 15.78125 -17.90625 C 14.644531 -18.507812 13.492188 -18.8125 12.328125 -18.8125 C 10.441406 -18.8125 8.921875 -18.117188 7.765625 -16.734375 C 6.609375 -15.359375 6.03125 -13.601562 6.03125 -11.46875 C 6.03125 -9.25 6.566406 -7.460938 7.640625 -6.109375 C 8.722656 -4.765625 10.148438 -4.09375 11.921875 -4.09375 Z M 11.921875 -4.09375 "/></g></g></g><g fill="#ffffff" fill-opacity="1"><g transform="translate(67.963565, 196.927019)"><g><path d="M 20.96875 -29.109375 C 21.601562 -29.109375 22.195312 -28.925781 22.75 -28.5625 C 23.300781 -28.207031 23.578125 -27.640625 23.578125 -26.859375 L 23.578125 -2.296875 C 23.578125 -0.765625 22.707031 0 20.96875 0 C 19.40625 0 18.597656 -0.71875 18.546875 -2.15625 C 17.578125 -1.320312 16.492188 -0.6875 15.296875 -0.25 C 14.097656 0.1875 12.957031 0.40625 11.875 0.40625 C 9.625 0.40625 7.679688 -0.101562 6.046875 -1.125 C 4.410156 -2.144531 3.15625 -3.566406 2.28125 -5.390625 C 1.414062 -7.222656 0.984375 -9.328125 0.984375 -11.703125 C 0.984375 -13.984375 1.445312 -15.992188 2.375 -17.734375 C 3.3125 -19.472656 4.613281 -20.84375 6.28125 -21.84375 C 7.945312 -22.851562 9.875 -23.359375 12.0625 -23.359375 C 13.050781 -23.359375 14.113281 -23.160156 15.25 -22.765625 C 16.394531 -22.378906 17.460938 -21.796875 18.453125 -21.015625 L 18.453125 -26.859375 C 18.453125 -27.640625 18.710938 -28.207031 19.234375 -28.5625 C 19.765625 -28.925781 20.34375 -29.109375 20.96875 -29.109375 Z M 12.015625 -4.140625 C 13.515625 -4.140625 14.867188 -4.476562 16.078125 -5.15625 C 17.296875 -5.832031 18.117188 -6.8125 18.546875 -8.09375 L 18.5 -15.03125 C 17.988281 -16.257812 17.15625 -17.195312 16 -17.84375 C 14.84375 -18.488281 13.648438 -18.8125 12.421875 -18.8125 C 10.523438 -18.8125 9 -18.128906 7.84375 -16.765625 C 6.695312 -15.398438 6.125 -13.695312 6.125 -11.65625 C 6.125 -9.46875 6.660156 -7.664062 7.734375 -6.25 C 8.816406 -4.84375 10.242188 -4.140625 12.015625 -4.140625 Z M 12.015625 -4.140625 "/></g></g></g><g fill="#ffffff" fill-opacity="1"><g transform="translate(94.018534, 196.927019)"><g><path d="M 20.921875 -22.90625 C 21.703125 -22.90625 22.320312 -22.6875 22.78125 -22.25 C 23.25 -21.8125 23.484375 -21.25 23.484375 -20.5625 L 23.484375 -2.34375 C 23.484375 -1.65625 23.25 -1.09375 22.78125 -0.65625 C 22.320312 -0.21875 21.703125 0 20.921875 0 C 20.171875 0 19.585938 -0.171875 19.171875 -0.515625 C 18.753906 -0.859375 18.5 -1.316406 18.40625 -1.890625 C 17.382812 -1.078125 16.242188 -0.484375 14.984375 -0.109375 C 13.722656 0.265625 12.523438 0.453125 11.390625 0.453125 C 9.222656 0.453125 7.351562 -0.0390625 5.78125 -1.03125 C 4.207031 -2.019531 3 -3.414062 2.15625 -5.21875 C 1.320312 -7.019531 0.90625 -9.117188 0.90625 -11.515625 C 0.90625 -13.859375 1.367188 -15.914062 2.296875 -17.6875 C 3.222656 -19.457031 4.519531 -20.84375 6.1875 -21.84375 C 7.851562 -22.851562 9.78125 -23.359375 11.96875 -23.359375 C 12.925781 -23.359375 13.988281 -23.175781 15.15625 -22.8125 C 16.332031 -22.457031 17.414062 -21.890625 18.40625 -21.109375 C 18.519531 -21.648438 18.785156 -22.082031 19.203125 -22.40625 C 19.628906 -22.738281 20.203125 -22.90625 20.921875 -22.90625 Z M 11.921875 -4.09375 C 13.242188 -4.09375 14.519531 -4.382812 15.75 -4.96875 C 16.976562 -5.550781 17.847656 -6.414062 18.359375 -7.5625 L 18.359375 -15.34375 C 17.785156 -16.457031 16.925781 -17.3125 15.78125 -17.90625 C 14.644531 -18.507812 13.492188 -18.8125 12.328125 -18.8125 C 10.441406 -18.8125 8.921875 -18.117188 7.765625 -16.734375 C 6.609375 -15.359375 6.03125 -13.601562 6.03125 -11.46875 C 6.03125 -9.25 6.566406 -7.460938 7.640625 -6.109375 C 8.722656 -4.765625 10.148438 -4.09375 11.921875 -4.09375 Z M 11.921875 -4.09375 "/></g></g></g><g fill="#ffffff" fill-opacity="1"><g transform="translate(120.028503, 196.927019)"><g><path d="M 13.765625 -23.359375 C 15.984375 -23.359375 17.925781 -22.867188 19.59375 -21.890625 C 21.257812 -20.921875 22.550781 -19.554688 23.46875 -17.796875 C 24.382812 -16.046875 24.84375 -14.015625 24.84375 -11.703125 C 24.84375 -9.296875 24.382812 -7.175781 23.46875 -5.34375 C 22.550781 -3.519531 21.28125 -2.097656 19.65625 -1.078125 C 18.039062 -0.0546875 16.140625 0.453125 13.953125 0.453125 C 12.929688 0.453125 11.816406 0.273438 10.609375 -0.078125 C 9.410156 -0.441406 8.316406 -0.957031 7.328125 -1.625 L 7.328125 5.265625 C 7.328125 6.015625 7.066406 6.582031 6.546875 6.96875 C 6.023438 7.363281 5.445312 7.5625 4.8125 7.5625 C 4.15625 7.5625 3.5625 7.363281 3.03125 6.96875 C 2.507812 6.582031 2.25 6.015625 2.25 5.265625 L 2.25 -20.609375 C 2.25 -21.328125 2.476562 -21.890625 2.9375 -22.296875 C 3.40625 -22.703125 4.046875 -22.90625 4.859375 -22.90625 C 6.210938 -22.90625 7.007812 -22.378906 7.25 -21.328125 C 8.289062 -22.078125 9.378906 -22.601562 10.515625 -22.90625 C 11.660156 -23.207031 12.742188 -23.359375 13.765625 -23.359375 Z M 13.8125 -4.09375 C 15.582031 -4.09375 17.003906 -4.789062 18.078125 -6.1875 C 19.160156 -7.582031 19.703125 -9.40625 19.703125 -11.65625 C 19.703125 -13.78125 19.125 -15.503906 17.96875 -16.828125 C 16.820312 -18.148438 15.300781 -18.8125 13.40625 -18.8125 C 12.207031 -18.8125 11.035156 -18.503906 9.890625 -17.890625 C 8.753906 -17.273438 7.898438 -16.394531 7.328125 -15.25 L 7.328125 -7.78125 C 7.816406 -6.613281 8.675781 -5.707031 9.90625 -5.0625 C 11.132812 -4.414062 12.4375 -4.09375 13.8125 -4.09375 Z M 13.8125 -4.09375 "/></g></g></g><g fill="#ffffff" fill-opacity="1"><g transform="translate(146.218478, 196.927019)"><g><path d="M 12.375 -4.28125 C 13.0625 -4.664062 13.679688 -4.796875 14.234375 -4.671875 C 14.796875 -4.554688 15.25 -4.296875 15.59375 -3.890625 C 15.9375 -3.484375 16.109375 -3.007812 16.109375 -2.46875 C 16.109375 -2.082031 15.988281 -1.691406 15.75 -1.296875 C 15.507812 -0.910156 15.132812 -0.582031 14.625 -0.3125 C 13.96875 0.0390625 13.367188 0.253906 12.828125 0.328125 C 12.285156 0.410156 11.65625 0.453125 10.9375 0.453125 C 8.988281 0.453125 7.488281 0.046875 6.4375 -0.765625 C 5.382812 -1.578125 4.660156 -2.625 4.265625 -3.90625 C 3.878906 -5.195312 3.6875 -6.566406 3.6875 -8.015625 L 3.6875 -18.625 L 1.984375 -18.625 C 1.140625 -18.625 0.515625 -18.847656 0.109375 -19.296875 C -0.296875 -19.753906 -0.5 -20.238281 -0.5 -20.75 C -0.5 -21.289062 -0.289062 -21.785156 0.125 -22.234375 C 0.550781 -22.679688 1.171875 -22.90625 1.984375 -22.90625 L 3.6875 -22.90625 L 3.6875 -26.78125 C 3.6875 -27.550781 3.941406 -28.128906 4.453125 -28.515625 C 4.960938 -28.910156 5.546875 -29.109375 6.203125 -29.109375 C 6.835938 -29.109375 7.425781 -28.910156 7.96875 -28.515625 C 8.507812 -28.128906 8.78125 -27.550781 8.78125 -26.78125 L 8.78125 -22.90625 L 12.28125 -22.90625 C 13.0625 -22.90625 13.660156 -22.679688 14.078125 -22.234375 C 14.503906 -21.785156 14.71875 -21.289062 14.71875 -20.75 C 14.71875 -20.207031 14.503906 -19.71875 14.078125 -19.28125 C 13.660156 -18.84375 13.0625 -18.625 12.28125 -18.625 L 8.78125 -18.625 L 8.78125 -8.015625 C 8.78125 -7.347656 8.820312 -6.707031 8.90625 -6.09375 C 9 -5.476562 9.203125 -4.96875 9.515625 -4.5625 C 9.828125 -4.15625 10.300781 -3.953125 10.9375 -3.953125 C 11.175781 -3.953125 11.4375 -3.988281 11.71875 -4.0625 C 12.007812 -4.144531 12.226562 -4.21875 12.375 -4.28125 Z M 12.375 -4.28125 "/></g></g></g><g fill="#ffffff" fill-opacity="1"><g transform="translate(161.833459, 196.927019)"><g><path d="M 6.75 -26.28125 C 6.75 -25.53125 6.46875 -24.96875 5.90625 -24.59375 C 5.351562 -24.21875 4.765625 -24.03125 4.140625 -24.03125 C 3.484375 -24.03125 2.882812 -24.21875 2.34375 -24.59375 C 1.800781 -24.96875 1.53125 -25.53125 1.53125 -26.28125 L 1.53125 -26.859375 C 1.53125 -27.640625 1.800781 -28.207031 2.34375 -28.5625 C 2.882812 -28.925781 3.484375 -29.109375 4.140625 -29.109375 C 4.765625 -29.109375 5.351562 -28.925781 5.90625 -28.5625 C 6.46875 -28.207031 6.75 -27.640625 6.75 -26.859375 Z M 1.578125 -20.703125 C 1.578125 -21.421875 1.851562 -21.96875 2.40625 -22.34375 C 2.957031 -22.71875 3.535156 -22.90625 4.140625 -22.90625 C 4.765625 -22.90625 5.347656 -22.71875 5.890625 -22.34375 C 6.429688 -21.96875 6.703125 -21.4375 6.703125 -20.75 L 6.703125 -2.203125 C 6.703125 -1.453125 6.429688 -0.894531 5.890625 -0.53125 C 5.347656 -0.175781 4.765625 0 4.140625 0 C 3.535156 0 2.957031 -0.175781 2.40625 -0.53125 C 1.851562 -0.894531 1.578125 -1.453125 1.578125 -2.203125 Z M 1.578125 -20.703125 "/></g></g></g><g fill="#ffffff" fill-opacity="1"><g transform="translate(169.213456, 196.927019)"><g><path d="M 32.9375 -23.359375 C 35.039062 -23.359375 36.828125 -22.898438 38.296875 -21.984375 C 39.765625 -21.066406 40.890625 -19.789062 41.671875 -18.15625 C 42.453125 -16.519531 42.84375 -14.625 42.84375 -12.46875 L 42.84375 -2.34375 C 42.84375 -1.65625 42.625 -1.09375 42.1875 -0.65625 C 41.75 -0.21875 41.113281 0 40.28125 0 C 39.53125 0 38.910156 -0.21875 38.421875 -0.65625 C 37.941406 -1.09375 37.703125 -1.65625 37.703125 -2.34375 L 37.703125 -12.5625 C 37.703125 -14.414062 37.257812 -15.925781 36.375 -17.09375 C 35.5 -18.269531 34.113281 -18.859375 32.21875 -18.859375 C 31.257812 -18.859375 30.242188 -18.554688 29.171875 -17.953125 C 28.109375 -17.359375 27.207031 -16.488281 26.46875 -15.34375 C 25.738281 -14.207031 25.375 -12.8125 25.375 -11.15625 L 25.375 -2.34375 C 25.375 -1.65625 25.15625 -1.09375 24.71875 -0.65625 C 24.289062 -0.21875 23.671875 0 22.859375 0 C 22.109375 0 21.484375 -0.21875 20.984375 -0.65625 C 20.492188 -1.09375 20.25 -1.65625 20.25 -2.34375 L 20.25 -12.5625 C 20.25 -14.414062 19.804688 -15.925781 18.921875 -17.09375 C 18.035156 -18.269531 16.648438 -18.859375 14.765625 -18.859375 C 14.191406 -18.859375 13.53125 -18.695312 12.78125 -18.375 C 12.03125 -18.0625 11.296875 -17.585938 10.578125 -16.953125 C 9.859375 -16.328125 9.265625 -15.535156 8.796875 -14.578125 C 8.328125 -13.617188 8.09375 -12.476562 8.09375 -11.15625 L 8.09375 -2.25 C 8.09375 -1.5 7.820312 -0.9375 7.28125 -0.5625 C 6.75 -0.1875 6.164062 0 5.53125 0 C 4.875 0 4.289062 -0.1875 3.78125 -0.5625 C 3.269531 -0.9375 3.015625 -1.5 3.015625 -2.25 L 3.015625 -20.609375 C 3.015625 -21.242188 3.257812 -21.785156 3.75 -22.234375 C 4.25 -22.679688 4.84375 -22.90625 5.53125 -22.90625 C 6.3125 -22.90625 6.929688 -22.679688 7.390625 -22.234375 C 7.859375 -21.785156 8.09375 -21.242188 8.09375 -20.609375 L 8.09375 -20.46875 C 9.320312 -21.644531 10.582031 -22.421875 11.875 -22.796875 C 13.164062 -23.171875 14.382812 -23.359375 15.53125 -23.359375 C 17.414062 -23.359375 19.046875 -22.972656 20.421875 -22.203125 C 21.804688 -21.441406 22.90625 -20.398438 23.71875 -19.078125 C 24.644531 -20.222656 25.644531 -21.101562 26.71875 -21.71875 C 27.800781 -22.332031 28.882812 -22.757812 29.96875 -23 C 31.050781 -23.238281 32.039062 -23.359375 32.9375 -23.359375 Z M 32.9375 -23.359375 "/></g></g></g><g fill="#ffffff" fill-opacity="1"><g transform="translate(215.56341, 196.927019)"><g><path d="M 6.75 -26.28125 C 6.75 -25.53125 6.46875 -24.96875 5.90625 -24.59375 C 5.351562 -24.21875 4.765625 -24.03125 4.140625 -24.03125 C 3.484375 -24.03125 2.882812 -24.21875 2.34375 -24.59375 C 1.800781 -24.96875 1.53125 -25.53125 1.53125 -26.28125 L 1.53125 -26.859375 C 1.53125 -27.640625 1.800781 -28.207031 2.34375 -28.5625 C 2.882812 -28.925781 3.484375 -29.109375 4.140625 -29.109375 C 4.765625 -29.109375 5.351562 -28.925781 5.90625 -28.5625 C 6.46875 -28.207031 6.75 -27.640625 6.75 -26.859375 Z M 1.578125 -20.703125 C 1.578125 -21.421875 1.851562 -21.96875 2.40625 -22.34375 C 2.957031 -22.71875 3.535156 -22.90625 4.140625 -22.90625 C 4.765625 -22.90625 5.347656 -22.71875 5.890625 -22.34375 C 6.429688 -21.96875 6.703125 -21.4375 6.703125 -20.75 L 6.703125 -2.203125 C 6.703125 -1.453125 6.429688 -0.894531 5.890625 -0.53125 C 5.347656 -0.175781 4.765625 0 4.140625 0 C 3.535156 0 2.957031 -0.175781 2.40625 -0.53125 C 1.851562 -0.894531 1.578125 -1.453125 1.578125 -2.203125 Z M 1.578125 -20.703125 "/></g></g></g><g fill="#ffffff" fill-opacity="1"><g transform="translate(222.943406, 196.927019)"><g><path d="M 7.78125 -4.453125 L 19.171875 -4.5 C 20.035156 -4.5 20.6875 -4.257812 21.125 -3.78125 C 21.5625 -3.300781 21.78125 -2.773438 21.78125 -2.203125 C 21.78125 -1.628906 21.5625 -1.117188 21.125 -0.671875 C 20.6875 -0.222656 20.035156 0 19.171875 0 L 2.875 0 C 2.007812 0 1.34375 -0.222656 0.875 -0.671875 C 0.414062 -1.117188 0.1875 -1.628906 0.1875 -2.203125 C 0.1875 -2.835938 0.46875 -3.4375 1.03125 -4 L 13.859375 -18.359375 L 3.375 -18.3125 C 2.5625 -18.3125 1.9375 -18.539062 1.5 -19 C 1.070312 -19.46875 0.859375 -19.988281 0.859375 -20.5625 C 0.859375 -21.164062 1.070312 -21.707031 1.5 -22.1875 C 1.9375 -22.664062 2.5625 -22.90625 3.375 -22.90625 L 18.859375 -22.90625 C 19.660156 -22.90625 20.3125 -22.65625 20.8125 -22.15625 C 21.3125 -21.664062 21.5625 -21.117188 21.5625 -20.515625 C 21.5625 -19.972656 21.289062 -19.40625 20.75 -18.8125 Z M 7.78125 -4.453125 "/></g></g></g><g fill="#ffffff" fill-opacity="1"><g transform="translate(245.038376, 196.927019)"><g><path d="M 12.875 -4 C 13.738281 -4 14.585938 -4.117188 15.421875 -4.359375 C 16.265625 -4.597656 17.050781 -5.003906 17.78125 -5.578125 C 18.46875 -6.210938 19.140625 -6.503906 19.796875 -6.453125 C 20.460938 -6.410156 21.007812 -6.171875 21.4375 -5.734375 C 21.875 -5.296875 22.09375 -4.753906 22.09375 -4.109375 C 22.09375 -3.472656 21.78125 -2.851562 21.15625 -2.25 C 20.101562 -1.226562 18.851562 -0.515625 17.40625 -0.109375 C 15.96875 0.296875 14.5 0.484375 13 0.453125 C 10.664062 0.453125 8.601562 -0.0234375 6.8125 -0.984375 C 5.03125 -1.953125 3.632812 -3.289062 2.625 -5 C 1.625 -6.707031 1.125 -8.6875 1.125 -10.9375 C 1.125 -13.394531 1.601562 -15.550781 2.5625 -17.40625 C 3.519531 -19.269531 4.875 -20.726562 6.625 -21.78125 C 8.382812 -22.832031 10.46875 -23.359375 12.875 -23.359375 C 15.269531 -23.359375 17.304688 -22.867188 18.984375 -21.890625 C 20.671875 -20.921875 21.957031 -19.554688 22.84375 -17.796875 C 23.726562 -16.046875 24.171875 -14 24.171875 -11.65625 C 24.171875 -10.90625 24.019531 -10.265625 23.71875 -9.734375 C 23.414062 -9.210938 22.617188 -8.953125 21.328125 -8.953125 L 6.34375 -8.953125 C 6.757812 -7.484375 7.550781 -6.289062 8.71875 -5.375 C 9.894531 -4.457031 11.28125 -4 12.875 -4 Z M 12.921875 -18.90625 C 11.179688 -18.90625 9.722656 -18.351562 8.546875 -17.25 C 7.378906 -16.15625 6.628906 -14.722656 6.296875 -12.953125 L 19.390625 -12.953125 C 19.242188 -14.722656 18.660156 -16.15625 17.640625 -17.25 C 16.617188 -18.351562 15.046875 -18.90625 12.921875 -18.90625 Z M 12.921875 -18.90625 "/></g></g></g><g fill="#ffffff" fill-opacity="1"><g transform="translate(46.360398, 219.638774)"><g><path d="M 0.6875 -3.5 C 0.6875 -4.226562 0.832031 -4.863281 1.125 -5.40625 C 1.414062 -5.945312 1.816406 -6.359375 2.328125 -6.640625 C 2.835938 -6.929688 3.421875 -7.078125 4.078125 -7.078125 C 4.953125 -7.078125 5.671875 -6.859375 6.234375 -6.421875 C 6.796875 -5.984375 7.144531 -5.394531 7.28125 -4.65625 L 6.6875 -4.65625 C 6.570312 -5.257812 6.28125 -5.734375 5.8125 -6.078125 C 5.34375 -6.421875 4.765625 -6.59375 4.078125 -6.59375 C 3.566406 -6.59375 3.097656 -6.476562 2.671875 -6.25 C 2.253906 -6.019531 1.914062 -5.671875 1.65625 -5.203125 C 1.40625 -4.734375 1.28125 -4.164062 1.28125 -3.5 C 1.28125 -2.820312 1.40625 -2.25 1.65625 -1.78125 C 1.914062 -1.320312 2.253906 -0.976562 2.671875 -0.75 C 3.097656 -0.519531 3.566406 -0.40625 4.078125 -0.40625 C 4.765625 -0.40625 5.34375 -0.570312 5.8125 -0.90625 C 6.28125 -1.25 6.570312 -1.722656 6.6875 -2.328125 L 7.28125 -2.328125 C 7.144531 -1.597656 6.789062 -1.007812 6.21875 -0.5625 C 5.65625 -0.113281 4.941406 0.109375 4.078125 0.109375 C 3.421875 0.109375 2.835938 -0.0351562 2.328125 -0.328125 C 1.816406 -0.617188 1.414062 -1.035156 1.125 -1.578125 C 0.832031 -2.128906 0.6875 -2.769531 0.6875 -3.5 Z M 0.6875 -3.5 "/></g></g></g><g fill="#ffffff" fill-opacity="1"><g transform="translate(53.861438, 219.638774)"><g><path d="M 4.140625 0.109375 C 3.484375 0.109375 2.890625 -0.0351562 2.359375 -0.328125 C 1.835938 -0.617188 1.425781 -1.035156 1.125 -1.578125 C 0.832031 -2.128906 0.6875 -2.769531 0.6875 -3.5 C 0.6875 -4.21875 0.835938 -4.847656 1.140625 -5.390625 C 1.441406 -5.941406 1.859375 -6.359375 2.390625 -6.640625 C 2.921875 -6.929688 3.507812 -7.078125 4.15625 -7.078125 C 4.8125 -7.078125 5.398438 -6.929688 5.921875 -6.640625 C 6.441406 -6.359375 6.847656 -5.945312 7.140625 -5.40625 C 7.441406 -4.863281 7.59375 -4.226562 7.59375 -3.5 C 7.59375 -2.769531 7.441406 -2.128906 7.140625 -1.578125 C 6.835938 -1.035156 6.421875 -0.617188 5.890625 -0.328125 C 5.367188 -0.0351562 4.785156 0.109375 4.140625 0.109375 Z M 4.140625 -0.40625 C 4.640625 -0.40625 5.109375 -0.519531 5.546875 -0.75 C 5.992188 -0.976562 6.347656 -1.320312 6.609375 -1.78125 C 6.878906 -2.25 7.015625 -2.820312 7.015625 -3.5 C 7.015625 -4.164062 6.878906 -4.726562 6.609375 -5.1875 C 6.347656 -5.65625 6 -6.003906 5.5625 -6.234375 C 5.125 -6.460938 4.648438 -6.578125 4.140625 -6.578125 C 3.640625 -6.578125 3.171875 -6.460938 2.734375 -6.234375 C 2.296875 -6.003906 1.941406 -5.65625 1.671875 -5.1875 C 1.410156 -4.726562 1.28125 -4.164062 1.28125 -3.5 C 1.28125 -2.820312 1.410156 -2.25 1.671875 -1.78125 C 1.941406 -1.320312 2.289062 -0.976562 2.71875 -0.75 C 3.15625 -0.519531 3.628906 -0.40625 4.140625 -0.40625 Z M 4.140625 -0.40625 "/></g></g></g><g fill="#ffffff" fill-opacity="1"><g transform="translate(61.671297, 219.638774)"><g><path d="M 9.328125 -7.125 C 10.117188 -7.125 10.765625 -6.867188 11.265625 -6.359375 C 11.773438 -5.847656 12.03125 -5.09375 12.03125 -4.09375 L 12.03125 0 L 11.46875 0 L 11.46875 -4.0625 C 11.46875 -4.882812 11.269531 -5.515625 10.875 -5.953125 C 10.476562 -6.398438 9.929688 -6.625 9.234375 -6.625 C 8.515625 -6.625 7.9375 -6.375 7.5 -5.875 C 7.0625 -5.382812 6.84375 -4.664062 6.84375 -3.71875 L 6.84375 0 L 6.265625 0 L 6.265625 -4.0625 C 6.265625 -4.882812 6.066406 -5.515625 5.671875 -5.953125 C 5.273438 -6.398438 4.726562 -6.625 4.03125 -6.625 C 3.3125 -6.625 2.734375 -6.375 2.296875 -5.875 C 1.859375 -5.382812 1.640625 -4.664062 1.640625 -3.71875 L 1.640625 0 L 1.0625 0 L 1.0625 -6.984375 L 1.640625 -6.984375 L 1.640625 -5.46875 C 1.835938 -6.019531 2.15625 -6.429688 2.59375 -6.703125 C 3.03125 -6.984375 3.539062 -7.125 4.125 -7.125 C 4.757812 -7.125 5.304688 -6.957031 5.765625 -6.625 C 6.222656 -6.300781 6.535156 -5.816406 6.703125 -5.171875 C 6.867188 -5.816406 7.1875 -6.300781 7.65625 -6.625 C 8.132812 -6.957031 8.691406 -7.125 9.328125 -7.125 Z M 9.328125 -7.125 "/></g></g></g><g fill="#ffffff" fill-opacity="1"><g transform="translate(74.216312, 219.638774)"><g><path d="M 1.640625 -5.15625 C 1.847656 -5.71875 2.207031 -6.175781 2.71875 -6.53125 C 3.238281 -6.894531 3.863281 -7.078125 4.59375 -7.078125 C 5.25 -7.078125 5.832031 -6.929688 6.34375 -6.640625 C 6.851562 -6.347656 7.25 -5.929688 7.53125 -5.390625 C 7.820312 -4.847656 7.96875 -4.21875 7.96875 -3.5 C 7.96875 -2.78125 7.820312 -2.144531 7.53125 -1.59375 C 7.25 -1.050781 6.851562 -0.628906 6.34375 -0.328125 C 5.832031 -0.0351562 5.25 0.109375 4.59375 0.109375 C 3.863281 0.109375 3.238281 -0.0703125 2.71875 -0.4375 C 2.195312 -0.800781 1.835938 -1.265625 1.640625 -1.828125 L 1.640625 0 L 1.0625 0 L 1.0625 -9.53125 L 1.640625 -9.53125 Z M 7.375 -3.5 C 7.375 -4.132812 7.253906 -4.679688 7.015625 -5.140625 C 6.773438 -5.609375 6.4375 -5.960938 6 -6.203125 C 5.570312 -6.453125 5.070312 -6.578125 4.5 -6.578125 C 3.957031 -6.578125 3.46875 -6.445312 3.03125 -6.1875 C 2.59375 -5.9375 2.25 -5.578125 2 -5.109375 C 1.757812 -4.648438 1.640625 -4.113281 1.640625 -3.5 C 1.640625 -2.882812 1.757812 -2.34375 2 -1.875 C 2.25 -1.40625 2.59375 -1.039062 3.03125 -0.78125 C 3.46875 -0.53125 3.957031 -0.40625 4.5 -0.40625 C 5.070312 -0.40625 5.570312 -0.53125 6 -0.78125 C 6.4375 -1.03125 6.773438 -1.382812 7.015625 -1.84375 C 7.253906 -2.3125 7.375 -2.863281 7.375 -3.5 Z M 7.375 -3.5 "/></g></g></g><g fill="#ffffff" fill-opacity="1"><g transform="translate(82.386454, 219.638774)"><g><path d="M 1.359375 -8.546875 C 1.210938 -8.546875 1.09375 -8.585938 1 -8.671875 C 0.90625 -8.765625 0.859375 -8.890625 0.859375 -9.046875 C 0.859375 -9.191406 0.90625 -9.3125 1 -9.40625 C 1.09375 -9.5 1.210938 -9.546875 1.359375 -9.546875 C 1.492188 -9.546875 1.609375 -9.5 1.703125 -9.40625 C 1.796875 -9.3125 1.84375 -9.191406 1.84375 -9.046875 C 1.84375 -8.890625 1.796875 -8.765625 1.703125 -8.671875 C 1.609375 -8.585938 1.492188 -8.546875 1.359375 -8.546875 Z M 1.640625 -6.984375 L 1.640625 0 L 1.0625 0 L 1.0625 -6.984375 Z M 1.640625 -6.984375 "/></g></g></g><g fill="#ffffff" fill-opacity="1"><g transform="translate(84.599043, 219.638774)"><g><path d="M 4.203125 -7.125 C 5.035156 -7.125 5.710938 -6.867188 6.234375 -6.359375 C 6.765625 -5.847656 7.03125 -5.09375 7.03125 -4.09375 L 7.03125 0 L 6.46875 0 L 6.46875 -4.0625 C 6.46875 -4.882812 6.253906 -5.515625 5.828125 -5.953125 C 5.410156 -6.398438 4.84375 -6.625 4.125 -6.625 C 3.363281 -6.625 2.757812 -6.382812 2.3125 -5.90625 C 1.863281 -5.425781 1.640625 -4.710938 1.640625 -3.765625 L 1.640625 0 L 1.0625 0 L 1.0625 -6.984375 L 1.640625 -6.984375 L 1.640625 -5.515625 C 1.835938 -6.035156 2.164062 -6.429688 2.625 -6.703125 C 3.082031 -6.984375 3.609375 -7.125 4.203125 -7.125 Z M 4.203125 -7.125 "/></g></g></g><g fill="#ffffff" fill-opacity="1"><g transform="translate(92.125822, 219.638774)"><g><path d="M 7.359375 -3.96875 C 7.359375 -3.65625 7.347656 -3.421875 7.328125 -3.265625 L 1.28125 -3.265625 C 1.300781 -2.640625 1.4375 -2.113281 1.6875 -1.6875 C 1.945312 -1.257812 2.285156 -0.9375 2.703125 -0.71875 C 3.128906 -0.507812 3.59375 -0.40625 4.09375 -0.40625 C 4.78125 -0.40625 5.351562 -0.570312 5.8125 -0.90625 C 6.28125 -1.25 6.570312 -1.710938 6.6875 -2.296875 L 7.296875 -2.296875 C 7.160156 -1.578125 6.804688 -0.992188 6.234375 -0.546875 C 5.671875 -0.109375 4.957031 0.109375 4.09375 0.109375 C 3.4375 0.109375 2.851562 -0.0351562 2.34375 -0.328125 C 1.832031 -0.617188 1.425781 -1.035156 1.125 -1.578125 C 0.832031 -2.128906 0.6875 -2.769531 0.6875 -3.5 C 0.6875 -4.226562 0.832031 -4.863281 1.125 -5.40625 C 1.414062 -5.945312 1.816406 -6.359375 2.328125 -6.640625 C 2.847656 -6.929688 3.4375 -7.078125 4.09375 -7.078125 C 4.757812 -7.078125 5.335938 -6.929688 5.828125 -6.640625 C 6.328125 -6.359375 6.707031 -5.976562 6.96875 -5.5 C 7.226562 -5.03125 7.359375 -4.519531 7.359375 -3.96875 Z M 6.765625 -3.75 C 6.796875 -4.363281 6.6875 -4.882812 6.4375 -5.3125 C 6.195312 -5.75 5.863281 -6.070312 5.4375 -6.28125 C 5.019531 -6.488281 4.566406 -6.59375 4.078125 -6.59375 C 3.585938 -6.59375 3.132812 -6.488281 2.71875 -6.28125 C 2.300781 -6.070312 1.960938 -5.75 1.703125 -5.3125 C 1.441406 -4.882812 1.300781 -4.363281 1.28125 -3.75 Z M 6.765625 -3.75 "/></g></g></g><g fill="#ffffff" fill-opacity="1"><g transform="translate(99.678338, 219.638774)"><g><path d="M 3.390625 0.109375 C 2.609375 0.109375 1.96875 -0.0625 1.46875 -0.40625 C 0.976562 -0.75 0.703125 -1.238281 0.640625 -1.875 L 1.234375 -1.875 C 1.273438 -1.425781 1.484375 -1.066406 1.859375 -0.796875 C 2.234375 -0.535156 2.742188 -0.40625 3.390625 -0.40625 C 3.921875 -0.40625 4.34375 -0.535156 4.65625 -0.796875 C 4.96875 -1.066406 5.125 -1.398438 5.125 -1.796875 C 5.125 -2.078125 5.039062 -2.304688 4.875 -2.484375 C 4.707031 -2.660156 4.5 -2.796875 4.25 -2.890625 C 4 -2.984375 3.660156 -3.082031 3.234375 -3.1875 C 2.710938 -3.332031 2.289062 -3.46875 1.96875 -3.59375 C 1.65625 -3.726562 1.390625 -3.925781 1.171875 -4.1875 C 0.953125 -4.457031 0.84375 -4.816406 0.84375 -5.265625 C 0.84375 -5.585938 0.9375 -5.890625 1.125 -6.171875 C 1.320312 -6.453125 1.597656 -6.671875 1.953125 -6.828125 C 2.304688 -6.992188 2.707031 -7.078125 3.15625 -7.078125 C 3.882812 -7.078125 4.472656 -6.894531 4.921875 -6.53125 C 5.367188 -6.164062 5.613281 -5.660156 5.65625 -5.015625 L 5.078125 -5.015625 C 5.046875 -5.484375 4.863281 -5.863281 4.53125 -6.15625 C 4.195312 -6.445312 3.734375 -6.59375 3.140625 -6.59375 C 2.640625 -6.59375 2.226562 -6.460938 1.90625 -6.203125 C 1.582031 -5.941406 1.421875 -5.628906 1.421875 -5.265625 C 1.421875 -4.941406 1.507812 -4.675781 1.6875 -4.46875 C 1.875 -4.269531 2.101562 -4.113281 2.375 -4 C 2.644531 -3.894531 3.003906 -3.785156 3.453125 -3.671875 C 3.941406 -3.535156 4.332031 -3.40625 4.625 -3.28125 C 4.925781 -3.164062 5.175781 -2.988281 5.375 -2.75 C 5.582031 -2.507812 5.6875 -2.191406 5.6875 -1.796875 C 5.6875 -1.441406 5.585938 -1.117188 5.390625 -0.828125 C 5.191406 -0.535156 4.914062 -0.304688 4.5625 -0.140625 C 4.21875 0.0234375 3.828125 0.109375 3.390625 0.109375 Z M 3.390625 0.109375 "/></g></g></g><g fill="#ffffff" fill-opacity="1"><g transform="translate(105.583844, 219.638774)"><g/></g></g><g fill="#ffffff" fill-opacity="1"><g transform="translate(108.722878, 219.638774)"><g><path d="M 0.6875 -3.5 C 0.6875 -4.21875 0.832031 -4.847656 1.125 -5.390625 C 1.414062 -5.929688 1.816406 -6.347656 2.328125 -6.640625 C 2.835938 -6.929688 3.414062 -7.078125 4.0625 -7.078125 C 4.78125 -7.078125 5.398438 -6.898438 5.921875 -6.546875 C 6.441406 -6.191406 6.8125 -5.726562 7.03125 -5.15625 L 7.03125 -9.53125 L 7.609375 -9.53125 L 7.609375 0 L 7.03125 0 L 7.03125 -1.859375 C 6.820312 -1.273438 6.457031 -0.800781 5.9375 -0.4375 C 5.425781 -0.0703125 4.800781 0.109375 4.0625 0.109375 C 3.414062 0.109375 2.835938 -0.0351562 2.328125 -0.328125 C 1.816406 -0.628906 1.414062 -1.050781 1.125 -1.59375 C 0.832031 -2.144531 0.6875 -2.78125 0.6875 -3.5 Z M 7.03125 -3.5 C 7.03125 -4.113281 6.898438 -4.648438 6.640625 -5.109375 C 6.390625 -5.578125 6.046875 -5.9375 5.609375 -6.1875 C 5.171875 -6.445312 4.679688 -6.578125 4.140625 -6.578125 C 3.578125 -6.578125 3.082031 -6.453125 2.65625 -6.203125 C 2.226562 -5.960938 1.890625 -5.609375 1.640625 -5.140625 C 1.398438 -4.679688 1.28125 -4.132812 1.28125 -3.5 C 1.28125 -2.863281 1.398438 -2.3125 1.640625 -1.84375 C 1.890625 -1.382812 2.226562 -1.03125 2.65625 -0.78125 C 3.09375 -0.53125 3.585938 -0.40625 4.140625 -0.40625 C 4.679688 -0.40625 5.171875 -0.53125 5.609375 -0.78125 C 6.054688 -1.039062 6.40625 -1.40625 6.65625 -1.875 C 6.90625 -2.34375 7.03125 -2.882812 7.03125 -3.5 Z M 7.03125 -3.5 "/></g></g></g><g fill="#ffffff" fill-opacity="1"><g transform="translate(116.893021, 219.638774)"><g><path d="M 0.6875 -3.5 C 0.6875 -4.21875 0.832031 -4.847656 1.125 -5.390625 C 1.414062 -5.929688 1.816406 -6.347656 2.328125 -6.640625 C 2.835938 -6.929688 3.414062 -7.078125 4.0625 -7.078125 C 4.800781 -7.078125 5.425781 -6.894531 5.9375 -6.53125 C 6.457031 -6.175781 6.820312 -5.71875 7.03125 -5.15625 L 7.03125 -6.984375 L 7.609375 -6.984375 L 7.609375 0 L 7.03125 0 L 7.03125 -1.84375 C 6.820312 -1.269531 6.457031 -0.800781 5.9375 -0.4375 C 5.414062 -0.0703125 4.789062 0.109375 4.0625 0.109375 C 3.414062 0.109375 2.835938 -0.0351562 2.328125 -0.328125 C 1.816406 -0.628906 1.414062 -1.050781 1.125 -1.59375 C 0.832031 -2.144531 0.6875 -2.78125 0.6875 -3.5 Z M 7.03125 -3.5 C 7.03125 -4.113281 6.898438 -4.648438 6.640625 -5.109375 C 6.390625 -5.578125 6.046875 -5.9375 5.609375 -6.1875 C 5.171875 -6.445312 4.679688 -6.578125 4.140625 -6.578125 C 3.578125 -6.578125 3.082031 -6.453125 2.65625 -6.203125 C 2.226562 -5.960938 1.890625 -5.609375 1.640625 -5.140625 C 1.398438 -4.679688 1.28125 -4.132812 1.28125 -3.5 C 1.28125 -2.863281 1.398438 -2.3125 1.640625 -1.84375 C 1.890625 -1.382812 2.226562 -1.03125 2.65625 -0.78125 C 3.09375 -0.53125 3.585938 -0.40625 4.140625 -0.40625 C 4.679688 -0.40625 5.171875 -0.53125 5.609375 -0.78125 C 6.054688 -1.039062 6.40625 -1.40625 6.65625 -1.875 C 6.90625 -2.34375 7.03125 -2.882812 7.03125 -3.5 Z M 7.03125 -3.5 "/></g></g></g><g fill="#ffffff" fill-opacity="1"><g transform="translate(125.063163, 219.638774)"><g><path d="M 1.921875 -6.484375 L 1.921875 -1.859375 C 1.921875 -1.347656 2.015625 -0.992188 2.203125 -0.796875 C 2.390625 -0.609375 2.722656 -0.515625 3.203125 -0.515625 L 3.984375 -0.515625 L 3.984375 0 L 3.109375 0 C 2.503906 0 2.054688 -0.140625 1.765625 -0.421875 C 1.484375 -0.710938 1.34375 -1.191406 1.34375 -1.859375 L 1.34375 -6.484375 L 0.28125 -6.484375 L 0.28125 -6.984375 L 1.34375 -6.984375 L 1.34375 -8.765625 L 1.921875 -8.765625 L 1.921875 -6.984375 L 3.984375 -6.984375 L 3.984375 -6.484375 Z M 1.921875 -6.484375 "/></g></g></g><g fill="#ffffff" fill-opacity="1"><g transform="translate(129.038577, 219.638774)"><g><path d="M 0.6875 -3.5 C 0.6875 -4.21875 0.832031 -4.847656 1.125 -5.390625 C 1.414062 -5.929688 1.816406 -6.347656 2.328125 -6.640625 C 2.835938 -6.929688 3.414062 -7.078125 4.0625 -7.078125 C 4.800781 -7.078125 5.425781 -6.894531 5.9375 -6.53125 C 6.457031 -6.175781 6.820312 -5.71875 7.03125 -5.15625 L 7.03125 -6.984375 L 7.609375 -6.984375 L 7.609375 0 L 7.03125 0 L 7.03125 -1.84375 C 6.820312 -1.269531 6.457031 -0.800781 5.9375 -0.4375 C 5.414062 -0.0703125 4.789062 0.109375 4.0625 0.109375 C 3.414062 0.109375 2.835938 -0.0351562 2.328125 -0.328125 C 1.816406 -0.628906 1.414062 -1.050781 1.125 -1.59375 C 0.832031 -2.144531 0.6875 -2.78125 0.6875 -3.5 Z M 7.03125 -3.5 C 7.03125 -4.113281 6.898438 -4.648438 6.640625 -5.109375 C 6.390625 -5.578125 6.046875 -5.9375 5.609375 -6.1875 C 5.171875 -6.445312 4.679688 -6.578125 4.140625 -6.578125 C 3.578125 -6.578125 3.082031 -6.453125 2.65625 -6.203125 C 2.226562 -5.960938 1.890625 -5.609375 1.640625 -5.140625 C 1.398438 -4.679688 1.28125 -4.132812 1.28125 -3.5 C 1.28125 -2.863281 1.398438 -2.3125 1.640625 -1.84375 C 1.890625 -1.382812 2.226562 -1.03125 2.65625 -0.78125 C 3.09375 -0.53125 3.585938 -0.40625 4.140625 -0.40625 C 4.679688 -0.40625 5.171875 -0.53125 5.609375 -0.78125 C 6.054688 -1.039062 6.40625 -1.40625 6.65625 -1.875 C 6.90625 -2.34375 7.03125 -2.882812 7.03125 -3.5 Z M 7.03125 -3.5 "/></g></g></g><g fill="#ffffff" fill-opacity="1"><g transform="translate(137.20872, 219.638774)"><g/></g></g><g fill="#ffffff" fill-opacity="1"><g transform="translate(140.347754, 219.638774)"><g><path d="M 3.390625 0.109375 C 2.609375 0.109375 1.96875 -0.0625 1.46875 -0.40625 C 0.976562 -0.75 0.703125 -1.238281 0.640625 -1.875 L 1.234375 -1.875 C 1.273438 -1.425781 1.484375 -1.066406 1.859375 -0.796875 C 2.234375 -0.535156 2.742188 -0.40625 3.390625 -0.40625 C 3.921875 -0.40625 4.34375 -0.535156 4.65625 -0.796875 C 4.96875 -1.066406 5.125 -1.398438 5.125 -1.796875 C 5.125 -2.078125 5.039062 -2.304688 4.875 -2.484375 C 4.707031 -2.660156 4.5 -2.796875 4.25 -2.890625 C 4 -2.984375 3.660156 -3.082031 3.234375 -3.1875 C 2.710938 -3.332031 2.289062 -3.46875 1.96875 -3.59375 C 1.65625 -3.726562 1.390625 -3.925781 1.171875 -4.1875 C 0.953125 -4.457031 0.84375 -4.816406 0.84375 -5.265625 C 0.84375 -5.585938 0.9375 -5.890625 1.125 -6.171875 C 1.320312 -6.453125 1.597656 -6.671875 1.953125 -6.828125 C 2.304688 -6.992188 2.707031 -7.078125 3.15625 -7.078125 C 3.882812 -7.078125 4.472656 -6.894531 4.921875 -6.53125 C 5.367188 -6.164062 5.613281 -5.660156 5.65625 -5.015625 L 5.078125 -5.015625 C 5.046875 -5.484375 4.863281 -5.863281 4.53125 -6.15625 C 4.195312 -6.445312 3.734375 -6.59375 3.140625 -6.59375 C 2.640625 -6.59375 2.226562 -6.460938 1.90625 -6.203125 C 1.582031 -5.941406 1.421875 -5.628906 1.421875 -5.265625 C 1.421875 -4.941406 1.507812 -4.675781 1.6875 -4.46875 C 1.875 -4.269531 2.101562 -4.113281 2.375 -4 C 2.644531 -3.894531 3.003906 -3.785156 3.453125 -3.671875 C 3.941406 -3.535156 4.332031 -3.40625 4.625 -3.28125 C 4.925781 -3.164062 5.175781 -2.988281 5.375 -2.75 C 5.582031 -2.507812 5.6875 -2.191406 5.6875 -1.796875 C 5.6875 -1.441406 5.585938 -1.117188 5.390625 -0.828125 C 5.191406 -0.535156 4.914062 -0.304688 4.5625 -0.140625 C 4.21875 0.0234375 3.828125 0.109375 3.390625 0.109375 Z M 3.390625 0.109375 "/></g></g></g><g fill="#ffffff" fill-opacity="1"><g transform="translate(146.25326, 219.638774)"><g><path d="M 0.6875 -3.5 C 0.6875 -4.226562 0.832031 -4.863281 1.125 -5.40625 C 1.414062 -5.945312 1.816406 -6.359375 2.328125 -6.640625 C 2.835938 -6.929688 3.421875 -7.078125 4.078125 -7.078125 C 4.953125 -7.078125 5.671875 -6.859375 6.234375 -6.421875 C 6.796875 -5.984375 7.144531 -5.394531 7.28125 -4.65625 L 6.6875 -4.65625 C 6.570312 -5.257812 6.28125 -5.734375 5.8125 -6.078125 C 5.34375 -6.421875 4.765625 -6.59375 4.078125 -6.59375 C 3.566406 -6.59375 3.097656 -6.476562 2.671875 -6.25 C 2.253906 -6.019531 1.914062 -5.671875 1.65625 -5.203125 C 1.40625 -4.734375 1.28125 -4.164062 1.28125 -3.5 C 1.28125 -2.820312 1.40625 -2.25 1.65625 -1.78125 C 1.914062 -1.320312 2.253906 -0.976562 2.671875 -0.75 C 3.097656 -0.519531 3.566406 -0.40625 4.078125 -0.40625 C 4.765625 -0.40625 5.34375 -0.570312 5.8125 -0.90625 C 6.28125 -1.25 6.570312 -1.722656 6.6875 -2.328125 L 7.28125 -2.328125 C 7.144531 -1.597656 6.789062 -1.007812 6.21875 -0.5625 C 5.65625 -0.113281 4.941406 0.109375 4.078125 0.109375 C 3.421875 0.109375 2.835938 -0.0351562 2.328125 -0.328125 C 1.816406 -0.617188 1.414062 -1.035156 1.125 -1.578125 C 0.832031 -2.128906 0.6875 -2.769531 0.6875 -3.5 Z M 0.6875 -3.5 "/></g></g></g><g fill="#ffffff" fill-opacity="1"><g transform="translate(153.754301, 219.638774)"><g><path d="M 1.359375 -8.546875 C 1.210938 -8.546875 1.09375 -8.585938 1 -8.671875 C 0.90625 -8.765625 0.859375 -8.890625 0.859375 -9.046875 C 0.859375 -9.191406 0.90625 -9.3125 1 -9.40625 C 1.09375 -9.5 1.210938 -9.546875 1.359375 -9.546875 C 1.492188 -9.546875 1.609375 -9.5 1.703125 -9.40625 C 1.796875 -9.3125 1.84375 -9.191406 1.84375 -9.046875 C 1.84375 -8.890625 1.796875 -8.765625 1.703125 -8.671875 C 1.609375 -8.585938 1.492188 -8.546875 1.359375 -8.546875 Z M 1.640625 -6.984375 L 1.640625 0 L 1.0625 0 L 1.0625 -6.984375 Z M 1.640625 -6.984375 "/></g></g></g><g fill="#ffffff" fill-opacity="1"><g transform="translate(155.96689, 219.638774)"><g><path d="M 7.359375 -3.96875 C 7.359375 -3.65625 7.347656 -3.421875 7.328125 -3.265625 L 1.28125 -3.265625 C 1.300781 -2.640625 1.4375 -2.113281 1.6875 -1.6875 C 1.945312 -1.257812 2.285156 -0.9375 2.703125 -0.71875 C 3.128906 -0.507812 3.59375 -0.40625 4.09375 -0.40625 C 4.78125 -0.40625 5.351562 -0.570312 5.8125 -0.90625 C 6.28125 -1.25 6.570312 -1.710938 6.6875 -2.296875 L 7.296875 -2.296875 C 7.160156 -1.578125 6.804688 -0.992188 6.234375 -0.546875 C 5.671875 -0.109375 4.957031 0.109375 4.09375 0.109375 C 3.4375 0.109375 2.851562 -0.0351562 2.34375 -0.328125 C 1.832031 -0.617188 1.425781 -1.035156 1.125 -1.578125 C 0.832031 -2.128906 0.6875 -2.769531 0.6875 -3.5 C 0.6875 -4.226562 0.832031 -4.863281 1.125 -5.40625 C 1.414062 -5.945312 1.816406 -6.359375 2.328125 -6.640625 C 2.847656 -6.929688 3.4375 -7.078125 4.09375 -7.078125 C 4.757812 -7.078125 5.335938 -6.929688 5.828125 -6.640625 C 6.328125 -6.359375 6.707031 -5.976562 6.96875 -5.5 C 7.226562 -5.03125 7.359375 -4.519531 7.359375 -3.96875 Z M 6.765625 -3.75 C 6.796875 -4.363281 6.6875 -4.882812 6.4375 -5.3125 C 6.195312 -5.75 5.863281 -6.070312 5.4375 -6.28125 C 5.019531 -6.488281 4.566406 -6.59375 4.078125 -6.59375 C 3.585938 -6.59375 3.132812 -6.488281 2.71875 -6.28125 C 2.300781 -6.070312 1.960938 -5.75 1.703125 -5.3125 C 1.441406 -4.882812 1.300781 -4.363281 1.28125 -3.75 Z M 6.765625 -3.75 "/></g></g></g><g fill="#ffffff" fill-opacity="1"><g transform="translate(163.519406, 219.638774)"><g><path d="M 4.203125 -7.125 C 5.035156 -7.125 5.710938 -6.867188 6.234375 -6.359375 C 6.765625 -5.847656 7.03125 -5.09375 7.03125 -4.09375 L 7.03125 0 L 6.46875 0 L 6.46875 -4.0625 C 6.46875 -4.882812 6.253906 -5.515625 5.828125 -5.953125 C 5.410156 -6.398438 4.84375 -6.625 4.125 -6.625 C 3.363281 -6.625 2.757812 -6.382812 2.3125 -5.90625 C 1.863281 -5.425781 1.640625 -4.710938 1.640625 -3.765625 L 1.640625 0 L 1.0625 0 L 1.0625 -6.984375 L 1.640625 -6.984375 L 1.640625 -5.515625 C 1.835938 -6.035156 2.164062 -6.429688 2.625 -6.703125 C 3.082031 -6.984375 3.609375 -7.125 4.203125 -7.125 Z M 4.203125 -7.125 "/></g></g></g><g fill="#ffffff" fill-opacity="1"><g transform="translate(171.046185, 219.638774)"><g><path d="M 0.6875 -3.5 C 0.6875 -4.226562 0.832031 -4.863281 1.125 -5.40625 C 1.414062 -5.945312 1.816406 -6.359375 2.328125 -6.640625 C 2.835938 -6.929688 3.421875 -7.078125 4.078125 -7.078125 C 4.953125 -7.078125 5.671875 -6.859375 6.234375 -6.421875 C 6.796875 -5.984375 7.144531 -5.394531 7.28125 -4.65625 L 6.6875 -4.65625 C 6.570312 -5.257812 6.28125 -5.734375 5.8125 -6.078125 C 5.34375 -6.421875 4.765625 -6.59375 4.078125 -6.59375 C 3.566406 -6.59375 3.097656 -6.476562 2.671875 -6.25 C 2.253906 -6.019531 1.914062 -5.671875 1.65625 -5.203125 C 1.40625 -4.734375 1.28125 -4.164062 1.28125 -3.5 C 1.28125 -2.820312 1.40625 -2.25 1.65625 -1.78125 C 1.914062 -1.320312 2.253906 -0.976562 2.671875 -0.75 C 3.097656 -0.519531 3.566406 -0.40625 4.078125 -0.40625 C 4.765625 -0.40625 5.34375 -0.570312 5.8125 -0.90625 C 6.28125 -1.25 6.570312 -1.722656 6.6875 -2.328125 L 7.28125 -2.328125 C 7.144531 -1.597656 6.789062 -1.007812 6.21875 -0.5625 C 5.65625 -0.113281 4.941406 0.109375 4.078125 0.109375 C 3.421875 0.109375 2.835938 -0.0351562 2.328125 -0.328125 C 1.816406 -0.617188 1.414062 -1.035156 1.125 -1.578125 C 0.832031 -2.128906 0.6875 -2.769531 0.6875 -3.5 Z M 0.6875 -3.5 "/></g></g></g><g fill="#ffffff" fill-opacity="1"><g transform="translate(178.547226, 219.638774)"><g><path d="M 7.359375 -3.96875 C 7.359375 -3.65625 7.347656 -3.421875 7.328125 -3.265625 L 1.28125 -3.265625 C 1.300781 -2.640625 1.4375 -2.113281 1.6875 -1.6875 C 1.945312 -1.257812 2.285156 -0.9375 2.703125 -0.71875 C 3.128906 -0.507812 3.59375 -0.40625 4.09375 -0.40625 C 4.78125 -0.40625 5.351562 -0.570312 5.8125 -0.90625 C 6.28125 -1.25 6.570312 -1.710938 6.6875 -2.296875 L 7.296875 -2.296875 C 7.160156 -1.578125 6.804688 -0.992188 6.234375 -0.546875 C 5.671875 -0.109375 4.957031 0.109375 4.09375 0.109375 C 3.4375 0.109375 2.851562 -0.0351562 2.34375 -0.328125 C 1.832031 -0.617188 1.425781 -1.035156 1.125 -1.578125 C 0.832031 -2.128906 0.6875 -2.769531 0.6875 -3.5 C 0.6875 -4.226562 0.832031 -4.863281 1.125 -5.40625 C 1.414062 -5.945312 1.816406 -6.359375 2.328125 -6.640625 C 2.847656 -6.929688 3.4375 -7.078125 4.09375 -7.078125 C 4.757812 -7.078125 5.335938 -6.929688 5.828125 -6.640625 C 6.328125 -6.359375 6.707031 -5.976562 6.96875 -5.5 C 7.226562 -5.03125 7.359375 -4.519531 7.359375 -3.96875 Z M 6.765625 -3.75 C 6.796875 -4.363281 6.6875 -4.882812 6.4375 -5.3125 C 6.195312 -5.75 5.863281 -6.070312 5.4375 -6.28125 C 5.019531 -6.488281 4.566406 -6.59375 4.078125 -6.59375 C 3.585938 -6.59375 3.132812 -6.488281 2.71875 -6.28125 C 2.300781 -6.070312 1.960938 -5.75 1.703125 -5.3125 C 1.441406 -4.882812 1.300781 -4.363281 1.28125 -3.75 Z M 6.765625 -3.75 "/></g></g></g><g fill="#ffffff" fill-opacity="1"><g transform="translate(186.099742, 219.638774)"><g/></g></g><g fill="#ffffff" fill-opacity="1"><g transform="translate(189.238776, 219.638774)"><g><path d="M 0.6875 -3.5 C 0.6875 -4.21875 0.832031 -4.847656 1.125 -5.390625 C 1.414062 -5.929688 1.816406 -6.347656 2.328125 -6.640625 C 2.835938 -6.929688 3.414062 -7.078125 4.0625 -7.078125 C 4.800781 -7.078125 5.425781 -6.894531 5.9375 -6.53125 C 6.457031 -6.175781 6.820312 -5.71875 7.03125 -5.15625 L 7.03125 -6.984375 L 7.609375 -6.984375 L 7.609375 0 L 7.03125 0 L 7.03125 -1.84375 C 6.820312 -1.269531 6.457031 -0.800781 5.9375 -0.4375 C 5.414062 -0.0703125 4.789062 0.109375 4.0625 0.109375 C 3.414062 0.109375 2.835938 -0.0351562 2.328125 -0.328125 C 1.816406 -0.628906 1.414062 -1.050781 1.125 -1.59375 C 0.832031 -2.144531 0.6875 -2.78125 0.6875 -3.5 Z M 7.03125 -3.5 C 7.03125 -4.113281 6.898438 -4.648438 6.640625 -5.109375 C 6.390625 -5.578125 6.046875 -5.9375 5.609375 -6.1875 C 5.171875 -6.445312 4.679688 -6.578125 4.140625 -6.578125 C 3.578125 -6.578125 3.082031 -6.453125 2.65625 -6.203125 C 2.226562 -5.960938 1.890625 -5.609375 1.640625 -5.140625 C 1.398438 -4.679688 1.28125 -4.132812 1.28125 -3.5 C 1.28125 -2.863281 1.398438 -2.3125 1.640625 -1.84375 C 1.890625 -1.382812 2.226562 -1.03125 2.65625 -0.78125 C 3.09375 -0.53125 3.585938 -0.40625 4.140625 -0.40625 C 4.679688 -0.40625 5.171875 -0.53125 5.609375 -0.78125 C 6.054688 -1.039062 6.40625 -1.40625 6.65625 -1.875 C 6.90625 -2.34375 7.03125 -2.882812 7.03125 -3.5 Z M 7.03125 -3.5 "/></g></g></g><g fill="#ffffff" fill-opacity="1"><g transform="translate(197.408919, 219.638774)"><g><path d="M 4.203125 -7.125 C 5.035156 -7.125 5.710938 -6.867188 6.234375 -6.359375 C 6.765625 -5.847656 7.03125 -5.09375 7.03125 -4.09375 L 7.03125 0 L 6.46875 0 L 6.46875 -4.0625 C 6.46875 -4.882812 6.253906 -5.515625 5.828125 -5.953125 C 5.410156 -6.398438 4.84375 -6.625 4.125 -6.625 C 3.363281 -6.625 2.757812 -6.382812 2.3125 -5.90625 C 1.863281 -5.425781 1.640625 -4.710938 1.640625 -3.765625 L 1.640625 0 L 1.0625 0 L 1.0625 -6.984375 L 1.640625 -6.984375 L 1.640625 -5.515625 C 1.835938 -6.035156 2.164062 -6.429688 2.625 -6.703125 C 3.082031 -6.984375 3.609375 -7.125 4.203125 -7.125 Z M 4.203125 -7.125 "/></g></g></g><g fill="#ffffff" fill-opacity="1"><g transform="translate(204.935698, 219.638774)"><g><path d="M 0.6875 -3.5 C 0.6875 -4.21875 0.832031 -4.847656 1.125 -5.390625 C 1.414062 -5.929688 1.816406 -6.347656 2.328125 -6.640625 C 2.835938 -6.929688 3.414062 -7.078125 4.0625 -7.078125 C 4.78125 -7.078125 5.398438 -6.898438 5.921875 -6.546875 C 6.441406 -6.191406 6.8125 -5.726562 7.03125 -5.15625 L 7.03125 -9.53125 L 7.609375 -9.53125 L 7.609375 0 L 7.03125 0 L 7.03125 -1.859375 C 6.820312 -1.273438 6.457031 -0.800781 5.9375 -0.4375 C 5.425781 -0.0703125 4.800781 0.109375 4.0625 0.109375 C 3.414062 0.109375 2.835938 -0.0351562 2.328125 -0.328125 C 1.816406 -0.628906 1.414062 -1.050781 1.125 -1.59375 C 0.832031 -2.144531 0.6875 -2.78125 0.6875 -3.5 Z M 7.03125 -3.5 C 7.03125 -4.113281 6.898438 -4.648438 6.640625 -5.109375 C 6.390625 -5.578125 6.046875 -5.9375 5.609375 -6.1875 C 5.171875 -6.445312 4.679688 -6.578125 4.140625 -6.578125 C 3.578125 -6.578125 3.082031 -6.453125 2.65625 -6.203125 C 2.226562 -5.960938 1.890625 -5.609375 1.640625 -5.140625 C 1.398438 -4.679688 1.28125 -4.132812 1.28125 -3.5 C 1.28125 -2.863281 1.398438 -2.3125 1.640625 -1.84375 C 1.890625 -1.382812 2.226562 -1.03125 2.65625 -0.78125 C 3.09375 -0.53125 3.585938 -0.40625 4.140625 -0.40625 C 4.679688 -0.40625 5.171875 -0.53125 5.609375 -0.78125 C 6.054688 -1.039062 6.40625 -1.40625 6.65625 -1.875 C 6.90625 -2.34375 7.03125 -2.882812 7.03125 -3.5 Z M 7.03125 -3.5 "/></g></g></g><g fill="#ffffff" fill-opacity="1"><g transform="translate(213.10584, 219.638774)"><g/></g></g><g fill="#ffffff" fill-opacity="1"><g transform="translate(216.244874, 219.638774)"><g><path d="M 9.328125 -7.125 C 10.117188 -7.125 10.765625 -6.867188 11.265625 -6.359375 C 11.773438 -5.847656 12.03125 -5.09375 12.03125 -4.09375 L 12.03125 0 L 11.46875 0 L 11.46875 -4.0625 C 11.46875 -4.882812 11.269531 -5.515625 10.875 -5.953125 C 10.476562 -6.398438 9.929688 -6.625 9.234375 -6.625 C 8.515625 -6.625 7.9375 -6.375 7.5 -5.875 C 7.0625 -5.382812 6.84375 -4.664062 6.84375 -3.71875 L 6.84375 0 L 6.265625 0 L 6.265625 -4.0625 C 6.265625 -4.882812 6.066406 -5.515625 5.671875 -5.953125 C 5.273438 -6.398438 4.726562 -6.625 4.03125 -6.625 C 3.3125 -6.625 2.734375 -6.375 2.296875 -5.875 C 1.859375 -5.382812 1.640625 -4.664062 1.640625 -3.71875 L 1.640625 0 L 1.0625 0 L 1.0625 -6.984375 L 1.640625 -6.984375 L 1.640625 -5.46875 C 1.835938 -6.019531 2.15625 -6.429688 2.59375 -6.703125 C 3.03125 -6.984375 3.539062 -7.125 4.125 -7.125 C 4.757812 -7.125 5.304688 -6.957031 5.765625 -6.625 C 6.222656 -6.300781 6.535156 -5.816406 6.703125 -5.171875 C 6.867188 -5.816406 7.1875 -6.300781 7.65625 -6.625 C 8.132812 -6.957031 8.691406 -7.125 9.328125 -7.125 Z M 9.328125 -7.125 "/></g></g></g><g fill="#ffffff" fill-opacity="1"><g transform="translate(228.789887, 219.638774)"><g><path d="M 0.6875 -3.5 C 0.6875 -4.21875 0.832031 -4.847656 1.125 -5.390625 C 1.414062 -5.929688 1.816406 -6.347656 2.328125 -6.640625 C 2.835938 -6.929688 3.414062 -7.078125 4.0625 -7.078125 C 4.800781 -7.078125 5.425781 -6.894531 5.9375 -6.53125 C 6.457031 -6.175781 6.820312 -5.71875 7.03125 -5.15625 L 7.03125 -6.984375 L 7.609375 -6.984375 L 7.609375 0 L 7.03125 0 L 7.03125 -1.84375 C 6.820312 -1.269531 6.457031 -0.800781 5.9375 -0.4375 C 5.414062 -0.0703125 4.789062 0.109375 4.0625 0.109375 C 3.414062 0.109375 2.835938 -0.0351562 2.328125 -0.328125 C 1.816406 -0.628906 1.414062 -1.050781 1.125 -1.59375 C 0.832031 -2.144531 0.6875 -2.78125 0.6875 -3.5 Z M 7.03125 -3.5 C 7.03125 -4.113281 6.898438 -4.648438 6.640625 -5.109375 C 6.390625 -5.578125 6.046875 -5.9375 5.609375 -6.1875 C 5.171875 -6.445312 4.679688 -6.578125 4.140625 -6.578125 C 3.578125 -6.578125 3.082031 -6.453125 2.65625 -6.203125 C 2.226562 -5.960938 1.890625 -5.609375 1.640625 -5.140625 C 1.398438 -4.679688 1.28125 -4.132812 1.28125 -3.5 C 1.28125 -2.863281 1.398438 -2.3125 1.640625 -1.84375 C 1.890625 -1.382812 2.226562 -1.03125 2.65625 -0.78125 C 3.09375 -0.53125 3.585938 -0.40625 4.140625 -0.40625 C 4.679688 -0.40625 5.171875 -0.53125 5.609375 -0.78125 C 6.054688 -1.039062 6.40625 -1.40625 6.65625 -1.875 C 6.90625 -2.34375 7.03125 -2.882812 7.03125 -3.5 Z M 7.03125 -3.5 "/></g></g></g><g fill="#ffffff" fill-opacity="1"><g transform="translate(236.96003, 219.638774)"><g><path d="M 1.640625 -5.546875 C 1.804688 -6.066406 2.109375 -6.457031 2.546875 -6.71875 C 2.984375 -6.988281 3.539062 -7.125 4.21875 -7.125 L 4.21875 -6.53125 L 4.03125 -6.53125 C 3.34375 -6.53125 2.769531 -6.332031 2.3125 -5.9375 C 1.863281 -5.550781 1.640625 -4.914062 1.640625 -4.03125 L 1.640625 0 L 1.0625 0 L 1.0625 -6.984375 L 1.640625 -6.984375 Z M 1.640625 -5.546875 "/></g></g></g><g fill="#ffffff" fill-opacity="1"><g transform="translate(240.974033, 219.638774)"><g><path d="M 4.6875 0 L 1.640625 -3.203125 L 1.640625 0 L 1.0625 0 L 1.0625 -9.53125 L 1.640625 -9.53125 L 1.640625 -3.828125 L 4.640625 -6.984375 L 5.453125 -6.984375 L 2.0625 -3.515625 L 5.484375 0 Z M 4.6875 0 "/></g></g></g><g fill="#ffffff" fill-opacity="1"><g transform="translate(246.107486, 219.638774)"><g><path d="M 7.359375 -3.96875 C 7.359375 -3.65625 7.347656 -3.421875 7.328125 -3.265625 L 1.28125 -3.265625 C 1.300781 -2.640625 1.4375 -2.113281 1.6875 -1.6875 C 1.945312 -1.257812 2.285156 -0.9375 2.703125 -0.71875 C 3.128906 -0.507812 3.59375 -0.40625 4.09375 -0.40625 C 4.78125 -0.40625 5.351562 -0.570312 5.8125 -0.90625 C 6.28125 -1.25 6.570312 -1.710938 6.6875 -2.296875 L 7.296875 -2.296875 C 7.160156 -1.578125 6.804688 -0.992188 6.234375 -0.546875 C 5.671875 -0.109375 4.957031 0.109375 4.09375 0.109375 C 3.4375 0.109375 2.851562 -0.0351562 2.34375 -0.328125 C 1.832031 -0.617188 1.425781 -1.035156 1.125 -1.578125 C 0.832031 -2.128906 0.6875 -2.769531 0.6875 -3.5 C 0.6875 -4.226562 0.832031 -4.863281 1.125 -5.40625 C 1.414062 -5.945312 1.816406 -6.359375 2.328125 -6.640625 C 2.847656 -6.929688 3.4375 -7.078125 4.09375 -7.078125 C 4.757812 -7.078125 5.335938 -6.929688 5.828125 -6.640625 C 6.328125 -6.359375 6.707031 -5.976562 6.96875 -5.5 C 7.226562 -5.03125 7.359375 -4.519531 7.359375 -3.96875 Z M 6.765625 -3.75 C 6.796875 -4.363281 6.6875 -4.882812 6.4375 -5.3125 C 6.195312 -5.75 5.863281 -6.070312 5.4375 -6.28125 C 5.019531 -6.488281 4.566406 -6.59375 4.078125 -6.59375 C 3.585938 -6.59375 3.132812 -6.488281 2.71875 -6.28125 C 2.300781 -6.070312 1.960938 -5.75 1.703125 -5.3125 C 1.441406 -4.882812 1.300781 -4.363281 1.28125 -3.75 Z M 6.765625 -3.75 "/></g></g></g><g fill="#ffffff" fill-opacity="1"><g transform="translate(253.659991, 219.638774)"><g><path d="M 1.921875 -6.484375 L 1.921875 -1.859375 C 1.921875 -1.347656 2.015625 -0.992188 2.203125 -0.796875 C 2.390625 -0.609375 2.722656 -0.515625 3.203125 -0.515625 L 3.984375 -0.515625 L 3.984375 0 L 3.109375 0 C 2.503906 0 2.054688 -0.140625 1.765625 -0.421875 C 1.484375 -0.710938 1.34375 -1.191406 1.34375 -1.859375 L 1.34375 -6.484375 L 0.28125 -6.484375 L 0.28125 -6.984375 L 1.34375 -6.984375 L 1.34375 -8.765625 L 1.921875 -8.765625 L 1.921875 -6.984375 L 3.984375 -6.984375 L 3.984375 -6.484375 Z M 1.921875 -6.484375 "/></g></g></g><g fill="#ffffff" fill-opacity="1"><g transform="translate(257.635394, 219.638774)"><g><path d="M 1.359375 -8.546875 C 1.210938 -8.546875 1.09375 -8.585938 1 -8.671875 C 0.90625 -8.765625 0.859375 -8.890625 0.859375 -9.046875 C 0.859375 -9.191406 0.90625 -9.3125 1 -9.40625 C 1.09375 -9.5 1.210938 -9.546875 1.359375 -9.546875 C 1.492188 -9.546875 1.609375 -9.5 1.703125 -9.40625 C 1.796875 -9.3125 1.84375 -9.191406 1.84375 -9.046875 C 1.84375 -8.890625 1.796875 -8.765625 1.703125 -8.671875 C 1.609375 -8.585938 1.492188 -8.546875 1.359375 -8.546875 Z M 1.640625 -6.984375 L 1.640625 0 L 1.0625 0 L 1.0625 -6.984375 Z M 1.640625 -6.984375 "/></g></g></g><g fill="#ffffff" fill-opacity="1"><g transform="translate(259.847971, 219.638774)"><g><path d="M 4.203125 -7.125 C 5.035156 -7.125 5.710938 -6.867188 6.234375 -6.359375 C 6.765625 -5.847656 7.03125 -5.09375 7.03125 -4.09375 L 7.03125 0 L 6.46875 0 L 6.46875 -4.0625 C 6.46875 -4.882812 6.253906 -5.515625 5.828125 -5.953125 C 5.410156 -6.398438 4.84375 -6.625 4.125 -6.625 C 3.363281 -6.625 2.757812 -6.382812 2.3125 -5.90625 C 1.863281 -5.425781 1.640625 -4.710938 1.640625 -3.765625 L 1.640625 0 L 1.0625 0 L 1.0625 -6.984375 L 1.640625 -6.984375 L 1.640625 -5.515625 C 1.835938 -6.035156 2.164062 -6.429688 2.625 -6.703125 C 3.082031 -6.984375 3.609375 -7.125 4.203125 -7.125 Z M 4.203125 -7.125 "/></g></g></g><g fill="#ffffff" fill-opacity="1"><g transform="translate(267.37475, 219.638774)"><g><path d="M 4.0625 -7.078125 C 4.800781 -7.078125 5.425781 -6.898438 5.9375 -6.546875 C 6.457031 -6.191406 6.820312 -5.734375 7.03125 -5.171875 L 7.03125 -6.984375 L 7.609375 -6.984375 L 7.609375 0.21875 C 7.609375 0.863281 7.46875 1.425781 7.1875 1.90625 C 6.90625 2.394531 6.519531 2.769531 6.03125 3.03125 C 5.550781 3.289062 5.015625 3.421875 4.421875 3.421875 C 3.546875 3.421875 2.820312 3.207031 2.25 2.78125 C 1.675781 2.363281 1.300781 1.800781 1.125 1.09375 L 1.703125 1.09375 C 1.867188 1.65625 2.1875 2.097656 2.65625 2.421875 C 3.132812 2.753906 3.722656 2.921875 4.421875 2.921875 C 4.910156 2.921875 5.351562 2.8125 5.75 2.59375 C 6.144531 2.375 6.457031 2.0625 6.6875 1.65625 C 6.914062 1.25 7.03125 0.769531 7.03125 0.21875 L 7.03125 -1.828125 C 6.820312 -1.265625 6.457031 -0.800781 5.9375 -0.4375 C 5.414062 -0.0703125 4.789062 0.109375 4.0625 0.109375 C 3.414062 0.109375 2.835938 -0.0351562 2.328125 -0.328125 C 1.816406 -0.628906 1.414062 -1.050781 1.125 -1.59375 C 0.832031 -2.144531 0.6875 -2.78125 0.6875 -3.5 C 0.6875 -4.21875 0.832031 -4.847656 1.125 -5.390625 C 1.414062 -5.929688 1.816406 -6.347656 2.328125 -6.640625 C 2.835938 -6.929688 3.414062 -7.078125 4.0625 -7.078125 Z M 7.03125 -3.5 C 7.03125 -4.113281 6.898438 -4.648438 6.640625 -5.109375 C 6.390625 -5.578125 6.046875 -5.9375 5.609375 -6.1875 C 5.171875 -6.445312 4.679688 -6.578125 4.140625 -6.578125 C 3.578125 -6.578125 3.082031 -6.453125 2.65625 -6.203125 C 2.226562 -5.960938 1.890625 -5.609375 1.640625 -5.140625 C 1.398438 -4.679688 1.28125 -4.132812 1.28125 -3.5 C 1.28125 -2.863281 1.398438 -2.3125 1.640625 -1.84375 C 1.890625 -1.382812 2.226562 -1.03125 2.65625 -0.78125 C 3.09375 -0.53125 3.585938 -0.40625 4.140625 -0.40625 C 4.679688 -0.40625 5.171875 -0.53125 5.609375 -0.78125 C 6.054688 -1.039062 6.40625 -1.40625 6.65625 -1.875 C 6.90625 -2.34375 7.03125 -2.882812 7.03125 -3.5 Z M 7.03125 -3.5 "/></g></g></g></svg>