<svg xmlns="http://www.w3.org/2000/svg" xmlns:xlink="http://www.w3.org/1999/xlink" width="500" zoomAndPan="magnify" viewBox="0 0 375 374.999991" height="500" preserveAspectRatio="xMidYMid meet" version="1.0"><defs><g/><clipPath id="1a89bf9695"><path d="M 276 80 L 298 80 L 298 102 L 276 102 Z M 276 80 " clip-rule="nonzero"/></clipPath><clipPath id="1236c3bde5"><path d="M 271.933594 84.109375 L 286.804688 70.367188 L 307.164062 92.398438 L 292.292969 106.140625 Z M 271.933594 84.109375 " clip-rule="nonzero"/></clipPath><clipPath id="5ae168b77d"><path d="M 271.933594 84.109375 L 286.804688 70.367188 L 307.164062 92.398438 L 292.292969 106.140625 Z M 271.933594 84.109375 " clip-rule="nonzero"/></clipPath><clipPath id="5a6ffbe9f6"><path d="M 286 71 L 308 71 L 308 93 L 286 93 Z M 286 71 " clip-rule="nonzero"/></clipPath><clipPath id="711190d09f"><path d="M 281.964844 74.804688 L 296.835938 61.0625 L 317.199219 83.09375 L 302.328125 96.835938 Z M 281.964844 74.804688 " clip-rule="nonzero"/></clipPath><clipPath id="2fcc7e0b6c"><path d="M 281.964844 74.804688 L 296.835938 61.0625 L 317.199219 83.09375 L 302.328125 96.835938 Z M 281.964844 74.804688 " clip-rule="nonzero"/></clipPath></defs><g clip-path="url(#1a89bf9695)"><g clip-path="url(#1236c3bde5)"><g clip-path="url(#5ae168b77d)"><path fill="#18cb96" d="M 297.136719 81.652344 L 279.113281 80.851562 C 275.632812 80.695312 275.046875 87.476562 279.171875 87.589844 L 290.386719 87.894531 L 289.527344 99.179688 C 289.269531 102.617188 295.96875 102.980469 296.160156 99.484375 Z M 297.136719 81.652344 " fill-opacity="1" fill-rule="nonzero"/></g></g></g><g fill="#373643" fill-opacity="1"><g transform="translate(60.332458, 116.361064)"><g><path d="M 20.8125 -22.78125 C 21.59375 -22.78125 22.210938 -22.5625 22.671875 -22.125 C 23.140625 -21.695312 23.375 -21.140625 23.375 -20.453125 L 23.375 -2.328125 C 23.375 -1.640625 23.140625 -1.078125 22.671875 -0.640625 C 22.210938 -0.210938 21.59375 0 20.8125 0 C 20.070312 0 19.488281 -0.171875 19.0625 -0.515625 C 18.644531 -0.859375 18.394531 -1.3125 18.3125 -1.875 C 17.289062 -1.070312 16.15625 -0.484375 14.90625 -0.109375 C 13.65625 0.265625 12.460938 0.453125 11.328125 0.453125 C 9.179688 0.453125 7.320312 -0.0351562 5.75 -1.015625 C 4.1875 -2.003906 2.984375 -3.394531 2.140625 -5.1875 C 1.304688 -6.976562 0.890625 -9.066406 0.890625 -11.453125 C 0.890625 -13.785156 1.351562 -15.832031 2.28125 -17.59375 C 3.207031 -19.351562 4.5 -20.734375 6.15625 -21.734375 C 7.8125 -22.734375 9.726562 -23.234375 11.90625 -23.234375 C 12.863281 -23.234375 13.921875 -23.050781 15.078125 -22.6875 C 16.242188 -22.332031 17.320312 -21.769531 18.3125 -21 C 18.425781 -21.53125 18.691406 -21.957031 19.109375 -22.28125 C 19.523438 -22.613281 20.09375 -22.78125 20.8125 -22.78125 Z M 11.859375 -4.078125 C 13.171875 -4.078125 14.4375 -4.363281 15.65625 -4.9375 C 16.882812 -5.519531 17.753906 -6.378906 18.265625 -7.515625 L 18.265625 -15.265625 C 17.691406 -16.367188 16.835938 -17.21875 15.703125 -17.8125 C 14.578125 -18.414062 13.429688 -18.71875 12.265625 -18.71875 C 10.390625 -18.71875 8.875 -18.03125 7.71875 -16.65625 C 6.570312 -15.28125 6 -13.535156 6 -11.421875 C 6 -9.210938 6.535156 -7.4375 7.609375 -6.09375 C 8.679688 -4.75 10.097656 -4.078125 11.859375 -4.078125 Z M 11.859375 -4.078125 "/></g></g></g><g fill="#373643" fill-opacity="1"><g transform="translate(86.199843, 116.361064)"><g><path d="M 20.859375 -28.96875 C 21.484375 -28.96875 22.070312 -28.785156 22.625 -28.421875 C 23.175781 -28.066406 23.453125 -27.5 23.453125 -26.71875 L 23.453125 -2.28125 C 23.453125 -0.757812 22.585938 0 20.859375 0 C 19.304688 0 18.5 -0.71875 18.4375 -2.15625 C 17.488281 -1.3125 16.414062 -0.671875 15.21875 -0.234375 C 14.03125 0.191406 12.894531 0.40625 11.8125 0.40625 C 9.570312 0.40625 7.640625 -0.0976562 6.015625 -1.109375 C 4.390625 -2.128906 3.144531 -3.550781 2.28125 -5.375 C 1.414062 -7.195312 0.984375 -9.285156 0.984375 -11.640625 C 0.984375 -13.910156 1.445312 -15.910156 2.375 -17.640625 C 3.300781 -19.367188 4.59375 -20.734375 6.25 -21.734375 C 7.90625 -22.734375 9.820312 -23.234375 12 -23.234375 C 12.976562 -23.234375 14.035156 -23.035156 15.171875 -22.640625 C 16.304688 -22.253906 17.367188 -21.675781 18.359375 -20.90625 L 18.359375 -26.71875 C 18.359375 -27.5 18.617188 -28.066406 19.140625 -28.421875 C 19.660156 -28.785156 20.234375 -28.96875 20.859375 -28.96875 Z M 11.953125 -4.125 C 13.441406 -4.125 14.789062 -4.457031 16 -5.125 C 17.207031 -5.800781 18.019531 -6.78125 18.4375 -8.0625 L 18.40625 -14.953125 C 17.894531 -16.171875 17.0625 -17.101562 15.90625 -17.75 C 14.757812 -18.394531 13.578125 -18.71875 12.359375 -18.71875 C 10.472656 -18.71875 8.957031 -18.035156 7.8125 -16.671875 C 6.664062 -15.316406 6.09375 -13.625 6.09375 -11.59375 C 6.09375 -9.414062 6.628906 -7.625 7.703125 -6.21875 C 8.773438 -4.820312 10.191406 -4.125 11.953125 -4.125 Z M 11.953125 -4.125 "/></g></g></g><g fill="#373643" fill-opacity="1"><g transform="translate(112.111986, 116.361064)"><g><path d="M 20.8125 -22.78125 C 21.59375 -22.78125 22.210938 -22.5625 22.671875 -22.125 C 23.140625 -21.695312 23.375 -21.140625 23.375 -20.453125 L 23.375 -2.328125 C 23.375 -1.640625 23.140625 -1.078125 22.671875 -0.640625 C 22.210938 -0.210938 21.59375 0 20.8125 0 C 20.070312 0 19.488281 -0.171875 19.0625 -0.515625 C 18.644531 -0.859375 18.394531 -1.3125 18.3125 -1.875 C 17.289062 -1.070312 16.15625 -0.484375 14.90625 -0.109375 C 13.65625 0.265625 12.460938 0.453125 11.328125 0.453125 C 9.179688 0.453125 7.320312 -0.0351562 5.75 -1.015625 C 4.1875 -2.003906 2.984375 -3.394531 2.140625 -5.1875 C 1.304688 -6.976562 0.890625 -9.066406 0.890625 -11.453125 C 0.890625 -13.785156 1.351562 -15.832031 2.28125 -17.59375 C 3.207031 -19.351562 4.5 -20.734375 6.15625 -21.734375 C 7.8125 -22.734375 9.726562 -23.234375 11.90625 -23.234375 C 12.863281 -23.234375 13.921875 -23.050781 15.078125 -22.6875 C 16.242188 -22.332031 17.320312 -21.769531 18.3125 -21 C 18.425781 -21.53125 18.691406 -21.957031 19.109375 -22.28125 C 19.523438 -22.613281 20.09375 -22.78125 20.8125 -22.78125 Z M 11.859375 -4.078125 C 13.171875 -4.078125 14.4375 -4.363281 15.65625 -4.9375 C 16.882812 -5.519531 17.753906 -6.378906 18.265625 -7.515625 L 18.265625 -15.265625 C 17.691406 -16.367188 16.835938 -17.21875 15.703125 -17.8125 C 14.578125 -18.414062 13.429688 -18.71875 12.265625 -18.71875 C 10.390625 -18.71875 8.875 -18.03125 7.71875 -16.65625 C 6.570312 -15.28125 6 -13.535156 6 -11.421875 C 6 -9.210938 6.535156 -7.4375 7.609375 -6.09375 C 8.679688 -4.75 10.097656 -4.078125 11.859375 -4.078125 Z M 11.859375 -4.078125 "/></g></g></g><g fill="#373643" fill-opacity="1"><g transform="translate(137.979368, 116.361064)"><g><path d="M 13.703125 -23.234375 C 15.910156 -23.234375 17.84375 -22.75 19.5 -21.78125 C 21.15625 -20.8125 22.4375 -19.453125 23.34375 -17.703125 C 24.25 -15.960938 24.703125 -13.941406 24.703125 -11.640625 C 24.703125 -9.253906 24.25 -7.148438 23.34375 -5.328125 C 22.4375 -3.503906 21.175781 -2.082031 19.5625 -1.0625 C 17.945312 -0.0507812 16.050781 0.453125 13.875 0.453125 C 12.863281 0.453125 11.757812 0.273438 10.5625 -0.078125 C 9.375 -0.441406 8.285156 -0.953125 7.296875 -1.609375 L 7.296875 5.234375 C 7.296875 5.984375 7.035156 6.550781 6.515625 6.9375 C 5.992188 7.320312 5.421875 7.515625 4.796875 7.515625 C 4.140625 7.515625 3.546875 7.320312 3.015625 6.9375 C 2.492188 6.550781 2.234375 5.984375 2.234375 5.234375 L 2.234375 -20.5 C 2.234375 -21.21875 2.460938 -21.773438 2.921875 -22.171875 C 3.390625 -22.578125 4.023438 -22.78125 4.828125 -22.78125 C 6.171875 -22.78125 6.960938 -22.257812 7.203125 -21.21875 C 8.253906 -21.96875 9.34375 -22.488281 10.46875 -22.78125 C 11.601562 -23.082031 12.679688 -23.234375 13.703125 -23.234375 Z M 13.75 -4.078125 C 15.507812 -4.078125 16.925781 -4.769531 18 -6.15625 C 19.070312 -7.539062 19.609375 -9.351562 19.609375 -11.59375 C 19.609375 -13.707031 19.03125 -15.421875 17.875 -16.734375 C 16.726562 -18.054688 15.21875 -18.71875 13.34375 -18.71875 C 12.144531 -18.71875 10.976562 -18.410156 9.84375 -17.796875 C 8.707031 -17.179688 7.859375 -16.304688 7.296875 -15.171875 L 7.296875 -7.75 C 7.773438 -6.582031 8.625 -5.675781 9.84375 -5.03125 C 11.070312 -4.394531 12.375 -4.078125 13.75 -4.078125 Z M 13.75 -4.078125 "/></g></g></g><g fill="#373643" fill-opacity="1"><g transform="translate(164.025776, 116.361064)"><g><path d="M 12.3125 -4.25 C 13 -4.632812 13.617188 -4.769531 14.171875 -4.65625 C 14.722656 -4.539062 15.171875 -4.28125 15.515625 -3.875 C 15.859375 -3.46875 16.03125 -3 16.03125 -2.46875 C 16.03125 -2.070312 15.910156 -1.679688 15.671875 -1.296875 C 15.429688 -0.910156 15.054688 -0.582031 14.546875 -0.3125 C 13.890625 0.0390625 13.289062 0.253906 12.75 0.328125 C 12.21875 0.410156 11.59375 0.453125 10.875 0.453125 C 8.9375 0.453125 7.441406 0.0507812 6.390625 -0.75 C 5.347656 -1.5625 4.632812 -2.609375 4.25 -3.890625 C 3.863281 -5.171875 3.671875 -6.53125 3.671875 -7.96875 L 3.671875 -18.53125 L 1.96875 -18.53125 C 1.132812 -18.53125 0.515625 -18.753906 0.109375 -19.203125 C -0.296875 -19.648438 -0.5 -20.128906 -0.5 -20.640625 C -0.5 -21.171875 -0.289062 -21.660156 0.125 -22.109375 C 0.550781 -22.554688 1.164062 -22.78125 1.96875 -22.78125 L 3.671875 -22.78125 L 3.671875 -26.640625 C 3.671875 -27.410156 3.921875 -27.988281 4.421875 -28.375 C 4.929688 -28.769531 5.515625 -28.96875 6.171875 -28.96875 C 6.804688 -28.96875 7.390625 -28.769531 7.921875 -28.375 C 8.460938 -27.988281 8.734375 -27.410156 8.734375 -26.640625 L 8.734375 -22.78125 L 12.21875 -22.78125 C 13 -22.78125 13.597656 -22.554688 14.015625 -22.109375 C 14.429688 -21.660156 14.640625 -21.171875 14.640625 -20.640625 C 14.640625 -20.097656 14.429688 -19.609375 14.015625 -19.171875 C 13.597656 -18.742188 13 -18.53125 12.21875 -18.53125 L 8.734375 -18.53125 L 8.734375 -7.96875 C 8.734375 -7.3125 8.773438 -6.675781 8.859375 -6.0625 C 8.953125 -5.445312 9.15625 -4.9375 9.46875 -4.53125 C 9.78125 -4.132812 10.25 -3.9375 10.875 -3.9375 C 11.113281 -3.9375 11.375 -3.972656 11.65625 -4.046875 C 11.945312 -4.117188 12.164062 -4.1875 12.3125 -4.25 Z M 12.3125 -4.25 "/></g></g></g><g fill="#373643" fill-opacity="1"><g transform="translate(179.555018, 116.361064)"><g><path d="M 6.71875 -26.140625 C 6.71875 -25.398438 6.441406 -24.84375 5.890625 -24.46875 C 5.335938 -24.09375 4.75 -23.90625 4.125 -23.90625 C 3.46875 -23.90625 2.867188 -24.09375 2.328125 -24.46875 C 1.785156 -24.84375 1.515625 -25.398438 1.515625 -26.140625 L 1.515625 -26.71875 C 1.515625 -27.5 1.785156 -28.066406 2.328125 -28.421875 C 2.867188 -28.785156 3.46875 -28.96875 4.125 -28.96875 C 4.75 -28.96875 5.335938 -28.785156 5.890625 -28.421875 C 6.441406 -28.066406 6.71875 -27.5 6.71875 -26.71875 Z M 1.5625 -20.59375 C 1.5625 -21.3125 1.835938 -21.851562 2.390625 -22.21875 C 2.941406 -22.59375 3.519531 -22.78125 4.125 -22.78125 C 4.75 -22.78125 5.328125 -22.59375 5.859375 -22.21875 C 6.398438 -21.851562 6.671875 -21.328125 6.671875 -20.640625 L 6.671875 -2.1875 C 6.671875 -1.445312 6.398438 -0.894531 5.859375 -0.53125 C 5.328125 -0.175781 4.75 0 4.125 0 C 3.519531 0 2.941406 -0.175781 2.390625 -0.53125 C 1.835938 -0.894531 1.5625 -1.445312 1.5625 -2.1875 Z M 1.5625 -20.59375 "/></g></g></g><g fill="#373643" fill-opacity="1"><g transform="translate(186.894297, 116.361064)"><g><path d="M 32.765625 -23.234375 C 34.859375 -23.234375 36.632812 -22.773438 38.09375 -21.859375 C 39.5625 -20.953125 40.679688 -19.6875 41.453125 -18.0625 C 42.222656 -16.4375 42.609375 -14.550781 42.609375 -12.40625 L 42.609375 -2.328125 C 42.609375 -1.640625 42.390625 -1.078125 41.953125 -0.640625 C 41.523438 -0.210938 40.894531 0 40.0625 0 C 39.320312 0 38.710938 -0.210938 38.234375 -0.640625 C 37.753906 -1.078125 37.515625 -1.640625 37.515625 -2.328125 L 37.515625 -12.484375 C 37.515625 -14.335938 37.070312 -15.84375 36.1875 -17 C 35.3125 -18.164062 33.929688 -18.75 32.046875 -18.75 C 31.097656 -18.75 30.09375 -18.453125 29.03125 -17.859375 C 27.96875 -17.265625 27.070312 -16.398438 26.34375 -15.265625 C 25.613281 -14.128906 25.25 -12.742188 25.25 -11.109375 L 25.25 -2.328125 C 25.25 -1.640625 25.03125 -1.078125 24.59375 -0.640625 C 24.164062 -0.210938 23.546875 0 22.734375 0 C 21.992188 0 21.375 -0.210938 20.875 -0.640625 C 20.382812 -1.078125 20.140625 -1.640625 20.140625 -2.328125 L 20.140625 -12.484375 C 20.140625 -14.335938 19.695312 -15.84375 18.8125 -17 C 17.9375 -18.164062 16.5625 -18.75 14.6875 -18.75 C 14.113281 -18.75 13.453125 -18.59375 12.703125 -18.28125 C 11.960938 -17.96875 11.234375 -17.5 10.515625 -16.875 C 9.804688 -16.25 9.21875 -15.457031 8.75 -14.5 C 8.289062 -13.550781 8.0625 -12.421875 8.0625 -11.109375 L 8.0625 -2.234375 C 8.0625 -1.492188 7.789062 -0.9375 7.25 -0.5625 C 6.71875 -0.1875 6.132812 0 5.5 0 C 4.84375 0 4.257812 -0.1875 3.75 -0.5625 C 3.25 -0.9375 3 -1.492188 3 -2.234375 L 3 -20.5 C 3 -21.125 3.242188 -21.660156 3.734375 -22.109375 C 4.234375 -22.554688 4.820312 -22.78125 5.5 -22.78125 C 6.28125 -22.78125 6.898438 -22.554688 7.359375 -22.109375 C 7.828125 -21.660156 8.0625 -21.125 8.0625 -20.5 L 8.0625 -20.375 C 9.28125 -21.53125 10.53125 -22.296875 11.8125 -22.671875 C 13.101562 -23.046875 14.3125 -23.234375 15.4375 -23.234375 C 17.320312 -23.234375 18.953125 -22.851562 20.328125 -22.09375 C 21.703125 -21.332031 22.789062 -20.296875 23.59375 -18.984375 C 24.519531 -20.117188 25.519531 -20.988281 26.59375 -21.59375 C 27.664062 -22.207031 28.738281 -22.632812 29.8125 -22.875 C 30.882812 -23.113281 31.867188 -23.234375 32.765625 -23.234375 Z M 32.765625 -23.234375 "/></g></g></g><g fill="#373643" fill-opacity="1"><g transform="translate(232.990455, 116.361064)"><g><path d="M 6.71875 -26.140625 C 6.71875 -25.398438 6.441406 -24.84375 5.890625 -24.46875 C 5.335938 -24.09375 4.75 -23.90625 4.125 -23.90625 C 3.46875 -23.90625 2.867188 -24.09375 2.328125 -24.46875 C 1.785156 -24.84375 1.515625 -25.398438 1.515625 -26.140625 L 1.515625 -26.71875 C 1.515625 -27.5 1.785156 -28.066406 2.328125 -28.421875 C 2.867188 -28.785156 3.46875 -28.96875 4.125 -28.96875 C 4.75 -28.96875 5.335938 -28.785156 5.890625 -28.421875 C 6.441406 -28.066406 6.71875 -27.5 6.71875 -26.71875 Z M 1.5625 -20.59375 C 1.5625 -21.3125 1.835938 -21.851562 2.390625 -22.21875 C 2.941406 -22.59375 3.519531 -22.78125 4.125 -22.78125 C 4.75 -22.78125 5.328125 -22.59375 5.859375 -22.21875 C 6.398438 -21.851562 6.671875 -21.328125 6.671875 -20.640625 L 6.671875 -2.1875 C 6.671875 -1.445312 6.398438 -0.894531 5.859375 -0.53125 C 5.328125 -0.175781 4.75 0 4.125 0 C 3.519531 0 2.941406 -0.175781 2.390625 -0.53125 C 1.835938 -0.894531 1.5625 -1.445312 1.5625 -2.1875 Z M 1.5625 -20.59375 "/></g></g></g><g fill="#373643" fill-opacity="1"><g transform="translate(240.329734, 116.361064)"><g><path d="M 7.75 -4.4375 L 19.0625 -4.484375 C 19.9375 -4.484375 20.585938 -4.242188 21.015625 -3.765625 C 21.453125 -3.285156 21.671875 -2.757812 21.671875 -2.1875 C 21.671875 -1.625 21.453125 -1.117188 21.015625 -0.671875 C 20.585938 -0.222656 19.9375 0 19.0625 0 L 2.859375 0 C 1.992188 0 1.328125 -0.222656 0.859375 -0.671875 C 0.398438 -1.117188 0.171875 -1.625 0.171875 -2.1875 C 0.171875 -2.820312 0.457031 -3.421875 1.03125 -3.984375 L 13.78125 -18.265625 L 3.359375 -18.21875 C 2.554688 -18.21875 1.9375 -18.445312 1.5 -18.90625 C 1.0625 -19.375 0.84375 -19.890625 0.84375 -20.453125 C 0.84375 -21.054688 1.0625 -21.59375 1.5 -22.0625 C 1.9375 -22.539062 2.554688 -22.78125 3.359375 -22.78125 L 18.75 -22.78125 C 19.5625 -22.78125 20.210938 -22.535156 20.703125 -22.046875 C 21.191406 -21.554688 21.4375 -21.007812 21.4375 -20.40625 C 21.4375 -19.875 21.171875 -19.3125 20.640625 -18.71875 Z M 7.75 -4.4375 "/></g></g></g><g fill="#373643" fill-opacity="1"><g transform="translate(262.303522, 116.361064)"><g><path d="M 12.796875 -3.984375 C 13.660156 -3.984375 14.507812 -4.101562 15.34375 -4.34375 C 16.1875 -4.582031 16.96875 -4.984375 17.6875 -5.546875 C 18.375 -6.171875 19.046875 -6.460938 19.703125 -6.421875 C 20.359375 -6.378906 20.898438 -6.140625 21.328125 -5.703125 C 21.765625 -5.273438 21.984375 -4.738281 21.984375 -4.09375 C 21.984375 -3.457031 21.671875 -2.835938 21.046875 -2.234375 C 19.992188 -1.222656 18.75 -0.515625 17.3125 -0.109375 C 15.882812 0.296875 14.425781 0.484375 12.9375 0.453125 C 10.613281 0.453125 8.5625 -0.0234375 6.78125 -0.984375 C 5.007812 -1.941406 3.625 -3.269531 2.625 -4.96875 C 1.625 -6.664062 1.125 -8.632812 1.125 -10.875 C 1.125 -13.320312 1.597656 -15.46875 2.546875 -17.3125 C 3.503906 -19.164062 4.851562 -20.613281 6.59375 -21.65625 C 8.34375 -22.707031 10.410156 -23.234375 12.796875 -23.234375 C 15.191406 -23.234375 17.222656 -22.75 18.890625 -21.78125 C 20.554688 -20.8125 21.832031 -19.453125 22.71875 -17.703125 C 23.601562 -15.960938 24.046875 -13.925781 24.046875 -11.59375 C 24.046875 -10.84375 23.894531 -10.207031 23.59375 -9.6875 C 23.289062 -9.164062 22.5 -8.90625 21.21875 -8.90625 L 6.3125 -8.90625 C 6.726562 -7.445312 7.519531 -6.257812 8.6875 -5.34375 C 9.851562 -4.4375 11.222656 -3.984375 12.796875 -3.984375 Z M 12.84375 -18.796875 C 11.113281 -18.796875 9.664062 -18.25 8.5 -17.15625 C 7.34375 -16.070312 6.597656 -14.648438 6.265625 -12.890625 L 19.296875 -12.890625 C 19.140625 -14.648438 18.554688 -16.070312 17.546875 -17.15625 C 16.535156 -18.25 14.96875 -18.796875 12.84375 -18.796875 Z M 12.84375 -18.796875 "/></g></g></g><g fill="#373643" fill-opacity="1"><g transform="translate(13.507359, 145.884703)"><g><path d="M 1.078125 -5.4375 C 1.078125 -6.570312 1.300781 -7.554688 1.75 -8.390625 C 2.195312 -9.234375 2.816406 -9.878906 3.609375 -10.328125 C 4.398438 -10.773438 5.3125 -11 6.34375 -11 C 7.695312 -11 8.8125 -10.65625 9.6875 -9.96875 C 10.5625 -9.289062 11.101562 -8.378906 11.3125 -7.234375 L 10.375 -7.234375 C 10.207031 -8.171875 9.757812 -8.90625 9.03125 -9.4375 C 8.300781 -9.96875 7.40625 -10.234375 6.34375 -10.234375 C 5.539062 -10.234375 4.8125 -10.054688 4.15625 -9.703125 C 3.507812 -9.359375 2.988281 -8.820312 2.59375 -8.09375 C 2.195312 -7.363281 2 -6.476562 2 -5.4375 C 2 -4.382812 2.195312 -3.5 2.59375 -2.78125 C 2.988281 -2.0625 3.507812 -1.519531 4.15625 -1.15625 C 4.8125 -0.800781 5.539062 -0.625 6.34375 -0.625 C 7.40625 -0.625 8.300781 -0.890625 9.03125 -1.421875 C 9.757812 -1.953125 10.207031 -2.6875 10.375 -3.625 L 11.3125 -3.625 C 11.101562 -2.488281 10.554688 -1.570312 9.671875 -0.875 C 8.796875 -0.1875 7.6875 0.15625 6.34375 0.15625 C 5.3125 0.15625 4.398438 -0.0664062 3.609375 -0.515625 C 2.816406 -0.972656 2.195312 -1.625 1.75 -2.46875 C 1.300781 -3.3125 1.078125 -4.300781 1.078125 -5.4375 Z M 1.078125 -5.4375 "/></g></g></g><g fill="#373643" fill-opacity="1"><g transform="translate(25.162463, 145.884703)"><g><path d="M 6.421875 0.15625 C 5.410156 0.15625 4.492188 -0.0664062 3.671875 -0.515625 C 2.859375 -0.972656 2.222656 -1.625 1.765625 -2.46875 C 1.304688 -3.3125 1.078125 -4.300781 1.078125 -5.4375 C 1.078125 -6.5625 1.3125 -7.546875 1.78125 -8.390625 C 2.25 -9.234375 2.890625 -9.878906 3.703125 -10.328125 C 4.523438 -10.773438 5.441406 -11 6.453125 -11 C 7.472656 -11 8.390625 -10.773438 9.203125 -10.328125 C 10.015625 -9.878906 10.648438 -9.234375 11.109375 -8.390625 C 11.566406 -7.554688 11.796875 -6.570312 11.796875 -5.4375 C 11.796875 -4.300781 11.5625 -3.3125 11.09375 -2.46875 C 10.632812 -1.625 9.992188 -0.972656 9.171875 -0.515625 C 8.347656 -0.0664062 7.429688 0.15625 6.421875 0.15625 Z M 6.421875 -0.640625 C 7.203125 -0.640625 7.9375 -0.816406 8.625 -1.171875 C 9.3125 -1.523438 9.863281 -2.0625 10.28125 -2.78125 C 10.695312 -3.5 10.90625 -4.382812 10.90625 -5.4375 C 10.90625 -6.476562 10.695312 -7.359375 10.28125 -8.078125 C 9.863281 -8.796875 9.316406 -9.332031 8.640625 -9.6875 C 7.960938 -10.039062 7.226562 -10.21875 6.4375 -10.21875 C 5.65625 -10.21875 4.925781 -10.039062 4.25 -9.6875 C 3.570312 -9.332031 3.023438 -8.796875 2.609375 -8.078125 C 2.203125 -7.359375 2 -6.476562 2 -5.4375 C 2 -4.382812 2.203125 -3.5 2.609375 -2.78125 C 3.015625 -2.0625 3.550781 -1.523438 4.21875 -1.171875 C 4.894531 -0.816406 5.628906 -0.640625 6.421875 -0.640625 Z M 6.421875 -0.640625 "/></g></g></g><g fill="#373643" fill-opacity="1"><g transform="translate(37.297384, 145.884703)"><g><path d="M 14.484375 -11.078125 C 15.722656 -11.078125 16.734375 -10.679688 17.515625 -9.890625 C 18.304688 -9.097656 18.703125 -7.921875 18.703125 -6.359375 L 18.703125 0 L 17.8125 0 L 17.8125 -6.296875 C 17.8125 -7.585938 17.5 -8.578125 16.875 -9.265625 C 16.257812 -9.953125 15.414062 -10.296875 14.34375 -10.296875 C 13.21875 -10.296875 12.316406 -9.910156 11.640625 -9.140625 C 10.960938 -8.367188 10.625 -7.25 10.625 -5.78125 L 10.625 0 L 9.734375 0 L 9.734375 -6.296875 C 9.734375 -7.585938 9.421875 -8.578125 8.796875 -9.265625 C 8.179688 -9.953125 7.335938 -10.296875 6.265625 -10.296875 C 5.140625 -10.296875 4.238281 -9.910156 3.5625 -9.140625 C 2.882812 -8.367188 2.546875 -7.25 2.546875 -5.78125 L 2.546875 0 L 1.640625 0 L 1.640625 -10.859375 L 2.546875 -10.859375 L 2.546875 -8.5 C 2.847656 -9.351562 3.34375 -9.992188 4.03125 -10.421875 C 4.71875 -10.859375 5.507812 -11.078125 6.40625 -11.078125 C 7.382812 -11.078125 8.226562 -10.820312 8.9375 -10.3125 C 9.65625 -9.800781 10.148438 -9.046875 10.421875 -8.046875 C 10.671875 -9.046875 11.160156 -9.800781 11.890625 -10.3125 C 12.628906 -10.820312 13.492188 -11.078125 14.484375 -11.078125 Z M 14.484375 -11.078125 "/></g></g></g><g fill="#373643" fill-opacity="1"><g transform="translate(56.789404, 145.884703)"><g><path d="M 2.546875 -8 C 2.878906 -8.875 3.441406 -9.59375 4.234375 -10.15625 C 5.035156 -10.71875 6.003906 -11 7.140625 -11 C 8.148438 -11 9.050781 -10.769531 9.84375 -10.3125 C 10.644531 -9.863281 11.265625 -9.21875 11.703125 -8.375 C 12.148438 -7.539062 12.375 -6.5625 12.375 -5.4375 C 12.375 -4.320312 12.148438 -3.335938 11.703125 -2.484375 C 11.265625 -1.640625 10.644531 -0.988281 9.84375 -0.53125 C 9.050781 -0.0703125 8.148438 0.15625 7.140625 0.15625 C 6.003906 0.15625 5.03125 -0.117188 4.21875 -0.671875 C 3.414062 -1.234375 2.859375 -1.957031 2.546875 -2.84375 L 2.546875 0 L 1.640625 0 L 1.640625 -14.796875 L 2.546875 -14.796875 Z M 11.453125 -5.4375 C 11.453125 -6.425781 11.265625 -7.28125 10.890625 -8 C 10.523438 -8.71875 10.003906 -9.265625 9.328125 -9.640625 C 8.648438 -10.023438 7.875 -10.21875 7 -10.21875 C 6.15625 -10.21875 5.394531 -10.019531 4.71875 -9.625 C 4.039062 -9.238281 3.507812 -8.679688 3.125 -7.953125 C 2.738281 -7.222656 2.546875 -6.382812 2.546875 -5.4375 C 2.546875 -4.476562 2.738281 -3.632812 3.125 -2.90625 C 3.507812 -2.175781 4.039062 -1.613281 4.71875 -1.21875 C 5.394531 -0.832031 6.15625 -0.640625 7 -0.640625 C 7.875 -0.640625 8.648438 -0.832031 9.328125 -1.21875 C 10.003906 -1.601562 10.523438 -2.15625 10.890625 -2.875 C 11.265625 -3.59375 11.453125 -4.445312 11.453125 -5.4375 Z M 11.453125 -5.4375 "/></g></g></g><g fill="#373643" fill-opacity="1"><g transform="translate(69.484099, 145.884703)"><g><path d="M 2.09375 -13.28125 C 1.882812 -13.28125 1.707031 -13.347656 1.5625 -13.484375 C 1.414062 -13.628906 1.34375 -13.820312 1.34375 -14.0625 C 1.34375 -14.289062 1.414062 -14.476562 1.5625 -14.625 C 1.707031 -14.769531 1.882812 -14.84375 2.09375 -14.84375 C 2.3125 -14.84375 2.492188 -14.769531 2.640625 -14.625 C 2.785156 -14.476562 2.859375 -14.289062 2.859375 -14.0625 C 2.859375 -13.820312 2.785156 -13.628906 2.640625 -13.484375 C 2.492188 -13.347656 2.3125 -13.28125 2.09375 -13.28125 Z M 2.546875 -10.859375 L 2.546875 0 L 1.640625 0 L 1.640625 -10.859375 Z M 2.546875 -10.859375 "/></g></g></g><g fill="#373643" fill-opacity="1"><g transform="translate(72.922448, 145.884703)"><g><path d="M 6.546875 -11.078125 C 7.835938 -11.078125 8.890625 -10.679688 9.703125 -9.890625 C 10.515625 -9.097656 10.921875 -7.921875 10.921875 -6.359375 L 10.921875 0 L 10.046875 0 L 10.046875 -6.296875 C 10.046875 -7.585938 9.71875 -8.578125 9.0625 -9.265625 C 8.40625 -9.953125 7.519531 -10.296875 6.40625 -10.296875 C 5.226562 -10.296875 4.289062 -9.921875 3.59375 -9.171875 C 2.894531 -8.429688 2.546875 -7.328125 2.546875 -5.859375 L 2.546875 0 L 1.640625 0 L 1.640625 -10.859375 L 2.546875 -10.859375 L 2.546875 -8.5625 C 2.847656 -9.375 3.351562 -9.992188 4.0625 -10.421875 C 4.78125 -10.859375 5.609375 -11.078125 6.546875 -11.078125 Z M 6.546875 -11.078125 "/></g></g></g><g fill="#373643" fill-opacity="1"><g transform="translate(84.617536, 145.884703)"><g><path d="M 11.421875 -6.15625 C 11.421875 -5.675781 11.40625 -5.316406 11.375 -5.078125 L 2 -5.078125 C 2.03125 -4.109375 2.242188 -3.289062 2.640625 -2.625 C 3.035156 -1.957031 3.5625 -1.457031 4.21875 -1.125 C 4.875 -0.789062 5.585938 -0.625 6.359375 -0.625 C 7.421875 -0.625 8.3125 -0.882812 9.03125 -1.40625 C 9.757812 -1.9375 10.21875 -2.65625 10.40625 -3.5625 L 11.34375 -3.5625 C 11.125 -2.457031 10.570312 -1.5625 9.6875 -0.875 C 8.8125 -0.1875 7.703125 0.15625 6.359375 0.15625 C 5.347656 0.15625 4.441406 -0.0664062 3.640625 -0.515625 C 2.835938 -0.972656 2.207031 -1.625 1.75 -2.46875 C 1.300781 -3.3125 1.078125 -4.300781 1.078125 -5.4375 C 1.078125 -6.570312 1.300781 -7.554688 1.75 -8.390625 C 2.195312 -9.234375 2.816406 -9.878906 3.609375 -10.328125 C 4.410156 -10.773438 5.328125 -11 6.359375 -11 C 7.398438 -11 8.300781 -10.773438 9.0625 -10.328125 C 9.832031 -9.878906 10.414062 -9.285156 10.8125 -8.546875 C 11.21875 -7.804688 11.421875 -7.007812 11.421875 -6.15625 Z M 10.515625 -5.8125 C 10.554688 -6.78125 10.382812 -7.597656 10 -8.265625 C 9.625 -8.929688 9.109375 -9.425781 8.453125 -9.75 C 7.804688 -10.070312 7.101562 -10.234375 6.34375 -10.234375 C 5.582031 -10.234375 4.878906 -10.070312 4.234375 -9.75 C 3.585938 -9.425781 3.0625 -8.929688 2.65625 -8.265625 C 2.25 -7.597656 2.03125 -6.78125 2 -5.8125 Z M 10.515625 -5.8125 "/></g></g></g><g fill="#373643" fill-opacity="1"><g transform="translate(96.352611, 145.884703)"><g><path d="M 5.265625 0.15625 C 4.046875 0.15625 3.050781 -0.109375 2.28125 -0.640625 C 1.519531 -1.171875 1.09375 -1.929688 1 -2.921875 L 1.921875 -2.921875 C 1.984375 -2.210938 2.304688 -1.648438 2.890625 -1.234375 C 3.472656 -0.828125 4.265625 -0.625 5.265625 -0.625 C 6.085938 -0.625 6.738281 -0.832031 7.21875 -1.25 C 7.707031 -1.664062 7.953125 -2.179688 7.953125 -2.796875 C 7.953125 -3.222656 7.820312 -3.570312 7.5625 -3.84375 C 7.3125 -4.125 6.988281 -4.335938 6.59375 -4.484375 C 6.207031 -4.628906 5.679688 -4.785156 5.015625 -4.953125 C 4.210938 -5.171875 3.566406 -5.382812 3.078125 -5.59375 C 2.585938 -5.800781 2.164062 -6.109375 1.8125 -6.515625 C 1.46875 -6.929688 1.296875 -7.488281 1.296875 -8.1875 C 1.296875 -8.6875 1.445312 -9.148438 1.75 -9.578125 C 2.0625 -10.015625 2.488281 -10.359375 3.03125 -10.609375 C 3.582031 -10.867188 4.207031 -11 4.90625 -11 C 6.03125 -11 6.941406 -10.710938 7.640625 -10.140625 C 8.347656 -9.578125 8.726562 -8.796875 8.78125 -7.796875 L 7.875 -7.796875 C 7.832031 -8.515625 7.550781 -9.097656 7.03125 -9.546875 C 6.519531 -10.003906 5.800781 -10.234375 4.875 -10.234375 C 4.101562 -10.234375 3.460938 -10.035156 2.953125 -9.640625 C 2.453125 -9.242188 2.203125 -8.757812 2.203125 -8.1875 C 2.203125 -7.675781 2.34375 -7.265625 2.625 -6.953125 C 2.914062 -6.640625 3.269531 -6.398438 3.6875 -6.234375 C 4.101562 -6.066406 4.660156 -5.890625 5.359375 -5.703125 C 6.117188 -5.503906 6.726562 -5.304688 7.1875 -5.109375 C 7.644531 -4.910156 8.035156 -4.628906 8.359375 -4.265625 C 8.679688 -3.898438 8.84375 -3.410156 8.84375 -2.796875 C 8.84375 -2.234375 8.6875 -1.722656 8.375 -1.265625 C 8.070312 -0.816406 7.644531 -0.46875 7.09375 -0.21875 C 6.550781 0.03125 5.941406 0.15625 5.265625 0.15625 Z M 5.265625 0.15625 "/></g></g></g><g fill="#373643" fill-opacity="1"><g transform="translate(105.528695, 145.884703)"><g/></g></g><g fill="#373643" fill-opacity="1"><g transform="translate(110.406469, 145.884703)"><g><path d="M 1.078125 -5.4375 C 1.078125 -6.5625 1.300781 -7.539062 1.75 -8.375 C 2.195312 -9.21875 2.816406 -9.863281 3.609375 -10.3125 C 4.398438 -10.769531 5.300781 -11 6.3125 -11 C 7.425781 -11 8.390625 -10.722656 9.203125 -10.171875 C 10.015625 -9.617188 10.585938 -8.898438 10.921875 -8.015625 L 10.921875 -14.796875 L 11.8125 -14.796875 L 11.8125 0 L 10.921875 0 L 10.921875 -2.875 C 10.597656 -1.988281 10.035156 -1.257812 9.234375 -0.6875 C 8.441406 -0.125 7.46875 0.15625 6.3125 0.15625 C 5.300781 0.15625 4.398438 -0.0703125 3.609375 -0.53125 C 2.816406 -0.988281 2.195312 -1.640625 1.75 -2.484375 C 1.300781 -3.335938 1.078125 -4.320312 1.078125 -5.4375 Z M 10.921875 -5.4375 C 10.921875 -6.382812 10.722656 -7.222656 10.328125 -7.953125 C 9.929688 -8.679688 9.394531 -9.238281 8.71875 -9.625 C 8.039062 -10.019531 7.28125 -10.21875 6.4375 -10.21875 C 5.5625 -10.21875 4.789062 -10.023438 4.125 -9.640625 C 3.457031 -9.265625 2.9375 -8.71875 2.5625 -8 C 2.1875 -7.28125 2 -6.425781 2 -5.4375 C 2 -4.445312 2.1875 -3.59375 2.5625 -2.875 C 2.9375 -2.15625 3.457031 -1.601562 4.125 -1.21875 C 4.800781 -0.832031 5.570312 -0.640625 6.4375 -0.640625 C 7.28125 -0.640625 8.046875 -0.832031 8.734375 -1.21875 C 9.421875 -1.613281 9.957031 -2.175781 10.34375 -2.90625 C 10.726562 -3.632812 10.921875 -4.476562 10.921875 -5.4375 Z M 10.921875 -5.4375 "/></g></g></g><g fill="#373643" fill-opacity="1"><g transform="translate(123.101171, 145.884703)"><g><path d="M 1.078125 -5.4375 C 1.078125 -6.5625 1.300781 -7.539062 1.75 -8.375 C 2.195312 -9.21875 2.816406 -9.863281 3.609375 -10.3125 C 4.398438 -10.769531 5.300781 -11 6.3125 -11 C 7.46875 -11 8.441406 -10.71875 9.234375 -10.15625 C 10.035156 -9.59375 10.597656 -8.878906 10.921875 -8.015625 L 10.921875 -10.859375 L 11.8125 -10.859375 L 11.8125 0 L 10.921875 0 L 10.921875 -2.859375 C 10.597656 -1.984375 10.03125 -1.257812 9.21875 -0.6875 C 8.414062 -0.125 7.445312 0.15625 6.3125 0.15625 C 5.300781 0.15625 4.398438 -0.0703125 3.609375 -0.53125 C 2.816406 -0.988281 2.195312 -1.640625 1.75 -2.484375 C 1.300781 -3.335938 1.078125 -4.320312 1.078125 -5.4375 Z M 10.921875 -5.4375 C 10.921875 -6.382812 10.722656 -7.222656 10.328125 -7.953125 C 9.929688 -8.679688 9.394531 -9.238281 8.71875 -9.625 C 8.039062 -10.019531 7.28125 -10.21875 6.4375 -10.21875 C 5.5625 -10.21875 4.789062 -10.023438 4.125 -9.640625 C 3.457031 -9.265625 2.9375 -8.71875 2.5625 -8 C 2.1875 -7.28125 2 -6.425781 2 -5.4375 C 2 -4.445312 2.1875 -3.59375 2.5625 -2.875 C 2.9375 -2.15625 3.457031 -1.601562 4.125 -1.21875 C 4.800781 -0.832031 5.570312 -0.640625 6.4375 -0.640625 C 7.28125 -0.640625 8.046875 -0.832031 8.734375 -1.21875 C 9.421875 -1.613281 9.957031 -2.175781 10.34375 -2.90625 C 10.726562 -3.632812 10.921875 -4.476562 10.921875 -5.4375 Z M 10.921875 -5.4375 "/></g></g></g><g fill="#373643" fill-opacity="1"><g transform="translate(135.795873, 145.884703)"><g><path d="M 2.984375 -10.078125 L 2.984375 -2.90625 C 2.984375 -2.101562 3.128906 -1.550781 3.421875 -1.25 C 3.710938 -0.945312 4.234375 -0.796875 4.984375 -0.796875 L 6.203125 -0.796875 L 6.203125 0 L 4.84375 0 C 3.894531 0 3.195312 -0.222656 2.75 -0.671875 C 2.300781 -1.117188 2.078125 -1.863281 2.078125 -2.90625 L 2.078125 -10.078125 L 0.4375 -10.078125 L 0.4375 -10.859375 L 2.078125 -10.859375 L 2.078125 -13.625 L 2.984375 -13.625 L 2.984375 -10.859375 L 6.203125 -10.859375 L 6.203125 -10.078125 Z M 2.984375 -10.078125 "/></g></g></g><g fill="#373643" fill-opacity="1"><g transform="translate(141.973141, 145.884703)"><g><path d="M 1.078125 -5.4375 C 1.078125 -6.5625 1.300781 -7.539062 1.75 -8.375 C 2.195312 -9.21875 2.816406 -9.863281 3.609375 -10.3125 C 4.398438 -10.769531 5.300781 -11 6.3125 -11 C 7.46875 -11 8.441406 -10.71875 9.234375 -10.15625 C 10.035156 -9.59375 10.597656 -8.878906 10.921875 -8.015625 L 10.921875 -10.859375 L 11.8125 -10.859375 L 11.8125 0 L 10.921875 0 L 10.921875 -2.859375 C 10.597656 -1.984375 10.03125 -1.257812 9.21875 -0.6875 C 8.414062 -0.125 7.445312 0.15625 6.3125 0.15625 C 5.300781 0.15625 4.398438 -0.0703125 3.609375 -0.53125 C 2.816406 -0.988281 2.195312 -1.640625 1.75 -2.484375 C 1.300781 -3.335938 1.078125 -4.320312 1.078125 -5.4375 Z M 10.921875 -5.4375 C 10.921875 -6.382812 10.722656 -7.222656 10.328125 -7.953125 C 9.929688 -8.679688 9.394531 -9.238281 8.71875 -9.625 C 8.039062 -10.019531 7.28125 -10.21875 6.4375 -10.21875 C 5.5625 -10.21875 4.789062 -10.023438 4.125 -9.640625 C 3.457031 -9.265625 2.9375 -8.71875 2.5625 -8 C 2.1875 -7.28125 2 -6.425781 2 -5.4375 C 2 -4.445312 2.1875 -3.59375 2.5625 -2.875 C 2.9375 -2.15625 3.457031 -1.601562 4.125 -1.21875 C 4.800781 -0.832031 5.570312 -0.640625 6.4375 -0.640625 C 7.28125 -0.640625 8.046875 -0.832031 8.734375 -1.21875 C 9.421875 -1.613281 9.957031 -2.175781 10.34375 -2.90625 C 10.726562 -3.632812 10.921875 -4.476562 10.921875 -5.4375 Z M 10.921875 -5.4375 "/></g></g></g><g fill="#373643" fill-opacity="1"><g transform="translate(154.667843, 145.884703)"><g/></g></g><g fill="#373643" fill-opacity="1"><g transform="translate(159.545624, 145.884703)"><g><path d="M 5.265625 0.15625 C 4.046875 0.15625 3.050781 -0.109375 2.28125 -0.640625 C 1.519531 -1.171875 1.09375 -1.929688 1 -2.921875 L 1.921875 -2.921875 C 1.984375 -2.210938 2.304688 -1.648438 2.890625 -1.234375 C 3.472656 -0.828125 4.265625 -0.625 5.265625 -0.625 C 6.085938 -0.625 6.738281 -0.832031 7.21875 -1.25 C 7.707031 -1.664062 7.953125 -2.179688 7.953125 -2.796875 C 7.953125 -3.222656 7.820312 -3.570312 7.5625 -3.84375 C 7.3125 -4.125 6.988281 -4.335938 6.59375 -4.484375 C 6.207031 -4.628906 5.679688 -4.785156 5.015625 -4.953125 C 4.210938 -5.171875 3.566406 -5.382812 3.078125 -5.59375 C 2.585938 -5.800781 2.164062 -6.109375 1.8125 -6.515625 C 1.46875 -6.929688 1.296875 -7.488281 1.296875 -8.1875 C 1.296875 -8.6875 1.445312 -9.148438 1.75 -9.578125 C 2.0625 -10.015625 2.488281 -10.359375 3.03125 -10.609375 C 3.582031 -10.867188 4.207031 -11 4.90625 -11 C 6.03125 -11 6.941406 -10.710938 7.640625 -10.140625 C 8.347656 -9.578125 8.726562 -8.796875 8.78125 -7.796875 L 7.875 -7.796875 C 7.832031 -8.515625 7.550781 -9.097656 7.03125 -9.546875 C 6.519531 -10.003906 5.800781 -10.234375 4.875 -10.234375 C 4.101562 -10.234375 3.460938 -10.035156 2.953125 -9.640625 C 2.453125 -9.242188 2.203125 -8.757812 2.203125 -8.1875 C 2.203125 -7.675781 2.34375 -7.265625 2.625 -6.953125 C 2.914062 -6.640625 3.269531 -6.398438 3.6875 -6.234375 C 4.101562 -6.066406 4.660156 -5.890625 5.359375 -5.703125 C 6.117188 -5.503906 6.726562 -5.304688 7.1875 -5.109375 C 7.644531 -4.910156 8.035156 -4.628906 8.359375 -4.265625 C 8.679688 -3.898438 8.84375 -3.410156 8.84375 -2.796875 C 8.84375 -2.234375 8.6875 -1.722656 8.375 -1.265625 C 8.070312 -0.816406 7.644531 -0.46875 7.09375 -0.21875 C 6.550781 0.03125 5.941406 0.15625 5.265625 0.15625 Z M 5.265625 0.15625 "/></g></g></g><g fill="#373643" fill-opacity="1"><g transform="translate(168.721713, 145.884703)"><g><path d="M 1.078125 -5.4375 C 1.078125 -6.570312 1.300781 -7.554688 1.75 -8.390625 C 2.195312 -9.234375 2.816406 -9.878906 3.609375 -10.328125 C 4.398438 -10.773438 5.3125 -11 6.34375 -11 C 7.695312 -11 8.8125 -10.65625 9.6875 -9.96875 C 10.5625 -9.289062 11.101562 -8.378906 11.3125 -7.234375 L 10.375 -7.234375 C 10.207031 -8.171875 9.757812 -8.90625 9.03125 -9.4375 C 8.300781 -9.96875 7.40625 -10.234375 6.34375 -10.234375 C 5.539062 -10.234375 4.8125 -10.054688 4.15625 -9.703125 C 3.507812 -9.359375 2.988281 -8.820312 2.59375 -8.09375 C 2.195312 -7.363281 2 -6.476562 2 -5.4375 C 2 -4.382812 2.195312 -3.5 2.59375 -2.78125 C 2.988281 -2.0625 3.507812 -1.519531 4.15625 -1.15625 C 4.8125 -0.800781 5.539062 -0.625 6.34375 -0.625 C 7.40625 -0.625 8.300781 -0.890625 9.03125 -1.421875 C 9.757812 -1.953125 10.207031 -2.6875 10.375 -3.625 L 11.3125 -3.625 C 11.101562 -2.488281 10.554688 -1.570312 9.671875 -0.875 C 8.796875 -0.1875 7.6875 0.15625 6.34375 0.15625 C 5.3125 0.15625 4.398438 -0.0664062 3.609375 -0.515625 C 2.816406 -0.972656 2.195312 -1.625 1.75 -2.46875 C 1.300781 -3.3125 1.078125 -4.300781 1.078125 -5.4375 Z M 1.078125 -5.4375 "/></g></g></g><g fill="#373643" fill-opacity="1"><g transform="translate(180.376822, 145.884703)"><g><path d="M 2.09375 -13.28125 C 1.882812 -13.28125 1.707031 -13.347656 1.5625 -13.484375 C 1.414062 -13.628906 1.34375 -13.820312 1.34375 -14.0625 C 1.34375 -14.289062 1.414062 -14.476562 1.5625 -14.625 C 1.707031 -14.769531 1.882812 -14.84375 2.09375 -14.84375 C 2.3125 -14.84375 2.492188 -14.769531 2.640625 -14.625 C 2.785156 -14.476562 2.859375 -14.289062 2.859375 -14.0625 C 2.859375 -13.820312 2.785156 -13.628906 2.640625 -13.484375 C 2.492188 -13.347656 2.3125 -13.28125 2.09375 -13.28125 Z M 2.546875 -10.859375 L 2.546875 0 L 1.640625 0 L 1.640625 -10.859375 Z M 2.546875 -10.859375 "/></g></g></g><g fill="#373643" fill-opacity="1"><g transform="translate(183.815176, 145.884703)"><g><path d="M 11.421875 -6.15625 C 11.421875 -5.675781 11.40625 -5.316406 11.375 -5.078125 L 2 -5.078125 C 2.03125 -4.109375 2.242188 -3.289062 2.640625 -2.625 C 3.035156 -1.957031 3.5625 -1.457031 4.21875 -1.125 C 4.875 -0.789062 5.585938 -0.625 6.359375 -0.625 C 7.421875 -0.625 8.3125 -0.882812 9.03125 -1.40625 C 9.757812 -1.9375 10.21875 -2.65625 10.40625 -3.5625 L 11.34375 -3.5625 C 11.125 -2.457031 10.570312 -1.5625 9.6875 -0.875 C 8.8125 -0.1875 7.703125 0.15625 6.359375 0.15625 C 5.347656 0.15625 4.441406 -0.0664062 3.640625 -0.515625 C 2.835938 -0.972656 2.207031 -1.625 1.75 -2.46875 C 1.300781 -3.3125 1.078125 -4.300781 1.078125 -5.4375 C 1.078125 -6.570312 1.300781 -7.554688 1.75 -8.390625 C 2.195312 -9.234375 2.816406 -9.878906 3.609375 -10.328125 C 4.410156 -10.773438 5.328125 -11 6.359375 -11 C 7.398438 -11 8.300781 -10.773438 9.0625 -10.328125 C 9.832031 -9.878906 10.414062 -9.285156 10.8125 -8.546875 C 11.21875 -7.804688 11.421875 -7.007812 11.421875 -6.15625 Z M 10.515625 -5.8125 C 10.554688 -6.78125 10.382812 -7.597656 10 -8.265625 C 9.625 -8.929688 9.109375 -9.425781 8.453125 -9.75 C 7.804688 -10.070312 7.101562 -10.234375 6.34375 -10.234375 C 5.582031 -10.234375 4.878906 -10.070312 4.234375 -9.75 C 3.585938 -9.425781 3.0625 -8.929688 2.65625 -8.265625 C 2.25 -7.597656 2.03125 -6.78125 2 -5.8125 Z M 10.515625 -5.8125 "/></g></g></g><g fill="#373643" fill-opacity="1"><g transform="translate(195.550256, 145.884703)"><g><path d="M 6.546875 -11.078125 C 7.835938 -11.078125 8.890625 -10.679688 9.703125 -9.890625 C 10.515625 -9.097656 10.921875 -7.921875 10.921875 -6.359375 L 10.921875 0 L 10.046875 0 L 10.046875 -6.296875 C 10.046875 -7.585938 9.71875 -8.578125 9.0625 -9.265625 C 8.40625 -9.953125 7.519531 -10.296875 6.40625 -10.296875 C 5.226562 -10.296875 4.289062 -9.921875 3.59375 -9.171875 C 2.894531 -8.429688 2.546875 -7.328125 2.546875 -5.859375 L 2.546875 0 L 1.640625 0 L 1.640625 -10.859375 L 2.546875 -10.859375 L 2.546875 -8.5625 C 2.847656 -9.375 3.351562 -9.992188 4.0625 -10.421875 C 4.78125 -10.859375 5.609375 -11.078125 6.546875 -11.078125 Z M 6.546875 -11.078125 "/></g></g></g><g fill="#373643" fill-opacity="1"><g transform="translate(207.245339, 145.884703)"><g><path d="M 1.078125 -5.4375 C 1.078125 -6.570312 1.300781 -7.554688 1.75 -8.390625 C 2.195312 -9.234375 2.816406 -9.878906 3.609375 -10.328125 C 4.398438 -10.773438 5.3125 -11 6.34375 -11 C 7.695312 -11 8.8125 -10.65625 9.6875 -9.96875 C 10.5625 -9.289062 11.101562 -8.378906 11.3125 -7.234375 L 10.375 -7.234375 C 10.207031 -8.171875 9.757812 -8.90625 9.03125 -9.4375 C 8.300781 -9.96875 7.40625 -10.234375 6.34375 -10.234375 C 5.539062 -10.234375 4.8125 -10.054688 4.15625 -9.703125 C 3.507812 -9.359375 2.988281 -8.820312 2.59375 -8.09375 C 2.195312 -7.363281 2 -6.476562 2 -5.4375 C 2 -4.382812 2.195312 -3.5 2.59375 -2.78125 C 2.988281 -2.0625 3.507812 -1.519531 4.15625 -1.15625 C 4.8125 -0.800781 5.539062 -0.625 6.34375 -0.625 C 7.40625 -0.625 8.300781 -0.890625 9.03125 -1.421875 C 9.757812 -1.953125 10.207031 -2.6875 10.375 -3.625 L 11.3125 -3.625 C 11.101562 -2.488281 10.554688 -1.570312 9.671875 -0.875 C 8.796875 -0.1875 7.6875 0.15625 6.34375 0.15625 C 5.3125 0.15625 4.398438 -0.0664062 3.609375 -0.515625 C 2.816406 -0.972656 2.195312 -1.625 1.75 -2.46875 C 1.300781 -3.3125 1.078125 -4.300781 1.078125 -5.4375 Z M 1.078125 -5.4375 "/></g></g></g><g fill="#373643" fill-opacity="1"><g transform="translate(218.900436, 145.884703)"><g><path d="M 11.421875 -6.15625 C 11.421875 -5.675781 11.40625 -5.316406 11.375 -5.078125 L 2 -5.078125 C 2.03125 -4.109375 2.242188 -3.289062 2.640625 -2.625 C 3.035156 -1.957031 3.5625 -1.457031 4.21875 -1.125 C 4.875 -0.789062 5.585938 -0.625 6.359375 -0.625 C 7.421875 -0.625 8.3125 -0.882812 9.03125 -1.40625 C 9.757812 -1.9375 10.21875 -2.65625 10.40625 -3.5625 L 11.34375 -3.5625 C 11.125 -2.457031 10.570312 -1.5625 9.6875 -0.875 C 8.8125 -0.1875 7.703125 0.15625 6.359375 0.15625 C 5.347656 0.15625 4.441406 -0.0664062 3.640625 -0.515625 C 2.835938 -0.972656 2.207031 -1.625 1.75 -2.46875 C 1.300781 -3.3125 1.078125 -4.300781 1.078125 -5.4375 C 1.078125 -6.570312 1.300781 -7.554688 1.75 -8.390625 C 2.195312 -9.234375 2.816406 -9.878906 3.609375 -10.328125 C 4.410156 -10.773438 5.328125 -11 6.359375 -11 C 7.398438 -11 8.300781 -10.773438 9.0625 -10.328125 C 9.832031 -9.878906 10.414062 -9.285156 10.8125 -8.546875 C 11.21875 -7.804688 11.421875 -7.007812 11.421875 -6.15625 Z M 10.515625 -5.8125 C 10.554688 -6.78125 10.382812 -7.597656 10 -8.265625 C 9.625 -8.929688 9.109375 -9.425781 8.453125 -9.75 C 7.804688 -10.070312 7.101562 -10.234375 6.34375 -10.234375 C 5.582031 -10.234375 4.878906 -10.070312 4.234375 -9.75 C 3.585938 -9.425781 3.0625 -8.929688 2.65625 -8.265625 C 2.25 -7.597656 2.03125 -6.78125 2 -5.8125 Z M 10.515625 -5.8125 "/></g></g></g><g fill="#373643" fill-opacity="1"><g transform="translate(230.635505, 145.884703)"><g/></g></g><g fill="#373643" fill-opacity="1"><g transform="translate(235.513274, 145.884703)"><g><path d="M 12.140625 -4.859375 C 11.660156 -4.015625 11.203125 -3.300781 10.765625 -2.71875 L 13.40625 0 L 12.265625 0 L 10.234375 -2.0625 C 9.554688 -1.269531 8.832031 -0.691406 8.0625 -0.328125 C 7.300781 0.0351562 6.429688 0.21875 5.453125 0.21875 C 4.566406 0.21875 3.769531 0.0390625 3.0625 -0.3125 C 2.351562 -0.664062 1.800781 -1.15625 1.40625 -1.78125 C 1.007812 -2.414062 0.8125 -3.148438 0.8125 -3.984375 C 0.8125 -4.984375 1.09375 -5.84375 1.65625 -6.5625 C 2.226562 -7.289062 3.054688 -7.863281 4.140625 -8.28125 C 3.617188 -8.820312 3.238281 -9.328125 3 -9.796875 C 2.769531 -10.273438 2.65625 -10.78125 2.65625 -11.3125 C 2.65625 -12.164062 2.957031 -12.859375 3.5625 -13.390625 C 4.175781 -13.929688 4.972656 -14.203125 5.953125 -14.203125 C 6.546875 -14.203125 7.085938 -14.082031 7.578125 -13.84375 C 8.066406 -13.601562 8.453125 -13.257812 8.734375 -12.8125 C 9.015625 -12.375 9.15625 -11.863281 9.15625 -11.28125 L 8.265625 -11.28125 C 8.265625 -11.945312 8.035156 -12.472656 7.578125 -12.859375 C 7.128906 -13.242188 6.582031 -13.4375 5.9375 -13.4375 C 5.226562 -13.4375 4.65625 -13.238281 4.21875 -12.84375 C 3.78125 -12.457031 3.5625 -11.945312 3.5625 -11.3125 C 3.5625 -10.851562 3.679688 -10.410156 3.921875 -9.984375 C 4.160156 -9.566406 4.539062 -9.09375 5.0625 -8.5625 L 10.15625 -3.3125 C 10.53125 -3.851562 10.953125 -4.507812 11.421875 -5.28125 L 12.546875 -7.21875 L 13.5 -7.21875 Z M 5.453125 -0.578125 C 6.304688 -0.578125 7.0625 -0.742188 7.71875 -1.078125 C 8.382812 -1.410156 9.023438 -1.945312 9.640625 -2.6875 L 4.71875 -7.6875 L 4.65625 -7.65625 C 2.695312 -6.9375 1.71875 -5.71875 1.71875 -4 C 1.71875 -3.34375 1.878906 -2.753906 2.203125 -2.234375 C 2.523438 -1.710938 2.96875 -1.304688 3.53125 -1.015625 C 4.09375 -0.722656 4.734375 -0.578125 5.453125 -0.578125 Z M 5.453125 -0.578125 "/></g></g></g><g fill="#373643" fill-opacity="1"><g transform="translate(248.667799, 145.884703)"><g/></g></g><g fill="#373643" fill-opacity="1"><g transform="translate(253.545568, 145.884703)"><g><path d="M 14.484375 -11.078125 C 15.722656 -11.078125 16.734375 -10.679688 17.515625 -9.890625 C 18.304688 -9.097656 18.703125 -7.921875 18.703125 -6.359375 L 18.703125 0 L 17.8125 0 L 17.8125 -6.296875 C 17.8125 -7.585938 17.5 -8.578125 16.875 -9.265625 C 16.257812 -9.953125 15.414062 -10.296875 14.34375 -10.296875 C 13.21875 -10.296875 12.316406 -9.910156 11.640625 -9.140625 C 10.960938 -8.367188 10.625 -7.25 10.625 -5.78125 L 10.625 0 L 9.734375 0 L 9.734375 -6.296875 C 9.734375 -7.585938 9.421875 -8.578125 8.796875 -9.265625 C 8.179688 -9.953125 7.335938 -10.296875 6.265625 -10.296875 C 5.140625 -10.296875 4.238281 -9.910156 3.5625 -9.140625 C 2.882812 -8.367188 2.546875 -7.25 2.546875 -5.78125 L 2.546875 0 L 1.640625 0 L 1.640625 -10.859375 L 2.546875 -10.859375 L 2.546875 -8.5 C 2.847656 -9.351562 3.34375 -9.992188 4.03125 -10.421875 C 4.71875 -10.859375 5.507812 -11.078125 6.40625 -11.078125 C 7.382812 -11.078125 8.226562 -10.820312 8.9375 -10.3125 C 9.65625 -9.800781 10.148438 -9.046875 10.421875 -8.046875 C 10.671875 -9.046875 11.160156 -9.800781 11.890625 -10.3125 C 12.628906 -10.820312 13.492188 -11.078125 14.484375 -11.078125 Z M 14.484375 -11.078125 "/></g></g></g><g fill="#373643" fill-opacity="1"><g transform="translate(273.037578, 145.884703)"><g><path d="M 1.078125 -5.4375 C 1.078125 -6.5625 1.300781 -7.539062 1.75 -8.375 C 2.195312 -9.21875 2.816406 -9.863281 3.609375 -10.3125 C 4.398438 -10.769531 5.300781 -11 6.3125 -11 C 7.46875 -11 8.441406 -10.71875 9.234375 -10.15625 C 10.035156 -9.59375 10.597656 -8.878906 10.921875 -8.015625 L 10.921875 -10.859375 L 11.8125 -10.859375 L 11.8125 0 L 10.921875 0 L 10.921875 -2.859375 C 10.597656 -1.984375 10.03125 -1.257812 9.21875 -0.6875 C 8.414062 -0.125 7.445312 0.15625 6.3125 0.15625 C 5.300781 0.15625 4.398438 -0.0703125 3.609375 -0.53125 C 2.816406 -0.988281 2.195312 -1.640625 1.75 -2.484375 C 1.300781 -3.335938 1.078125 -4.320312 1.078125 -5.4375 Z M 10.921875 -5.4375 C 10.921875 -6.382812 10.722656 -7.222656 10.328125 -7.953125 C 9.929688 -8.679688 9.394531 -9.238281 8.71875 -9.625 C 8.039062 -10.019531 7.28125 -10.21875 6.4375 -10.21875 C 5.5625 -10.21875 4.789062 -10.023438 4.125 -9.640625 C 3.457031 -9.265625 2.9375 -8.71875 2.5625 -8 C 2.1875 -7.28125 2 -6.425781 2 -5.4375 C 2 -4.445312 2.1875 -3.59375 2.5625 -2.875 C 2.9375 -2.15625 3.457031 -1.601562 4.125 -1.21875 C 4.800781 -0.832031 5.570312 -0.640625 6.4375 -0.640625 C 7.28125 -0.640625 8.046875 -0.832031 8.734375 -1.21875 C 9.421875 -1.613281 9.957031 -2.175781 10.34375 -2.90625 C 10.726562 -3.632812 10.921875 -4.476562 10.921875 -5.4375 Z M 10.921875 -5.4375 "/></g></g></g><g fill="#373643" fill-opacity="1"><g transform="translate(285.73228, 145.884703)"><g><path d="M 2.546875 -8.625 C 2.804688 -9.414062 3.273438 -10.019531 3.953125 -10.4375 C 4.640625 -10.863281 5.507812 -11.078125 6.5625 -11.078125 L 6.5625 -10.140625 L 6.265625 -10.140625 C 5.191406 -10.140625 4.300781 -9.832031 3.59375 -9.21875 C 2.894531 -8.613281 2.546875 -7.628906 2.546875 -6.265625 L 2.546875 0 L 1.640625 0 L 1.640625 -10.859375 L 2.546875 -10.859375 Z M 2.546875 -8.625 "/></g></g></g><g fill="#373643" fill-opacity="1"><g transform="translate(291.969516, 145.884703)"><g><path d="M 7.28125 0 L 2.546875 -4.984375 L 2.546875 0 L 1.640625 0 L 1.640625 -14.796875 L 2.546875 -14.796875 L 2.546875 -5.9375 L 7.203125 -10.859375 L 8.453125 -10.859375 L 3.203125 -5.453125 L 8.515625 0 Z M 7.28125 0 "/></g></g></g><g fill="#373643" fill-opacity="1"><g transform="translate(299.94607, 145.884703)"><g><path d="M 11.421875 -6.15625 C 11.421875 -5.675781 11.40625 -5.316406 11.375 -5.078125 L 2 -5.078125 C 2.03125 -4.109375 2.242188 -3.289062 2.640625 -2.625 C 3.035156 -1.957031 3.5625 -1.457031 4.21875 -1.125 C 4.875 -0.789062 5.585938 -0.625 6.359375 -0.625 C 7.421875 -0.625 8.3125 -0.882812 9.03125 -1.40625 C 9.757812 -1.9375 10.21875 -2.65625 10.40625 -3.5625 L 11.34375 -3.5625 C 11.125 -2.457031 10.570312 -1.5625 9.6875 -0.875 C 8.8125 -0.1875 7.703125 0.15625 6.359375 0.15625 C 5.347656 0.15625 4.441406 -0.0664062 3.640625 -0.515625 C 2.835938 -0.972656 2.207031 -1.625 1.75 -2.46875 C 1.300781 -3.3125 1.078125 -4.300781 1.078125 -5.4375 C 1.078125 -6.570312 1.300781 -7.554688 1.75 -8.390625 C 2.195312 -9.234375 2.816406 -9.878906 3.609375 -10.328125 C 4.410156 -10.773438 5.328125 -11 6.359375 -11 C 7.398438 -11 8.300781 -10.773438 9.0625 -10.328125 C 9.832031 -9.878906 10.414062 -9.285156 10.8125 -8.546875 C 11.21875 -7.804688 11.421875 -7.007812 11.421875 -6.15625 Z M 10.515625 -5.8125 C 10.554688 -6.78125 10.382812 -7.597656 10 -8.265625 C 9.625 -8.929688 9.109375 -9.425781 8.453125 -9.75 C 7.804688 -10.070312 7.101562 -10.234375 6.34375 -10.234375 C 5.582031 -10.234375 4.878906 -10.070312 4.234375 -9.75 C 3.585938 -9.425781 3.0625 -8.929688 2.65625 -8.265625 C 2.25 -7.597656 2.03125 -6.78125 2 -5.8125 Z M 10.515625 -5.8125 "/></g></g></g><g fill="#373643" fill-opacity="1"><g transform="translate(311.681139, 145.884703)"><g><path d="M 2.984375 -10.078125 L 2.984375 -2.90625 C 2.984375 -2.101562 3.128906 -1.550781 3.421875 -1.25 C 3.710938 -0.945312 4.234375 -0.796875 4.984375 -0.796875 L 6.203125 -0.796875 L 6.203125 0 L 4.84375 0 C 3.894531 0 3.195312 -0.222656 2.75 -0.671875 C 2.300781 -1.117188 2.078125 -1.863281 2.078125 -2.90625 L 2.078125 -10.078125 L 0.4375 -10.078125 L 0.4375 -10.859375 L 2.078125 -10.859375 L 2.078125 -13.625 L 2.984375 -13.625 L 2.984375 -10.859375 L 6.203125 -10.859375 L 6.203125 -10.078125 Z M 2.984375 -10.078125 "/></g></g></g><g fill="#373643" fill-opacity="1"><g transform="translate(317.858407, 145.884703)"><g><path d="M 2.09375 -13.28125 C 1.882812 -13.28125 1.707031 -13.347656 1.5625 -13.484375 C 1.414062 -13.628906 1.34375 -13.820312 1.34375 -14.0625 C 1.34375 -14.289062 1.414062 -14.476562 1.5625 -14.625 C 1.707031 -14.769531 1.882812 -14.84375 2.09375 -14.84375 C 2.3125 -14.84375 2.492188 -14.769531 2.640625 -14.625 C 2.785156 -14.476562 2.859375 -14.289062 2.859375 -14.0625 C 2.859375 -13.820312 2.785156 -13.628906 2.640625 -13.484375 C 2.492188 -13.347656 2.3125 -13.28125 2.09375 -13.28125 Z M 2.546875 -10.859375 L 2.546875 0 L 1.640625 0 L 1.640625 -10.859375 Z M 2.546875 -10.859375 "/></g></g></g><g fill="#373643" fill-opacity="1"><g transform="translate(321.296761, 145.884703)"><g><path d="M 6.546875 -11.078125 C 7.835938 -11.078125 8.890625 -10.679688 9.703125 -9.890625 C 10.515625 -9.097656 10.921875 -7.921875 10.921875 -6.359375 L 10.921875 0 L 10.046875 0 L 10.046875 -6.296875 C 10.046875 -7.585938 9.71875 -8.578125 9.0625 -9.265625 C 8.40625 -9.953125 7.519531 -10.296875 6.40625 -10.296875 C 5.226562 -10.296875 4.289062 -9.921875 3.59375 -9.171875 C 2.894531 -8.429688 2.546875 -7.328125 2.546875 -5.859375 L 2.546875 0 L 1.640625 0 L 1.640625 -10.859375 L 2.546875 -10.859375 L 2.546875 -8.5625 C 2.847656 -9.375 3.351562 -9.992188 4.0625 -10.421875 C 4.78125 -10.859375 5.609375 -11.078125 6.546875 -11.078125 Z M 6.546875 -11.078125 "/></g></g></g><g fill="#373643" fill-opacity="1"><g transform="translate(332.991844, 145.884703)"><g><path d="M 6.3125 -11 C 7.46875 -11 8.441406 -10.722656 9.234375 -10.171875 C 10.035156 -9.617188 10.597656 -8.910156 10.921875 -8.046875 L 10.921875 -10.859375 L 11.8125 -10.859375 L 11.8125 0.34375 C 11.8125 1.34375 11.59375 2.21875 11.15625 2.96875 C 10.71875 3.71875 10.125 4.296875 9.375 4.703125 C 8.632812 5.109375 7.800781 5.3125 6.875 5.3125 C 5.519531 5.3125 4.394531 4.984375 3.5 4.328125 C 2.601562 3.679688 2.015625 2.804688 1.734375 1.703125 L 2.640625 1.703125 C 2.910156 2.566406 3.410156 3.253906 4.140625 3.765625 C 4.867188 4.285156 5.78125 4.546875 6.875 4.546875 C 7.632812 4.546875 8.320312 4.375 8.9375 4.03125 C 9.550781 3.6875 10.035156 3.195312 10.390625 2.5625 C 10.742188 1.9375 10.921875 1.195312 10.921875 0.34375 L 10.921875 -2.84375 C 10.597656 -1.976562 10.03125 -1.257812 9.21875 -0.6875 C 8.414062 -0.125 7.445312 0.15625 6.3125 0.15625 C 5.300781 0.15625 4.398438 -0.0703125 3.609375 -0.53125 C 2.816406 -0.988281 2.195312 -1.640625 1.75 -2.484375 C 1.300781 -3.335938 1.078125 -4.320312 1.078125 -5.4375 C 1.078125 -6.5625 1.300781 -7.539062 1.75 -8.375 C 2.195312 -9.21875 2.816406 -9.863281 3.609375 -10.3125 C 4.398438 -10.769531 5.300781 -11 6.3125 -11 Z M 10.921875 -5.4375 C 10.921875 -6.382812 10.722656 -7.222656 10.328125 -7.953125 C 9.929688 -8.679688 9.394531 -9.238281 8.71875 -9.625 C 8.039062 -10.019531 7.28125 -10.21875 6.4375 -10.21875 C 5.5625 -10.21875 4.789062 -10.023438 4.125 -9.640625 C 3.457031 -9.265625 2.9375 -8.71875 2.5625 -8 C 2.1875 -7.28125 2 -6.425781 2 -5.4375 C 2 -4.445312 2.1875 -3.59375 2.5625 -2.875 C 2.9375 -2.15625 3.457031 -1.601562 4.125 -1.21875 C 4.800781 -0.832031 5.570312 -0.640625 6.4375 -0.640625 C 7.28125 -0.640625 8.046875 -0.832031 8.734375 -1.21875 C 9.421875 -1.613281 9.957031 -2.175781 10.34375 -2.90625 C 10.726562 -3.632812 10.921875 -4.476562 10.921875 -5.4375 Z M 10.921875 -5.4375 "/></g></g></g><g fill="#373643" fill-opacity="1"><g transform="translate(345.687025, 145.884703)"><g/></g></g><g clip-path="url(#5a6ffbe9f6)"><g clip-path="url(#711190d09f)"><g clip-path="url(#2fcc7e0b6c)"><path fill="#18cb96" d="M 307.171875 72.347656 L 289.148438 71.546875 C 285.667969 71.390625 285.078125 78.175781 289.203125 78.285156 L 300.417969 78.589844 L 299.5625 89.875 C 299.300781 93.3125 306.003906 93.675781 306.195312 90.183594 Z M 307.171875 72.347656 " fill-opacity="1" fill-rule="nonzero"/></g></g></g></svg>