<svg xmlns="http://www.w3.org/2000/svg" xmlns:xlink="http://www.w3.org/1999/xlink" width="500" zoomAndPan="magnify" viewBox="0 0 375 374.999991" height="500" preserveAspectRatio="xMidYMid meet" version="1.0"><defs><g/><clipPath id="9b18dd1b8a"><path d="M 253 81 L 275 81 L 275 103 L 253 103 Z M 253 81 " clip-rule="nonzero"/></clipPath><clipPath id="ca96bb3ec6"><path d="M 249.007812 84.402344 L 263.878906 70.65625 L 284.242188 92.6875 L 269.371094 106.433594 Z M 249.007812 84.402344 " clip-rule="nonzero"/></clipPath><clipPath id="88f9fef1ae"><path d="M 249.007812 84.402344 L 263.878906 70.65625 L 284.242188 92.6875 L 269.371094 106.433594 Z M 249.007812 84.402344 " clip-rule="nonzero"/></clipPath><clipPath id="a75c4bbc23"><path d="M 262 71 L 284 71 L 284 93 L 262 93 Z M 262 71 " clip-rule="nonzero"/></clipPath><clipPath id="adece116ef"><path d="M 258.109375 74.957031 L 272.980469 61.210938 L 293.34375 83.242188 L 278.472656 96.988281 Z M 258.109375 74.957031 " clip-rule="nonzero"/></clipPath><clipPath id="f7e3a39a70"><path d="M 258.109375 74.957031 L 272.980469 61.210938 L 293.34375 83.242188 L 278.472656 96.988281 Z M 258.109375 74.957031 " clip-rule="nonzero"/></clipPath></defs><g clip-path="url(#9b18dd1b8a)"><g clip-path="url(#ca96bb3ec6)"><g clip-path="url(#88f9fef1ae)"><path fill="#18cb96" d="M 274.214844 81.941406 L 256.191406 81.140625 C 252.710938 80.988281 252.121094 87.769531 256.246094 87.882812 L 267.460938 88.183594 L 266.605469 99.46875 C 266.34375 102.90625 273.046875 103.269531 273.238281 99.777344 Z M 274.214844 81.941406 " fill-opacity="1" fill-rule="nonzero"/></g></g></g><g fill="#373643" fill-opacity="1"><g transform="translate(33.882613, 116.361064)"><g><path d="M 20.8125 -22.78125 C 21.59375 -22.78125 22.210938 -22.5625 22.671875 -22.125 C 23.140625 -21.695312 23.375 -21.140625 23.375 -20.453125 L 23.375 -2.328125 C 23.375 -1.640625 23.140625 -1.078125 22.671875 -0.640625 C 22.210938 -0.210938 21.59375 0 20.8125 0 C 20.070312 0 19.488281 -0.171875 19.0625 -0.515625 C 18.644531 -0.859375 18.394531 -1.3125 18.3125 -1.875 C 17.289062 -1.070312 16.15625 -0.484375 14.90625 -0.109375 C 13.65625 0.265625 12.460938 0.453125 11.328125 0.453125 C 9.179688 0.453125 7.320312 -0.0351562 5.75 -1.015625 C 4.1875 -2.003906 2.984375 -3.394531 2.140625 -5.1875 C 1.304688 -6.976562 0.890625 -9.066406 0.890625 -11.453125 C 0.890625 -13.785156 1.351562 -15.832031 2.28125 -17.59375 C 3.207031 -19.351562 4.5 -20.734375 6.15625 -21.734375 C 7.8125 -22.734375 9.726562 -23.234375 11.90625 -23.234375 C 12.863281 -23.234375 13.921875 -23.050781 15.078125 -22.6875 C 16.242188 -22.332031 17.320312 -21.769531 18.3125 -21 C 18.425781 -21.53125 18.691406 -21.957031 19.109375 -22.28125 C 19.523438 -22.613281 20.09375 -22.78125 20.8125 -22.78125 Z M 11.859375 -4.078125 C 13.171875 -4.078125 14.4375 -4.363281 15.65625 -4.9375 C 16.882812 -5.519531 17.753906 -6.378906 18.265625 -7.515625 L 18.265625 -15.265625 C 17.691406 -16.367188 16.835938 -17.21875 15.703125 -17.8125 C 14.578125 -18.414062 13.429688 -18.71875 12.265625 -18.71875 C 10.390625 -18.71875 8.875 -18.03125 7.71875 -16.65625 C 6.570312 -15.28125 6 -13.535156 6 -11.421875 C 6 -9.210938 6.535156 -7.4375 7.609375 -6.09375 C 8.679688 -4.75 10.097656 -4.078125 11.859375 -4.078125 Z M 11.859375 -4.078125 "/></g></g></g><g fill="#373643" fill-opacity="1"><g transform="translate(59.749998, 116.361064)"><g><path d="M 20.859375 -28.96875 C 21.484375 -28.96875 22.070312 -28.785156 22.625 -28.421875 C 23.175781 -28.066406 23.453125 -27.5 23.453125 -26.71875 L 23.453125 -2.28125 C 23.453125 -0.757812 22.585938 0 20.859375 0 C 19.304688 0 18.5 -0.71875 18.4375 -2.15625 C 17.488281 -1.3125 16.414062 -0.671875 15.21875 -0.234375 C 14.03125 0.191406 12.894531 0.40625 11.8125 0.40625 C 9.570312 0.40625 7.640625 -0.0976562 6.015625 -1.109375 C 4.390625 -2.128906 3.144531 -3.550781 2.28125 -5.375 C 1.414062 -7.195312 0.984375 -9.285156 0.984375 -11.640625 C 0.984375 -13.910156 1.445312 -15.910156 2.375 -17.640625 C 3.300781 -19.367188 4.59375 -20.734375 6.25 -21.734375 C 7.90625 -22.734375 9.820312 -23.234375 12 -23.234375 C 12.976562 -23.234375 14.035156 -23.035156 15.171875 -22.640625 C 16.304688 -22.253906 17.367188 -21.675781 18.359375 -20.90625 L 18.359375 -26.71875 C 18.359375 -27.5 18.617188 -28.066406 19.140625 -28.421875 C 19.660156 -28.785156 20.234375 -28.96875 20.859375 -28.96875 Z M 11.953125 -4.125 C 13.441406 -4.125 14.789062 -4.457031 16 -5.125 C 17.207031 -5.800781 18.019531 -6.78125 18.4375 -8.0625 L 18.40625 -14.953125 C 17.894531 -16.171875 17.0625 -17.101562 15.90625 -17.75 C 14.757812 -18.394531 13.578125 -18.71875 12.359375 -18.71875 C 10.472656 -18.71875 8.957031 -18.035156 7.8125 -16.671875 C 6.664062 -15.316406 6.09375 -13.625 6.09375 -11.59375 C 6.09375 -9.414062 6.628906 -7.625 7.703125 -6.21875 C 8.773438 -4.820312 10.191406 -4.125 11.953125 -4.125 Z M 11.953125 -4.125 "/></g></g></g><g fill="#373643" fill-opacity="1"><g transform="translate(85.662141, 116.361064)"><g><path d="M 20.8125 -22.78125 C 21.59375 -22.78125 22.210938 -22.5625 22.671875 -22.125 C 23.140625 -21.695312 23.375 -21.140625 23.375 -20.453125 L 23.375 -2.328125 C 23.375 -1.640625 23.140625 -1.078125 22.671875 -0.640625 C 22.210938 -0.210938 21.59375 0 20.8125 0 C 20.070312 0 19.488281 -0.171875 19.0625 -0.515625 C 18.644531 -0.859375 18.394531 -1.3125 18.3125 -1.875 C 17.289062 -1.070312 16.15625 -0.484375 14.90625 -0.109375 C 13.65625 0.265625 12.460938 0.453125 11.328125 0.453125 C 9.179688 0.453125 7.320312 -0.0351562 5.75 -1.015625 C 4.1875 -2.003906 2.984375 -3.394531 2.140625 -5.1875 C 1.304688 -6.976562 0.890625 -9.066406 0.890625 -11.453125 C 0.890625 -13.785156 1.351562 -15.832031 2.28125 -17.59375 C 3.207031 -19.351562 4.5 -20.734375 6.15625 -21.734375 C 7.8125 -22.734375 9.726562 -23.234375 11.90625 -23.234375 C 12.863281 -23.234375 13.921875 -23.050781 15.078125 -22.6875 C 16.242188 -22.332031 17.320312 -21.769531 18.3125 -21 C 18.425781 -21.53125 18.691406 -21.957031 19.109375 -22.28125 C 19.523438 -22.613281 20.09375 -22.78125 20.8125 -22.78125 Z M 11.859375 -4.078125 C 13.171875 -4.078125 14.4375 -4.363281 15.65625 -4.9375 C 16.882812 -5.519531 17.753906 -6.378906 18.265625 -7.515625 L 18.265625 -15.265625 C 17.691406 -16.367188 16.835938 -17.21875 15.703125 -17.8125 C 14.578125 -18.414062 13.429688 -18.71875 12.265625 -18.71875 C 10.390625 -18.71875 8.875 -18.03125 7.71875 -16.65625 C 6.570312 -15.28125 6 -13.535156 6 -11.421875 C 6 -9.210938 6.535156 -7.4375 7.609375 -6.09375 C 8.679688 -4.75 10.097656 -4.078125 11.859375 -4.078125 Z M 11.859375 -4.078125 "/></g></g></g><g fill="#373643" fill-opacity="1"><g transform="translate(111.529523, 116.361064)"><g><path d="M 13.703125 -23.234375 C 15.910156 -23.234375 17.84375 -22.75 19.5 -21.78125 C 21.15625 -20.8125 22.4375 -19.453125 23.34375 -17.703125 C 24.25 -15.960938 24.703125 -13.941406 24.703125 -11.640625 C 24.703125 -9.253906 24.25 -7.148438 23.34375 -5.328125 C 22.4375 -3.503906 21.175781 -2.082031 19.5625 -1.0625 C 17.945312 -0.0507812 16.050781 0.453125 13.875 0.453125 C 12.863281 0.453125 11.757812 0.273438 10.5625 -0.078125 C 9.375 -0.441406 8.285156 -0.953125 7.296875 -1.609375 L 7.296875 5.234375 C 7.296875 5.984375 7.035156 6.550781 6.515625 6.9375 C 5.992188 7.320312 5.421875 7.515625 4.796875 7.515625 C 4.140625 7.515625 3.546875 7.320312 3.015625 6.9375 C 2.492188 6.550781 2.234375 5.984375 2.234375 5.234375 L 2.234375 -20.5 C 2.234375 -21.21875 2.460938 -21.773438 2.921875 -22.171875 C 3.390625 -22.578125 4.023438 -22.78125 4.828125 -22.78125 C 6.171875 -22.78125 6.960938 -22.257812 7.203125 -21.21875 C 8.253906 -21.96875 9.34375 -22.488281 10.46875 -22.78125 C 11.601562 -23.082031 12.679688 -23.234375 13.703125 -23.234375 Z M 13.75 -4.078125 C 15.507812 -4.078125 16.925781 -4.769531 18 -6.15625 C 19.070312 -7.539062 19.609375 -9.351562 19.609375 -11.59375 C 19.609375 -13.707031 19.03125 -15.421875 17.875 -16.734375 C 16.726562 -18.054688 15.21875 -18.71875 13.34375 -18.71875 C 12.144531 -18.71875 10.976562 -18.410156 9.84375 -17.796875 C 8.707031 -17.179688 7.859375 -16.304688 7.296875 -15.171875 L 7.296875 -7.75 C 7.773438 -6.582031 8.625 -5.675781 9.84375 -5.03125 C 11.070312 -4.394531 12.375 -4.078125 13.75 -4.078125 Z M 13.75 -4.078125 "/></g></g></g><g fill="#373643" fill-opacity="1"><g transform="translate(137.575931, 116.361064)"><g><path d="M 12.3125 -4.25 C 13 -4.632812 13.617188 -4.769531 14.171875 -4.65625 C 14.722656 -4.539062 15.171875 -4.28125 15.515625 -3.875 C 15.859375 -3.46875 16.03125 -3 16.03125 -2.46875 C 16.03125 -2.070312 15.910156 -1.679688 15.671875 -1.296875 C 15.429688 -0.910156 15.054688 -0.582031 14.546875 -0.3125 C 13.890625 0.0390625 13.289062 0.253906 12.75 0.328125 C 12.21875 0.410156 11.59375 0.453125 10.875 0.453125 C 8.9375 0.453125 7.441406 0.0507812 6.390625 -0.75 C 5.347656 -1.5625 4.632812 -2.609375 4.25 -3.890625 C 3.863281 -5.171875 3.671875 -6.53125 3.671875 -7.96875 L 3.671875 -18.53125 L 1.96875 -18.53125 C 1.132812 -18.53125 0.515625 -18.753906 0.109375 -19.203125 C -0.296875 -19.648438 -0.5 -20.128906 -0.5 -20.640625 C -0.5 -21.171875 -0.289062 -21.660156 0.125 -22.109375 C 0.550781 -22.554688 1.164062 -22.78125 1.96875 -22.78125 L 3.671875 -22.78125 L 3.671875 -26.640625 C 3.671875 -27.410156 3.921875 -27.988281 4.421875 -28.375 C 4.929688 -28.769531 5.515625 -28.96875 6.171875 -28.96875 C 6.804688 -28.96875 7.390625 -28.769531 7.921875 -28.375 C 8.460938 -27.988281 8.734375 -27.410156 8.734375 -26.640625 L 8.734375 -22.78125 L 12.21875 -22.78125 C 13 -22.78125 13.597656 -22.554688 14.015625 -22.109375 C 14.429688 -21.660156 14.640625 -21.171875 14.640625 -20.640625 C 14.640625 -20.097656 14.429688 -19.609375 14.015625 -19.171875 C 13.597656 -18.742188 13 -18.53125 12.21875 -18.53125 L 8.734375 -18.53125 L 8.734375 -7.96875 C 8.734375 -7.3125 8.773438 -6.675781 8.859375 -6.0625 C 8.953125 -5.445312 9.15625 -4.9375 9.46875 -4.53125 C 9.78125 -4.132812 10.25 -3.9375 10.875 -3.9375 C 11.113281 -3.9375 11.375 -3.972656 11.65625 -4.046875 C 11.945312 -4.117188 12.164062 -4.1875 12.3125 -4.25 Z M 12.3125 -4.25 "/></g></g></g><g fill="#373643" fill-opacity="1"><g transform="translate(153.105173, 116.361064)"><g><path d="M 6.71875 -26.140625 C 6.71875 -25.398438 6.441406 -24.84375 5.890625 -24.46875 C 5.335938 -24.09375 4.75 -23.90625 4.125 -23.90625 C 3.46875 -23.90625 2.867188 -24.09375 2.328125 -24.46875 C 1.785156 -24.84375 1.515625 -25.398438 1.515625 -26.140625 L 1.515625 -26.71875 C 1.515625 -27.5 1.785156 -28.066406 2.328125 -28.421875 C 2.867188 -28.785156 3.46875 -28.96875 4.125 -28.96875 C 4.75 -28.96875 5.335938 -28.785156 5.890625 -28.421875 C 6.441406 -28.066406 6.71875 -27.5 6.71875 -26.71875 Z M 1.5625 -20.59375 C 1.5625 -21.3125 1.835938 -21.851562 2.390625 -22.21875 C 2.941406 -22.59375 3.519531 -22.78125 4.125 -22.78125 C 4.75 -22.78125 5.328125 -22.59375 5.859375 -22.21875 C 6.398438 -21.851562 6.671875 -21.328125 6.671875 -20.640625 L 6.671875 -2.1875 C 6.671875 -1.445312 6.398438 -0.894531 5.859375 -0.53125 C 5.328125 -0.175781 4.75 0 4.125 0 C 3.519531 0 2.941406 -0.175781 2.390625 -0.53125 C 1.835938 -0.894531 1.5625 -1.445312 1.5625 -2.1875 Z M 1.5625 -20.59375 "/></g></g></g><g fill="#373643" fill-opacity="1"><g transform="translate(160.444452, 116.361064)"><g><path d="M 32.765625 -23.234375 C 34.859375 -23.234375 36.632812 -22.773438 38.09375 -21.859375 C 39.5625 -20.953125 40.679688 -19.6875 41.453125 -18.0625 C 42.222656 -16.4375 42.609375 -14.550781 42.609375 -12.40625 L 42.609375 -2.328125 C 42.609375 -1.640625 42.390625 -1.078125 41.953125 -0.640625 C 41.523438 -0.210938 40.894531 0 40.0625 0 C 39.320312 0 38.710938 -0.210938 38.234375 -0.640625 C 37.753906 -1.078125 37.515625 -1.640625 37.515625 -2.328125 L 37.515625 -12.484375 C 37.515625 -14.335938 37.070312 -15.84375 36.1875 -17 C 35.3125 -18.164062 33.929688 -18.75 32.046875 -18.75 C 31.097656 -18.75 30.09375 -18.453125 29.03125 -17.859375 C 27.96875 -17.265625 27.070312 -16.398438 26.34375 -15.265625 C 25.613281 -14.128906 25.25 -12.742188 25.25 -11.109375 L 25.25 -2.328125 C 25.25 -1.640625 25.03125 -1.078125 24.59375 -0.640625 C 24.164062 -0.210938 23.546875 0 22.734375 0 C 21.992188 0 21.375 -0.210938 20.875 -0.640625 C 20.382812 -1.078125 20.140625 -1.640625 20.140625 -2.328125 L 20.140625 -12.484375 C 20.140625 -14.335938 19.695312 -15.84375 18.8125 -17 C 17.9375 -18.164062 16.5625 -18.75 14.6875 -18.75 C 14.113281 -18.75 13.453125 -18.59375 12.703125 -18.28125 C 11.960938 -17.96875 11.234375 -17.5 10.515625 -16.875 C 9.804688 -16.25 9.21875 -15.457031 8.75 -14.5 C 8.289062 -13.550781 8.0625 -12.421875 8.0625 -11.109375 L 8.0625 -2.234375 C 8.0625 -1.492188 7.789062 -0.9375 7.25 -0.5625 C 6.71875 -0.1875 6.132812 0 5.5 0 C 4.84375 0 4.257812 -0.1875 3.75 -0.5625 C 3.25 -0.9375 3 -1.492188 3 -2.234375 L 3 -20.5 C 3 -21.125 3.242188 -21.660156 3.734375 -22.109375 C 4.234375 -22.554688 4.820312 -22.78125 5.5 -22.78125 C 6.28125 -22.78125 6.898438 -22.554688 7.359375 -22.109375 C 7.828125 -21.660156 8.0625 -21.125 8.0625 -20.5 L 8.0625 -20.375 C 9.28125 -21.53125 10.53125 -22.296875 11.8125 -22.671875 C 13.101562 -23.046875 14.3125 -23.234375 15.4375 -23.234375 C 17.320312 -23.234375 18.953125 -22.851562 20.328125 -22.09375 C 21.703125 -21.332031 22.789062 -20.296875 23.59375 -18.984375 C 24.519531 -20.117188 25.519531 -20.988281 26.59375 -21.59375 C 27.664062 -22.207031 28.738281 -22.632812 29.8125 -22.875 C 30.882812 -23.113281 31.867188 -23.234375 32.765625 -23.234375 Z M 32.765625 -23.234375 "/></g></g></g><g fill="#373643" fill-opacity="1"><g transform="translate(206.54061, 116.361064)"><g><path d="M 6.71875 -26.140625 C 6.71875 -25.398438 6.441406 -24.84375 5.890625 -24.46875 C 5.335938 -24.09375 4.75 -23.90625 4.125 -23.90625 C 3.46875 -23.90625 2.867188 -24.09375 2.328125 -24.46875 C 1.785156 -24.84375 1.515625 -25.398438 1.515625 -26.140625 L 1.515625 -26.71875 C 1.515625 -27.5 1.785156 -28.066406 2.328125 -28.421875 C 2.867188 -28.785156 3.46875 -28.96875 4.125 -28.96875 C 4.75 -28.96875 5.335938 -28.785156 5.890625 -28.421875 C 6.441406 -28.066406 6.71875 -27.5 6.71875 -26.71875 Z M 1.5625 -20.59375 C 1.5625 -21.3125 1.835938 -21.851562 2.390625 -22.21875 C 2.941406 -22.59375 3.519531 -22.78125 4.125 -22.78125 C 4.75 -22.78125 5.328125 -22.59375 5.859375 -22.21875 C 6.398438 -21.851562 6.671875 -21.328125 6.671875 -20.640625 L 6.671875 -2.1875 C 6.671875 -1.445312 6.398438 -0.894531 5.859375 -0.53125 C 5.328125 -0.175781 4.75 0 4.125 0 C 3.519531 0 2.941406 -0.175781 2.390625 -0.53125 C 1.835938 -0.894531 1.5625 -1.445312 1.5625 -2.1875 Z M 1.5625 -20.59375 "/></g></g></g><g fill="#373643" fill-opacity="1"><g transform="translate(213.879888, 116.361064)"><g><path d="M 7.75 -4.4375 L 19.0625 -4.484375 C 19.9375 -4.484375 20.585938 -4.242188 21.015625 -3.765625 C 21.453125 -3.285156 21.671875 -2.757812 21.671875 -2.1875 C 21.671875 -1.625 21.453125 -1.117188 21.015625 -0.671875 C 20.585938 -0.222656 19.9375 0 19.0625 0 L 2.859375 0 C 1.992188 0 1.328125 -0.222656 0.859375 -0.671875 C 0.398438 -1.117188 0.171875 -1.625 0.171875 -2.1875 C 0.171875 -2.820312 0.457031 -3.421875 1.03125 -3.984375 L 13.78125 -18.265625 L 3.359375 -18.21875 C 2.554688 -18.21875 1.9375 -18.445312 1.5 -18.90625 C 1.0625 -19.375 0.84375 -19.890625 0.84375 -20.453125 C 0.84375 -21.054688 1.0625 -21.59375 1.5 -22.0625 C 1.9375 -22.539062 2.554688 -22.78125 3.359375 -22.78125 L 18.75 -22.78125 C 19.5625 -22.78125 20.210938 -22.535156 20.703125 -22.046875 C 21.191406 -21.554688 21.4375 -21.007812 21.4375 -20.40625 C 21.4375 -19.875 21.171875 -19.3125 20.640625 -18.71875 Z M 7.75 -4.4375 "/></g></g></g><g fill="#373643" fill-opacity="1"><g transform="translate(235.853676, 116.361064)"><g><path d="M 12.796875 -3.984375 C 13.660156 -3.984375 14.507812 -4.101562 15.34375 -4.34375 C 16.1875 -4.582031 16.96875 -4.984375 17.6875 -5.546875 C 18.375 -6.171875 19.046875 -6.460938 19.703125 -6.421875 C 20.359375 -6.378906 20.898438 -6.140625 21.328125 -5.703125 C 21.765625 -5.273438 21.984375 -4.738281 21.984375 -4.09375 C 21.984375 -3.457031 21.671875 -2.835938 21.046875 -2.234375 C 19.992188 -1.222656 18.75 -0.515625 17.3125 -0.109375 C 15.882812 0.296875 14.425781 0.484375 12.9375 0.453125 C 10.613281 0.453125 8.5625 -0.0234375 6.78125 -0.984375 C 5.007812 -1.941406 3.625 -3.269531 2.625 -4.96875 C 1.625 -6.664062 1.125 -8.632812 1.125 -10.875 C 1.125 -13.320312 1.597656 -15.46875 2.546875 -17.3125 C 3.503906 -19.164062 4.851562 -20.613281 6.59375 -21.65625 C 8.34375 -22.707031 10.410156 -23.234375 12.796875 -23.234375 C 15.191406 -23.234375 17.222656 -22.75 18.890625 -21.78125 C 20.554688 -20.8125 21.832031 -19.453125 22.71875 -17.703125 C 23.601562 -15.960938 24.046875 -13.925781 24.046875 -11.59375 C 24.046875 -10.84375 23.894531 -10.207031 23.59375 -9.6875 C 23.289062 -9.164062 22.5 -8.90625 21.21875 -8.90625 L 6.3125 -8.90625 C 6.726562 -7.445312 7.519531 -6.257812 8.6875 -5.34375 C 9.851562 -4.4375 11.222656 -3.984375 12.796875 -3.984375 Z M 12.84375 -18.796875 C 11.113281 -18.796875 9.664062 -18.25 8.5 -17.15625 C 7.34375 -16.070312 6.597656 -14.648438 6.265625 -12.890625 L 19.296875 -12.890625 C 19.140625 -14.648438 18.554688 -16.070312 17.546875 -17.15625 C 16.535156 -18.25 14.96875 -18.796875 12.84375 -18.796875 Z M 12.84375 -18.796875 "/></g></g></g><g fill="#373643" fill-opacity="1"><g transform="translate(20.827382, 141.784707)"><g><path d="M 0.859375 -4.359375 C 0.859375 -5.265625 1.035156 -6.050781 1.390625 -6.71875 C 1.753906 -7.394531 2.253906 -7.910156 2.890625 -8.265625 C 3.523438 -8.617188 4.253906 -8.796875 5.078125 -8.796875 C 6.160156 -8.796875 7.050781 -8.523438 7.75 -7.984375 C 8.445312 -7.441406 8.882812 -6.710938 9.0625 -5.796875 L 8.296875 -5.796875 C 8.160156 -6.535156 7.800781 -7.117188 7.21875 -7.546875 C 6.644531 -7.972656 5.929688 -8.1875 5.078125 -8.1875 C 4.429688 -8.1875 3.847656 -8.046875 3.328125 -7.765625 C 2.804688 -7.484375 2.382812 -7.050781 2.0625 -6.46875 C 1.75 -5.882812 1.59375 -5.179688 1.59375 -4.359375 C 1.59375 -3.515625 1.75 -2.800781 2.0625 -2.21875 C 2.382812 -1.644531 2.804688 -1.210938 3.328125 -0.921875 C 3.847656 -0.640625 4.429688 -0.5 5.078125 -0.5 C 5.929688 -0.5 6.644531 -0.710938 7.21875 -1.140625 C 7.800781 -1.566406 8.160156 -2.148438 8.296875 -2.890625 L 9.0625 -2.890625 C 8.882812 -1.984375 8.441406 -1.253906 7.734375 -0.703125 C 7.035156 -0.148438 6.148438 0.125 5.078125 0.125 C 4.253906 0.125 3.523438 -0.0507812 2.890625 -0.40625 C 2.253906 -0.769531 1.753906 -1.289062 1.390625 -1.96875 C 1.035156 -2.644531 0.859375 -3.441406 0.859375 -4.359375 Z M 0.859375 -4.359375 "/></g></g></g><g fill="#373643" fill-opacity="1"><g transform="translate(30.152992, 141.784707)"><g><path d="M 5.140625 0.125 C 4.328125 0.125 3.59375 -0.0507812 2.9375 -0.40625 C 2.289062 -0.769531 1.78125 -1.289062 1.40625 -1.96875 C 1.039062 -2.644531 0.859375 -3.441406 0.859375 -4.359375 C 0.859375 -5.253906 1.046875 -6.039062 1.421875 -6.71875 C 1.796875 -7.394531 2.3125 -7.910156 2.96875 -8.265625 C 3.625 -8.617188 4.359375 -8.796875 5.171875 -8.796875 C 5.984375 -8.796875 6.710938 -8.617188 7.359375 -8.265625 C 8.015625 -7.910156 8.523438 -7.394531 8.890625 -6.71875 C 9.253906 -6.050781 9.4375 -5.265625 9.4375 -4.359375 C 9.4375 -3.441406 9.25 -2.644531 8.875 -1.96875 C 8.5 -1.289062 7.984375 -0.769531 7.328125 -0.40625 C 6.679688 -0.0507812 5.953125 0.125 5.140625 0.125 Z M 5.140625 -0.515625 C 5.765625 -0.515625 6.351562 -0.65625 6.90625 -0.9375 C 7.457031 -1.21875 7.894531 -1.644531 8.21875 -2.21875 C 8.550781 -2.800781 8.71875 -3.515625 8.71875 -4.359375 C 8.71875 -5.179688 8.550781 -5.878906 8.21875 -6.453125 C 7.894531 -7.035156 7.457031 -7.46875 6.90625 -7.75 C 6.363281 -8.03125 5.78125 -8.171875 5.15625 -8.171875 C 4.519531 -8.171875 3.929688 -8.03125 3.390625 -7.75 C 2.859375 -7.46875 2.425781 -7.035156 2.09375 -6.453125 C 1.757812 -5.878906 1.59375 -5.179688 1.59375 -4.359375 C 1.59375 -3.515625 1.753906 -2.800781 2.078125 -2.21875 C 2.410156 -1.644531 2.84375 -1.21875 3.375 -0.9375 C 3.914062 -0.65625 4.503906 -0.515625 5.140625 -0.515625 Z M 5.140625 -0.515625 "/></g></g></g><g fill="#373643" fill-opacity="1"><g transform="translate(39.862516, 141.784707)"><g><path d="M 11.578125 -8.859375 C 12.578125 -8.859375 13.390625 -8.539062 14.015625 -7.90625 C 14.640625 -7.269531 14.953125 -6.332031 14.953125 -5.09375 L 14.953125 0 L 14.25 0 L 14.25 -5.046875 C 14.25 -6.078125 14 -6.863281 13.5 -7.40625 C 13.007812 -7.957031 12.332031 -8.234375 11.46875 -8.234375 C 10.570312 -8.234375 9.851562 -7.925781 9.3125 -7.3125 C 8.769531 -6.695312 8.5 -5.800781 8.5 -4.625 L 8.5 0 L 7.796875 0 L 7.796875 -5.046875 C 7.796875 -6.078125 7.546875 -6.863281 7.046875 -7.40625 C 6.546875 -7.957031 5.867188 -8.234375 5.015625 -8.234375 C 4.109375 -8.234375 3.382812 -7.925781 2.84375 -7.3125 C 2.300781 -6.695312 2.03125 -5.800781 2.03125 -4.625 L 2.03125 0 L 1.3125 0 L 1.3125 -8.6875 L 2.03125 -8.6875 L 2.03125 -6.796875 C 2.28125 -7.484375 2.675781 -8 3.21875 -8.34375 C 3.769531 -8.6875 4.40625 -8.859375 5.125 -8.859375 C 5.90625 -8.859375 6.582031 -8.648438 7.15625 -8.234375 C 7.726562 -7.828125 8.125 -7.226562 8.34375 -6.4375 C 8.539062 -7.226562 8.929688 -7.828125 9.515625 -8.234375 C 10.109375 -8.648438 10.796875 -8.859375 11.578125 -8.859375 Z M 11.578125 -8.859375 "/></g></g></g><g fill="#373643" fill-opacity="1"><g transform="translate(55.458629, 141.784707)"><g><path d="M 2.03125 -6.40625 C 2.300781 -7.101562 2.753906 -7.675781 3.390625 -8.125 C 4.035156 -8.570312 4.8125 -8.796875 5.71875 -8.796875 C 6.519531 -8.796875 7.238281 -8.613281 7.875 -8.25 C 8.507812 -7.894531 9.003906 -7.378906 9.359375 -6.703125 C 9.722656 -6.035156 9.90625 -5.253906 9.90625 -4.359375 C 9.90625 -3.460938 9.722656 -2.671875 9.359375 -1.984375 C 9.003906 -1.304688 8.507812 -0.785156 7.875 -0.421875 C 7.238281 -0.0546875 6.519531 0.125 5.71875 0.125 C 4.8125 0.125 4.035156 -0.0976562 3.390625 -0.546875 C 2.742188 -0.992188 2.289062 -1.566406 2.03125 -2.265625 L 2.03125 0 L 1.3125 0 L 1.3125 -11.84375 L 2.03125 -11.84375 Z M 9.171875 -4.359375 C 9.171875 -5.140625 9.019531 -5.816406 8.71875 -6.390625 C 8.414062 -6.972656 7.992188 -7.414062 7.453125 -7.71875 C 6.921875 -8.019531 6.300781 -8.171875 5.59375 -8.171875 C 4.925781 -8.171875 4.316406 -8.015625 3.765625 -7.703125 C 3.222656 -7.390625 2.796875 -6.941406 2.484375 -6.359375 C 2.179688 -5.773438 2.03125 -5.109375 2.03125 -4.359375 C 2.03125 -3.585938 2.179688 -2.910156 2.484375 -2.328125 C 2.796875 -1.742188 3.222656 -1.296875 3.765625 -0.984375 C 4.316406 -0.671875 4.925781 -0.515625 5.59375 -0.515625 C 6.300781 -0.515625 6.921875 -0.664062 7.453125 -0.96875 C 7.992188 -1.28125 8.414062 -1.722656 8.71875 -2.296875 C 9.019531 -2.878906 9.171875 -3.566406 9.171875 -4.359375 Z M 9.171875 -4.359375 "/></g></g></g><g fill="#373643" fill-opacity="1"><g transform="translate(65.616041, 141.784707)"><g><path d="M 1.6875 -10.625 C 1.507812 -10.625 1.363281 -10.675781 1.25 -10.78125 C 1.132812 -10.894531 1.078125 -11.050781 1.078125 -11.25 C 1.078125 -11.425781 1.132812 -11.570312 1.25 -11.6875 C 1.363281 -11.8125 1.507812 -11.875 1.6875 -11.875 C 1.851562 -11.875 1.992188 -11.8125 2.109375 -11.6875 C 2.222656 -11.570312 2.28125 -11.425781 2.28125 -11.25 C 2.28125 -11.050781 2.222656 -10.894531 2.109375 -10.78125 C 1.992188 -10.675781 1.851562 -10.625 1.6875 -10.625 Z M 2.03125 -8.6875 L 2.03125 0 L 1.3125 0 L 1.3125 -8.6875 Z M 2.03125 -8.6875 "/></g></g></g><g fill="#373643" fill-opacity="1"><g transform="translate(68.367238, 141.784707)"><g><path d="M 5.234375 -8.859375 C 6.265625 -8.859375 7.101562 -8.539062 7.75 -7.90625 C 8.40625 -7.269531 8.734375 -6.332031 8.734375 -5.09375 L 8.734375 0 L 8.03125 0 L 8.03125 -5.046875 C 8.03125 -6.078125 7.769531 -6.863281 7.25 -7.40625 C 6.726562 -7.957031 6.019531 -8.234375 5.125 -8.234375 C 4.1875 -8.234375 3.4375 -7.9375 2.875 -7.34375 C 2.3125 -6.75 2.03125 -5.863281 2.03125 -4.6875 L 2.03125 0 L 1.3125 0 L 1.3125 -8.6875 L 2.03125 -8.6875 L 2.03125 -6.84375 C 2.28125 -7.5 2.6875 -8 3.25 -8.34375 C 3.820312 -8.6875 4.484375 -8.859375 5.234375 -8.859375 Z M 5.234375 -8.859375 "/></g></g></g><g fill="#373643" fill-opacity="1"><g transform="translate(77.724845, 141.784707)"><g><path d="M 9.140625 -4.921875 C 9.140625 -4.546875 9.128906 -4.257812 9.109375 -4.0625 L 1.59375 -4.0625 C 1.613281 -3.28125 1.785156 -2.625 2.109375 -2.09375 C 2.429688 -1.5625 2.851562 -1.160156 3.375 -0.890625 C 3.894531 -0.628906 4.46875 -0.5 5.09375 -0.5 C 5.945312 -0.5 6.660156 -0.707031 7.234375 -1.125 C 7.804688 -1.550781 8.164062 -2.125 8.3125 -2.84375 L 9.078125 -2.84375 C 8.898438 -1.957031 8.457031 -1.238281 7.75 -0.6875 C 7.050781 -0.144531 6.164062 0.125 5.09375 0.125 C 4.28125 0.125 3.550781 -0.0507812 2.90625 -0.40625 C 2.269531 -0.769531 1.769531 -1.289062 1.40625 -1.96875 C 1.039062 -2.644531 0.859375 -3.441406 0.859375 -4.359375 C 0.859375 -5.265625 1.035156 -6.050781 1.390625 -6.71875 C 1.753906 -7.394531 2.253906 -7.910156 2.890625 -8.265625 C 3.535156 -8.617188 4.269531 -8.796875 5.09375 -8.796875 C 5.925781 -8.796875 6.644531 -8.617188 7.25 -8.265625 C 7.863281 -7.910156 8.332031 -7.4375 8.65625 -6.84375 C 8.976562 -6.25 9.140625 -5.609375 9.140625 -4.921875 Z M 8.421875 -4.65625 C 8.453125 -5.425781 8.3125 -6.078125 8 -6.609375 C 7.695312 -7.140625 7.285156 -7.535156 6.765625 -7.796875 C 6.242188 -8.054688 5.679688 -8.1875 5.078125 -8.1875 C 4.460938 -8.1875 3.894531 -8.054688 3.375 -7.796875 C 2.863281 -7.535156 2.441406 -7.140625 2.109375 -6.609375 C 1.785156 -6.078125 1.613281 -5.425781 1.59375 -4.65625 Z M 8.421875 -4.65625 "/></g></g></g><g fill="#373643" fill-opacity="1"><g transform="translate(87.114453, 141.784707)"><g><path d="M 4.203125 0.125 C 3.234375 0.125 2.441406 -0.0859375 1.828125 -0.515625 C 1.210938 -0.941406 0.867188 -1.550781 0.796875 -2.34375 L 1.53125 -2.34375 C 1.582031 -1.769531 1.84375 -1.316406 2.3125 -0.984375 C 2.78125 -0.660156 3.410156 -0.5 4.203125 -0.5 C 4.867188 -0.5 5.394531 -0.664062 5.78125 -1 C 6.175781 -1.332031 6.375 -1.742188 6.375 -2.234375 C 6.375 -2.578125 6.269531 -2.859375 6.0625 -3.078125 C 5.851562 -3.296875 5.59375 -3.460938 5.28125 -3.578125 C 4.96875 -3.703125 4.546875 -3.832031 4.015625 -3.96875 C 3.378906 -4.132812 2.863281 -4.300781 2.46875 -4.46875 C 2.070312 -4.632812 1.734375 -4.882812 1.453125 -5.21875 C 1.179688 -5.550781 1.046875 -5.992188 1.046875 -6.546875 C 1.046875 -6.953125 1.164062 -7.328125 1.40625 -7.671875 C 1.65625 -8.015625 2 -8.285156 2.4375 -8.484375 C 2.875 -8.691406 3.367188 -8.796875 3.921875 -8.796875 C 4.828125 -8.796875 5.554688 -8.566406 6.109375 -8.109375 C 6.671875 -7.660156 6.976562 -7.035156 7.03125 -6.234375 L 6.296875 -6.234375 C 6.265625 -6.816406 6.039062 -7.285156 5.625 -7.640625 C 5.21875 -8.003906 4.644531 -8.1875 3.90625 -8.1875 C 3.28125 -8.1875 2.765625 -8.023438 2.359375 -7.703125 C 1.960938 -7.390625 1.765625 -7.003906 1.765625 -6.546875 C 1.765625 -6.140625 1.878906 -5.8125 2.109375 -5.5625 C 2.335938 -5.3125 2.617188 -5.117188 2.953125 -4.984375 C 3.285156 -4.847656 3.726562 -4.707031 4.28125 -4.5625 C 4.894531 -4.394531 5.382812 -4.234375 5.75 -4.078125 C 6.113281 -3.929688 6.425781 -3.707031 6.6875 -3.40625 C 6.945312 -3.113281 7.078125 -2.722656 7.078125 -2.234375 C 7.078125 -1.785156 6.953125 -1.378906 6.703125 -1.015625 C 6.460938 -0.660156 6.125 -0.378906 5.6875 -0.171875 C 5.25 0.0234375 4.753906 0.125 4.203125 0.125 Z M 4.203125 0.125 "/></g></g></g><g fill="#373643" fill-opacity="1"><g transform="translate(94.456547, 141.784707)"><g/></g></g><g fill="#373643" fill-opacity="1"><g transform="translate(98.359463, 141.784707)"><g><path d="M 0.859375 -4.359375 C 0.859375 -5.253906 1.035156 -6.035156 1.390625 -6.703125 C 1.753906 -7.378906 2.253906 -7.894531 2.890625 -8.25 C 3.523438 -8.613281 4.25 -8.796875 5.0625 -8.796875 C 5.945312 -8.796875 6.710938 -8.570312 7.359375 -8.125 C 8.015625 -7.6875 8.472656 -7.117188 8.734375 -6.421875 L 8.734375 -11.84375 L 9.453125 -11.84375 L 9.453125 0 L 8.734375 0 L 8.734375 -2.296875 C 8.484375 -1.585938 8.035156 -1.003906 7.390625 -0.546875 C 6.753906 -0.0976562 5.976562 0.125 5.0625 0.125 C 4.25 0.125 3.523438 -0.0546875 2.890625 -0.421875 C 2.253906 -0.785156 1.753906 -1.304688 1.390625 -1.984375 C 1.035156 -2.671875 0.859375 -3.460938 0.859375 -4.359375 Z M 8.734375 -4.359375 C 8.734375 -5.109375 8.578125 -5.773438 8.265625 -6.359375 C 7.953125 -6.941406 7.519531 -7.390625 6.96875 -7.703125 C 6.425781 -8.015625 5.820312 -8.171875 5.15625 -8.171875 C 4.445312 -8.171875 3.828125 -8.019531 3.296875 -7.71875 C 2.765625 -7.414062 2.347656 -6.972656 2.046875 -6.390625 C 1.742188 -5.816406 1.59375 -5.140625 1.59375 -4.359375 C 1.59375 -3.566406 1.742188 -2.878906 2.046875 -2.296875 C 2.347656 -1.722656 2.765625 -1.28125 3.296875 -0.96875 C 3.835938 -0.664062 4.457031 -0.515625 5.15625 -0.515625 C 5.820312 -0.515625 6.429688 -0.671875 6.984375 -0.984375 C 7.535156 -1.296875 7.960938 -1.742188 8.265625 -2.328125 C 8.578125 -2.910156 8.734375 -3.585938 8.734375 -4.359375 Z M 8.734375 -4.359375 "/></g></g></g><g fill="#373643" fill-opacity="1"><g transform="translate(108.516872, 141.784707)"><g><path d="M 0.859375 -4.359375 C 0.859375 -5.253906 1.035156 -6.035156 1.390625 -6.703125 C 1.753906 -7.378906 2.253906 -7.894531 2.890625 -8.25 C 3.523438 -8.613281 4.25 -8.796875 5.0625 -8.796875 C 5.976562 -8.796875 6.753906 -8.570312 7.390625 -8.125 C 8.035156 -7.675781 8.484375 -7.109375 8.734375 -6.421875 L 8.734375 -8.6875 L 9.453125 -8.6875 L 9.453125 0 L 8.734375 0 L 8.734375 -2.28125 C 8.484375 -1.582031 8.035156 -1.003906 7.390625 -0.546875 C 6.742188 -0.0976562 5.96875 0.125 5.0625 0.125 C 4.25 0.125 3.523438 -0.0546875 2.890625 -0.421875 C 2.253906 -0.785156 1.753906 -1.304688 1.390625 -1.984375 C 1.035156 -2.671875 0.859375 -3.460938 0.859375 -4.359375 Z M 8.734375 -4.359375 C 8.734375 -5.109375 8.578125 -5.773438 8.265625 -6.359375 C 7.953125 -6.941406 7.519531 -7.390625 6.96875 -7.703125 C 6.425781 -8.015625 5.820312 -8.171875 5.15625 -8.171875 C 4.445312 -8.171875 3.828125 -8.019531 3.296875 -7.71875 C 2.765625 -7.414062 2.347656 -6.972656 2.046875 -6.390625 C 1.742188 -5.816406 1.59375 -5.140625 1.59375 -4.359375 C 1.59375 -3.566406 1.742188 -2.878906 2.046875 -2.296875 C 2.347656 -1.722656 2.765625 -1.28125 3.296875 -0.96875 C 3.835938 -0.664062 4.457031 -0.515625 5.15625 -0.515625 C 5.820312 -0.515625 6.429688 -0.671875 6.984375 -0.984375 C 7.535156 -1.296875 7.960938 -1.742188 8.265625 -2.328125 C 8.578125 -2.910156 8.734375 -3.585938 8.734375 -4.359375 Z M 8.734375 -4.359375 "/></g></g></g><g fill="#373643" fill-opacity="1"><g transform="translate(118.674281, 141.784707)"><g><path d="M 2.390625 -8.0625 L 2.390625 -2.3125 C 2.390625 -1.675781 2.503906 -1.238281 2.734375 -1 C 2.972656 -0.757812 3.390625 -0.640625 3.984375 -0.640625 L 4.953125 -0.640625 L 4.953125 0 L 3.875 0 C 3.113281 0 2.550781 -0.175781 2.1875 -0.53125 C 1.832031 -0.894531 1.65625 -1.488281 1.65625 -2.3125 L 1.65625 -8.0625 L 0.359375 -8.0625 L 0.359375 -8.6875 L 1.65625 -8.6875 L 1.65625 -10.890625 L 2.390625 -10.890625 L 2.390625 -8.6875 L 4.953125 -8.6875 L 4.953125 -8.0625 Z M 2.390625 -8.0625 "/></g></g></g><g fill="#373643" fill-opacity="1"><g transform="translate(123.616949, 141.784707)"><g><path d="M 0.859375 -4.359375 C 0.859375 -5.253906 1.035156 -6.035156 1.390625 -6.703125 C 1.753906 -7.378906 2.253906 -7.894531 2.890625 -8.25 C 3.523438 -8.613281 4.25 -8.796875 5.0625 -8.796875 C 5.976562 -8.796875 6.753906 -8.570312 7.390625 -8.125 C 8.035156 -7.675781 8.484375 -7.109375 8.734375 -6.421875 L 8.734375 -8.6875 L 9.453125 -8.6875 L 9.453125 0 L 8.734375 0 L 8.734375 -2.28125 C 8.484375 -1.582031 8.035156 -1.003906 7.390625 -0.546875 C 6.742188 -0.0976562 5.96875 0.125 5.0625 0.125 C 4.25 0.125 3.523438 -0.0546875 2.890625 -0.421875 C 2.253906 -0.785156 1.753906 -1.304688 1.390625 -1.984375 C 1.035156 -2.671875 0.859375 -3.460938 0.859375 -4.359375 Z M 8.734375 -4.359375 C 8.734375 -5.109375 8.578125 -5.773438 8.265625 -6.359375 C 7.953125 -6.941406 7.519531 -7.390625 6.96875 -7.703125 C 6.425781 -8.015625 5.820312 -8.171875 5.15625 -8.171875 C 4.445312 -8.171875 3.828125 -8.019531 3.296875 -7.71875 C 2.765625 -7.414062 2.347656 -6.972656 2.046875 -6.390625 C 1.742188 -5.816406 1.59375 -5.140625 1.59375 -4.359375 C 1.59375 -3.566406 1.742188 -2.878906 2.046875 -2.296875 C 2.347656 -1.722656 2.765625 -1.28125 3.296875 -0.96875 C 3.835938 -0.664062 4.457031 -0.515625 5.15625 -0.515625 C 5.820312 -0.515625 6.429688 -0.671875 6.984375 -0.984375 C 7.535156 -1.296875 7.960938 -1.742188 8.265625 -2.328125 C 8.578125 -2.910156 8.734375 -3.585938 8.734375 -4.359375 Z M 8.734375 -4.359375 "/></g></g></g><g fill="#373643" fill-opacity="1"><g transform="translate(133.774358, 141.784707)"><g/></g></g><g fill="#373643" fill-opacity="1"><g transform="translate(137.677274, 141.784707)"><g><path d="M 4.203125 0.125 C 3.234375 0.125 2.441406 -0.0859375 1.828125 -0.515625 C 1.210938 -0.941406 0.867188 -1.550781 0.796875 -2.34375 L 1.53125 -2.34375 C 1.582031 -1.769531 1.84375 -1.316406 2.3125 -0.984375 C 2.78125 -0.660156 3.410156 -0.5 4.203125 -0.5 C 4.867188 -0.5 5.394531 -0.664062 5.78125 -1 C 6.175781 -1.332031 6.375 -1.742188 6.375 -2.234375 C 6.375 -2.578125 6.269531 -2.859375 6.0625 -3.078125 C 5.851562 -3.296875 5.59375 -3.460938 5.28125 -3.578125 C 4.96875 -3.703125 4.546875 -3.832031 4.015625 -3.96875 C 3.378906 -4.132812 2.863281 -4.300781 2.46875 -4.46875 C 2.070312 -4.632812 1.734375 -4.882812 1.453125 -5.21875 C 1.179688 -5.550781 1.046875 -5.992188 1.046875 -6.546875 C 1.046875 -6.953125 1.164062 -7.328125 1.40625 -7.671875 C 1.65625 -8.015625 2 -8.285156 2.4375 -8.484375 C 2.875 -8.691406 3.367188 -8.796875 3.921875 -8.796875 C 4.828125 -8.796875 5.554688 -8.566406 6.109375 -8.109375 C 6.671875 -7.660156 6.976562 -7.035156 7.03125 -6.234375 L 6.296875 -6.234375 C 6.265625 -6.816406 6.039062 -7.285156 5.625 -7.640625 C 5.21875 -8.003906 4.644531 -8.1875 3.90625 -8.1875 C 3.28125 -8.1875 2.765625 -8.023438 2.359375 -7.703125 C 1.960938 -7.390625 1.765625 -7.003906 1.765625 -6.546875 C 1.765625 -6.140625 1.878906 -5.8125 2.109375 -5.5625 C 2.335938 -5.3125 2.617188 -5.117188 2.953125 -4.984375 C 3.285156 -4.847656 3.726562 -4.707031 4.28125 -4.5625 C 4.894531 -4.394531 5.382812 -4.234375 5.75 -4.078125 C 6.113281 -3.929688 6.425781 -3.707031 6.6875 -3.40625 C 6.945312 -3.113281 7.078125 -2.722656 7.078125 -2.234375 C 7.078125 -1.785156 6.953125 -1.378906 6.703125 -1.015625 C 6.460938 -0.660156 6.125 -0.378906 5.6875 -0.171875 C 5.25 0.0234375 4.753906 0.125 4.203125 0.125 Z M 4.203125 0.125 "/></g></g></g><g fill="#373643" fill-opacity="1"><g transform="translate(145.019368, 141.784707)"><g><path d="M 0.859375 -4.359375 C 0.859375 -5.265625 1.035156 -6.050781 1.390625 -6.71875 C 1.753906 -7.394531 2.253906 -7.910156 2.890625 -8.265625 C 3.523438 -8.617188 4.253906 -8.796875 5.078125 -8.796875 C 6.160156 -8.796875 7.050781 -8.523438 7.75 -7.984375 C 8.445312 -7.441406 8.882812 -6.710938 9.0625 -5.796875 L 8.296875 -5.796875 C 8.160156 -6.535156 7.800781 -7.117188 7.21875 -7.546875 C 6.644531 -7.972656 5.929688 -8.1875 5.078125 -8.1875 C 4.429688 -8.1875 3.847656 -8.046875 3.328125 -7.765625 C 2.804688 -7.484375 2.382812 -7.050781 2.0625 -6.46875 C 1.75 -5.882812 1.59375 -5.179688 1.59375 -4.359375 C 1.59375 -3.515625 1.75 -2.800781 2.0625 -2.21875 C 2.382812 -1.644531 2.804688 -1.210938 3.328125 -0.921875 C 3.847656 -0.640625 4.429688 -0.5 5.078125 -0.5 C 5.929688 -0.5 6.644531 -0.710938 7.21875 -1.140625 C 7.800781 -1.566406 8.160156 -2.148438 8.296875 -2.890625 L 9.0625 -2.890625 C 8.882812 -1.984375 8.441406 -1.253906 7.734375 -0.703125 C 7.035156 -0.148438 6.148438 0.125 5.078125 0.125 C 4.253906 0.125 3.523438 -0.0507812 2.890625 -0.40625 C 2.253906 -0.769531 1.753906 -1.289062 1.390625 -1.96875 C 1.035156 -2.644531 0.859375 -3.441406 0.859375 -4.359375 Z M 0.859375 -4.359375 "/></g></g></g><g fill="#373643" fill-opacity="1"><g transform="translate(154.344974, 141.784707)"><g><path d="M 1.6875 -10.625 C 1.507812 -10.625 1.363281 -10.675781 1.25 -10.78125 C 1.132812 -10.894531 1.078125 -11.050781 1.078125 -11.25 C 1.078125 -11.425781 1.132812 -11.570312 1.25 -11.6875 C 1.363281 -11.8125 1.507812 -11.875 1.6875 -11.875 C 1.851562 -11.875 1.992188 -11.8125 2.109375 -11.6875 C 2.222656 -11.570312 2.28125 -11.425781 2.28125 -11.25 C 2.28125 -11.050781 2.222656 -10.894531 2.109375 -10.78125 C 1.992188 -10.675781 1.851562 -10.625 1.6875 -10.625 Z M 2.03125 -8.6875 L 2.03125 0 L 1.3125 0 L 1.3125 -8.6875 Z M 2.03125 -8.6875 "/></g></g></g><g fill="#373643" fill-opacity="1"><g transform="translate(157.096168, 141.784707)"><g><path d="M 9.140625 -4.921875 C 9.140625 -4.546875 9.128906 -4.257812 9.109375 -4.0625 L 1.59375 -4.0625 C 1.613281 -3.28125 1.785156 -2.625 2.109375 -2.09375 C 2.429688 -1.5625 2.851562 -1.160156 3.375 -0.890625 C 3.894531 -0.628906 4.46875 -0.5 5.09375 -0.5 C 5.945312 -0.5 6.660156 -0.707031 7.234375 -1.125 C 7.804688 -1.550781 8.164062 -2.125 8.3125 -2.84375 L 9.078125 -2.84375 C 8.898438 -1.957031 8.457031 -1.238281 7.75 -0.6875 C 7.050781 -0.144531 6.164062 0.125 5.09375 0.125 C 4.28125 0.125 3.550781 -0.0507812 2.90625 -0.40625 C 2.269531 -0.769531 1.769531 -1.289062 1.40625 -1.96875 C 1.039062 -2.644531 0.859375 -3.441406 0.859375 -4.359375 C 0.859375 -5.265625 1.035156 -6.050781 1.390625 -6.71875 C 1.753906 -7.394531 2.253906 -7.910156 2.890625 -8.265625 C 3.535156 -8.617188 4.269531 -8.796875 5.09375 -8.796875 C 5.925781 -8.796875 6.644531 -8.617188 7.25 -8.265625 C 7.863281 -7.910156 8.332031 -7.4375 8.65625 -6.84375 C 8.976562 -6.25 9.140625 -5.609375 9.140625 -4.921875 Z M 8.421875 -4.65625 C 8.453125 -5.425781 8.3125 -6.078125 8 -6.609375 C 7.695312 -7.140625 7.285156 -7.535156 6.765625 -7.796875 C 6.242188 -8.054688 5.679688 -8.1875 5.078125 -8.1875 C 4.460938 -8.1875 3.894531 -8.054688 3.375 -7.796875 C 2.863281 -7.535156 2.441406 -7.140625 2.109375 -6.609375 C 1.785156 -6.078125 1.613281 -5.425781 1.59375 -4.65625 Z M 8.421875 -4.65625 "/></g></g></g><g fill="#373643" fill-opacity="1"><g transform="translate(166.48577, 141.784707)"><g><path d="M 5.234375 -8.859375 C 6.265625 -8.859375 7.101562 -8.539062 7.75 -7.90625 C 8.40625 -7.269531 8.734375 -6.332031 8.734375 -5.09375 L 8.734375 0 L 8.03125 0 L 8.03125 -5.046875 C 8.03125 -6.078125 7.769531 -6.863281 7.25 -7.40625 C 6.726562 -7.957031 6.019531 -8.234375 5.125 -8.234375 C 4.1875 -8.234375 3.4375 -7.9375 2.875 -7.34375 C 2.3125 -6.75 2.03125 -5.863281 2.03125 -4.6875 L 2.03125 0 L 1.3125 0 L 1.3125 -8.6875 L 2.03125 -8.6875 L 2.03125 -6.84375 C 2.28125 -7.5 2.6875 -8 3.25 -8.34375 C 3.820312 -8.6875 4.484375 -8.859375 5.234375 -8.859375 Z M 5.234375 -8.859375 "/></g></g></g><g fill="#373643" fill-opacity="1"><g transform="translate(175.843375, 141.784707)"><g><path d="M 0.859375 -4.359375 C 0.859375 -5.265625 1.035156 -6.050781 1.390625 -6.71875 C 1.753906 -7.394531 2.253906 -7.910156 2.890625 -8.265625 C 3.523438 -8.617188 4.253906 -8.796875 5.078125 -8.796875 C 6.160156 -8.796875 7.050781 -8.523438 7.75 -7.984375 C 8.445312 -7.441406 8.882812 -6.710938 9.0625 -5.796875 L 8.296875 -5.796875 C 8.160156 -6.535156 7.800781 -7.117188 7.21875 -7.546875 C 6.644531 -7.972656 5.929688 -8.1875 5.078125 -8.1875 C 4.429688 -8.1875 3.847656 -8.046875 3.328125 -7.765625 C 2.804688 -7.484375 2.382812 -7.050781 2.0625 -6.46875 C 1.75 -5.882812 1.59375 -5.179688 1.59375 -4.359375 C 1.59375 -3.515625 1.75 -2.800781 2.0625 -2.21875 C 2.382812 -1.644531 2.804688 -1.210938 3.328125 -0.921875 C 3.847656 -0.640625 4.429688 -0.5 5.078125 -0.5 C 5.929688 -0.5 6.644531 -0.710938 7.21875 -1.140625 C 7.800781 -1.566406 8.160156 -2.148438 8.296875 -2.890625 L 9.0625 -2.890625 C 8.882812 -1.984375 8.441406 -1.253906 7.734375 -0.703125 C 7.035156 -0.148438 6.148438 0.125 5.078125 0.125 C 4.253906 0.125 3.523438 -0.0507812 2.890625 -0.40625 C 2.253906 -0.769531 1.753906 -1.289062 1.390625 -1.96875 C 1.035156 -2.644531 0.859375 -3.441406 0.859375 -4.359375 Z M 0.859375 -4.359375 "/></g></g></g><g fill="#373643" fill-opacity="1"><g transform="translate(185.168981, 141.784707)"><g><path d="M 9.140625 -4.921875 C 9.140625 -4.546875 9.128906 -4.257812 9.109375 -4.0625 L 1.59375 -4.0625 C 1.613281 -3.28125 1.785156 -2.625 2.109375 -2.09375 C 2.429688 -1.5625 2.851562 -1.160156 3.375 -0.890625 C 3.894531 -0.628906 4.46875 -0.5 5.09375 -0.5 C 5.945312 -0.5 6.660156 -0.707031 7.234375 -1.125 C 7.804688 -1.550781 8.164062 -2.125 8.3125 -2.84375 L 9.078125 -2.84375 C 8.898438 -1.957031 8.457031 -1.238281 7.75 -0.6875 C 7.050781 -0.144531 6.164062 0.125 5.09375 0.125 C 4.28125 0.125 3.550781 -0.0507812 2.90625 -0.40625 C 2.269531 -0.769531 1.769531 -1.289062 1.40625 -1.96875 C 1.039062 -2.644531 0.859375 -3.441406 0.859375 -4.359375 C 0.859375 -5.265625 1.035156 -6.050781 1.390625 -6.71875 C 1.753906 -7.394531 2.253906 -7.910156 2.890625 -8.265625 C 3.535156 -8.617188 4.269531 -8.796875 5.09375 -8.796875 C 5.925781 -8.796875 6.644531 -8.617188 7.25 -8.265625 C 7.863281 -7.910156 8.332031 -7.4375 8.65625 -6.84375 C 8.976562 -6.25 9.140625 -5.609375 9.140625 -4.921875 Z M 8.421875 -4.65625 C 8.453125 -5.425781 8.3125 -6.078125 8 -6.609375 C 7.695312 -7.140625 7.285156 -7.535156 6.765625 -7.796875 C 6.242188 -8.054688 5.679688 -8.1875 5.078125 -8.1875 C 4.460938 -8.1875 3.894531 -8.054688 3.375 -7.796875 C 2.863281 -7.535156 2.441406 -7.140625 2.109375 -6.609375 C 1.785156 -6.078125 1.613281 -5.425781 1.59375 -4.65625 Z M 8.421875 -4.65625 "/></g></g></g><g fill="#373643" fill-opacity="1"><g transform="translate(194.558583, 141.784707)"><g/></g></g><g fill="#373643" fill-opacity="1"><g transform="translate(198.461499, 141.784707)"><g><path d="M 9.71875 -3.890625 C 9.332031 -3.210938 8.960938 -2.640625 8.609375 -2.171875 L 10.71875 0 L 9.8125 0 L 8.1875 -1.640625 C 7.644531 -1.015625 7.066406 -0.554688 6.453125 -0.265625 C 5.835938 0.0234375 5.144531 0.171875 4.375 0.171875 C 3.65625 0.171875 3.007812 0.03125 2.4375 -0.25 C 1.875 -0.53125 1.4375 -0.921875 1.125 -1.421875 C 0.8125 -1.929688 0.65625 -2.519531 0.65625 -3.1875 C 0.65625 -3.988281 0.878906 -4.675781 1.328125 -5.25 C 1.785156 -5.832031 2.445312 -6.289062 3.3125 -6.625 C 2.894531 -7.0625 2.59375 -7.46875 2.40625 -7.84375 C 2.21875 -8.226562 2.125 -8.632812 2.125 -9.0625 C 2.125 -9.738281 2.363281 -10.289062 2.84375 -10.71875 C 3.332031 -11.144531 3.972656 -11.359375 4.765625 -11.359375 C 5.234375 -11.359375 5.664062 -11.257812 6.0625 -11.0625 C 6.457031 -10.875 6.765625 -10.601562 6.984375 -10.25 C 7.210938 -9.90625 7.328125 -9.5 7.328125 -9.03125 L 6.609375 -9.03125 C 6.609375 -9.5625 6.425781 -9.976562 6.0625 -10.28125 C 5.695312 -10.59375 5.257812 -10.75 4.75 -10.75 C 4.1875 -10.75 3.726562 -10.59375 3.375 -10.28125 C 3.019531 -9.96875 2.84375 -9.5625 2.84375 -9.0625 C 2.84375 -8.6875 2.9375 -8.328125 3.125 -7.984375 C 3.320312 -7.648438 3.628906 -7.269531 4.046875 -6.84375 L 8.125 -2.65625 C 8.425781 -3.082031 8.765625 -3.601562 9.140625 -4.21875 L 10.03125 -5.78125 L 10.796875 -5.78125 Z M 4.375 -0.46875 C 5.050781 -0.46875 5.648438 -0.597656 6.171875 -0.859375 C 6.703125 -1.128906 7.21875 -1.554688 7.71875 -2.140625 L 3.78125 -6.140625 L 3.734375 -6.125 C 2.160156 -5.550781 1.375 -4.578125 1.375 -3.203125 C 1.375 -2.679688 1.5 -2.210938 1.75 -1.796875 C 2.007812 -1.378906 2.363281 -1.050781 2.8125 -0.8125 C 3.269531 -0.582031 3.789062 -0.46875 4.375 -0.46875 Z M 4.375 -0.46875 "/></g></g></g><g fill="#373643" fill-opacity="1"><g transform="translate(208.986824, 141.784707)"><g/></g></g><g fill="#373643" fill-opacity="1"><g transform="translate(212.88974, 141.784707)"><g><path d="M 11.578125 -8.859375 C 12.578125 -8.859375 13.390625 -8.539062 14.015625 -7.90625 C 14.640625 -7.269531 14.953125 -6.332031 14.953125 -5.09375 L 14.953125 0 L 14.25 0 L 14.25 -5.046875 C 14.25 -6.078125 14 -6.863281 13.5 -7.40625 C 13.007812 -7.957031 12.332031 -8.234375 11.46875 -8.234375 C 10.570312 -8.234375 9.851562 -7.925781 9.3125 -7.3125 C 8.769531 -6.695312 8.5 -5.800781 8.5 -4.625 L 8.5 0 L 7.796875 0 L 7.796875 -5.046875 C 7.796875 -6.078125 7.546875 -6.863281 7.046875 -7.40625 C 6.546875 -7.957031 5.867188 -8.234375 5.015625 -8.234375 C 4.109375 -8.234375 3.382812 -7.925781 2.84375 -7.3125 C 2.300781 -6.695312 2.03125 -5.800781 2.03125 -4.625 L 2.03125 0 L 1.3125 0 L 1.3125 -8.6875 L 2.03125 -8.6875 L 2.03125 -6.796875 C 2.28125 -7.484375 2.675781 -8 3.21875 -8.34375 C 3.769531 -8.6875 4.40625 -8.859375 5.125 -8.859375 C 5.90625 -8.859375 6.582031 -8.648438 7.15625 -8.234375 C 7.726562 -7.828125 8.125 -7.226562 8.34375 -6.4375 C 8.539062 -7.226562 8.929688 -7.828125 9.515625 -8.234375 C 10.109375 -8.648438 10.796875 -8.859375 11.578125 -8.859375 Z M 11.578125 -8.859375 "/></g></g></g><g fill="#373643" fill-opacity="1"><g transform="translate(228.485861, 141.784707)"><g><path d="M 0.859375 -4.359375 C 0.859375 -5.253906 1.035156 -6.035156 1.390625 -6.703125 C 1.753906 -7.378906 2.253906 -7.894531 2.890625 -8.25 C 3.523438 -8.613281 4.25 -8.796875 5.0625 -8.796875 C 5.976562 -8.796875 6.753906 -8.570312 7.390625 -8.125 C 8.035156 -7.675781 8.484375 -7.109375 8.734375 -6.421875 L 8.734375 -8.6875 L 9.453125 -8.6875 L 9.453125 0 L 8.734375 0 L 8.734375 -2.28125 C 8.484375 -1.582031 8.035156 -1.003906 7.390625 -0.546875 C 6.742188 -0.0976562 5.96875 0.125 5.0625 0.125 C 4.25 0.125 3.523438 -0.0546875 2.890625 -0.421875 C 2.253906 -0.785156 1.753906 -1.304688 1.390625 -1.984375 C 1.035156 -2.671875 0.859375 -3.460938 0.859375 -4.359375 Z M 8.734375 -4.359375 C 8.734375 -5.109375 8.578125 -5.773438 8.265625 -6.359375 C 7.953125 -6.941406 7.519531 -7.390625 6.96875 -7.703125 C 6.425781 -8.015625 5.820312 -8.171875 5.15625 -8.171875 C 4.445312 -8.171875 3.828125 -8.019531 3.296875 -7.71875 C 2.765625 -7.414062 2.347656 -6.972656 2.046875 -6.390625 C 1.742188 -5.816406 1.59375 -5.140625 1.59375 -4.359375 C 1.59375 -3.566406 1.742188 -2.878906 2.046875 -2.296875 C 2.347656 -1.722656 2.765625 -1.28125 3.296875 -0.96875 C 3.835938 -0.664062 4.457031 -0.515625 5.15625 -0.515625 C 5.820312 -0.515625 6.429688 -0.671875 6.984375 -0.984375 C 7.535156 -1.296875 7.960938 -1.742188 8.265625 -2.328125 C 8.578125 -2.910156 8.734375 -3.585938 8.734375 -4.359375 Z M 8.734375 -4.359375 "/></g></g></g><g fill="#373643" fill-opacity="1"><g transform="translate(238.64327, 141.784707)"><g><path d="M 2.03125 -6.890625 C 2.25 -7.535156 2.628906 -8.023438 3.171875 -8.359375 C 3.710938 -8.691406 4.40625 -8.859375 5.25 -8.859375 L 5.25 -8.109375 L 5.015625 -8.109375 C 4.160156 -8.109375 3.445312 -7.863281 2.875 -7.375 C 2.3125 -6.894531 2.03125 -6.109375 2.03125 -5.015625 L 2.03125 0 L 1.3125 0 L 1.3125 -8.6875 L 2.03125 -8.6875 Z M 2.03125 -6.890625 "/></g></g></g><g fill="#373643" fill-opacity="1"><g transform="translate(243.633924, 141.784707)"><g><path d="M 5.828125 0 L 2.03125 -3.984375 L 2.03125 0 L 1.3125 0 L 1.3125 -11.84375 L 2.03125 -11.84375 L 2.03125 -4.75 L 5.765625 -8.6875 L 6.765625 -8.6875 L 2.5625 -4.375 L 6.8125 0 Z M 5.828125 0 "/></g></g></g><g fill="#373643" fill-opacity="1"><g transform="translate(250.016248, 141.784707)"><g><path d="M 9.140625 -4.921875 C 9.140625 -4.546875 9.128906 -4.257812 9.109375 -4.0625 L 1.59375 -4.0625 C 1.613281 -3.28125 1.785156 -2.625 2.109375 -2.09375 C 2.429688 -1.5625 2.851562 -1.160156 3.375 -0.890625 C 3.894531 -0.628906 4.46875 -0.5 5.09375 -0.5 C 5.945312 -0.5 6.660156 -0.707031 7.234375 -1.125 C 7.804688 -1.550781 8.164062 -2.125 8.3125 -2.84375 L 9.078125 -2.84375 C 8.898438 -1.957031 8.457031 -1.238281 7.75 -0.6875 C 7.050781 -0.144531 6.164062 0.125 5.09375 0.125 C 4.28125 0.125 3.550781 -0.0507812 2.90625 -0.40625 C 2.269531 -0.769531 1.769531 -1.289062 1.40625 -1.96875 C 1.039062 -2.644531 0.859375 -3.441406 0.859375 -4.359375 C 0.859375 -5.265625 1.035156 -6.050781 1.390625 -6.71875 C 1.753906 -7.394531 2.253906 -7.910156 2.890625 -8.265625 C 3.535156 -8.617188 4.269531 -8.796875 5.09375 -8.796875 C 5.925781 -8.796875 6.644531 -8.617188 7.25 -8.265625 C 7.863281 -7.910156 8.332031 -7.4375 8.65625 -6.84375 C 8.976562 -6.25 9.140625 -5.609375 9.140625 -4.921875 Z M 8.421875 -4.65625 C 8.453125 -5.425781 8.3125 -6.078125 8 -6.609375 C 7.695312 -7.140625 7.285156 -7.535156 6.765625 -7.796875 C 6.242188 -8.054688 5.679688 -8.1875 5.078125 -8.1875 C 4.460938 -8.1875 3.894531 -8.054688 3.375 -7.796875 C 2.863281 -7.535156 2.441406 -7.140625 2.109375 -6.609375 C 1.785156 -6.078125 1.613281 -5.425781 1.59375 -4.65625 Z M 8.421875 -4.65625 "/></g></g></g><g fill="#373643" fill-opacity="1"><g transform="translate(259.40585, 141.784707)"><g><path d="M 2.390625 -8.0625 L 2.390625 -2.3125 C 2.390625 -1.675781 2.503906 -1.238281 2.734375 -1 C 2.972656 -0.757812 3.390625 -0.640625 3.984375 -0.640625 L 4.953125 -0.640625 L 4.953125 0 L 3.875 0 C 3.113281 0 2.550781 -0.175781 2.1875 -0.53125 C 1.832031 -0.894531 1.65625 -1.488281 1.65625 -2.3125 L 1.65625 -8.0625 L 0.359375 -8.0625 L 0.359375 -8.6875 L 1.65625 -8.6875 L 1.65625 -10.890625 L 2.390625 -10.890625 L 2.390625 -8.6875 L 4.953125 -8.6875 L 4.953125 -8.0625 Z M 2.390625 -8.0625 "/></g></g></g><g fill="#373643" fill-opacity="1"><g transform="translate(264.34853, 141.784707)"><g><path d="M 1.6875 -10.625 C 1.507812 -10.625 1.363281 -10.675781 1.25 -10.78125 C 1.132812 -10.894531 1.078125 -11.050781 1.078125 -11.25 C 1.078125 -11.425781 1.132812 -11.570312 1.25 -11.6875 C 1.363281 -11.8125 1.507812 -11.875 1.6875 -11.875 C 1.851562 -11.875 1.992188 -11.8125 2.109375 -11.6875 C 2.222656 -11.570312 2.28125 -11.425781 2.28125 -11.25 C 2.28125 -11.050781 2.222656 -10.894531 2.109375 -10.78125 C 1.992188 -10.675781 1.851562 -10.625 1.6875 -10.625 Z M 2.03125 -8.6875 L 2.03125 0 L 1.3125 0 L 1.3125 -8.6875 Z M 2.03125 -8.6875 "/></g></g></g><g fill="#373643" fill-opacity="1"><g transform="translate(267.099735, 141.784707)"><g><path d="M 5.234375 -8.859375 C 6.265625 -8.859375 7.101562 -8.539062 7.75 -7.90625 C 8.40625 -7.269531 8.734375 -6.332031 8.734375 -5.09375 L 8.734375 0 L 8.03125 0 L 8.03125 -5.046875 C 8.03125 -6.078125 7.769531 -6.863281 7.25 -7.40625 C 6.726562 -7.957031 6.019531 -8.234375 5.125 -8.234375 C 4.1875 -8.234375 3.4375 -7.9375 2.875 -7.34375 C 2.3125 -6.75 2.03125 -5.863281 2.03125 -4.6875 L 2.03125 0 L 1.3125 0 L 1.3125 -8.6875 L 2.03125 -8.6875 L 2.03125 -6.84375 C 2.28125 -7.5 2.6875 -8 3.25 -8.34375 C 3.820312 -8.6875 4.484375 -8.859375 5.234375 -8.859375 Z M 5.234375 -8.859375 "/></g></g></g><g fill="#373643" fill-opacity="1"><g transform="translate(276.457339, 141.784707)"><g><path d="M 5.0625 -8.796875 C 5.976562 -8.796875 6.753906 -8.570312 7.390625 -8.125 C 8.035156 -7.6875 8.484375 -7.125 8.734375 -6.4375 L 8.734375 -8.6875 L 9.453125 -8.6875 L 9.453125 0.265625 C 9.453125 1.066406 9.273438 1.769531 8.921875 2.375 C 8.578125 2.976562 8.101562 3.441406 7.5 3.765625 C 6.90625 4.085938 6.238281 4.25 5.5 4.25 C 4.414062 4.25 3.515625 3.988281 2.796875 3.46875 C 2.085938 2.945312 1.617188 2.242188 1.390625 1.359375 L 2.109375 1.359375 C 2.328125 2.054688 2.726562 2.609375 3.3125 3.015625 C 3.894531 3.421875 4.625 3.625 5.5 3.625 C 6.113281 3.625 6.664062 3.488281 7.15625 3.21875 C 7.644531 2.945312 8.03125 2.554688 8.3125 2.046875 C 8.59375 1.546875 8.734375 0.953125 8.734375 0.265625 L 8.734375 -2.265625 C 8.484375 -1.578125 8.035156 -1.003906 7.390625 -0.546875 C 6.742188 -0.0976562 5.96875 0.125 5.0625 0.125 C 4.25 0.125 3.523438 -0.0546875 2.890625 -0.421875 C 2.253906 -0.785156 1.753906 -1.304688 1.390625 -1.984375 C 1.035156 -2.671875 0.859375 -3.460938 0.859375 -4.359375 C 0.859375 -5.253906 1.035156 -6.035156 1.390625 -6.703125 C 1.753906 -7.378906 2.253906 -7.894531 2.890625 -8.25 C 3.523438 -8.613281 4.25 -8.796875 5.0625 -8.796875 Z M 8.734375 -4.359375 C 8.734375 -5.109375 8.578125 -5.773438 8.265625 -6.359375 C 7.953125 -6.941406 7.519531 -7.390625 6.96875 -7.703125 C 6.425781 -8.015625 5.820312 -8.171875 5.15625 -8.171875 C 4.445312 -8.171875 3.828125 -8.019531 3.296875 -7.71875 C 2.765625 -7.414062 2.347656 -6.972656 2.046875 -6.390625 C 1.742188 -5.816406 1.59375 -5.140625 1.59375 -4.359375 C 1.59375 -3.566406 1.742188 -2.878906 2.046875 -2.296875 C 2.347656 -1.722656 2.765625 -1.28125 3.296875 -0.96875 C 3.835938 -0.664062 4.457031 -0.515625 5.15625 -0.515625 C 5.820312 -0.515625 6.429688 -0.671875 6.984375 -0.984375 C 7.535156 -1.296875 7.960938 -1.742188 8.265625 -2.328125 C 8.578125 -2.910156 8.734375 -3.585938 8.734375 -4.359375 Z M 8.734375 -4.359375 "/></g></g></g><g fill="#373643" fill-opacity="1"><g transform="translate(286.620337, 141.784707)"><g/></g></g><g clip-path="url(#a75c4bbc23)"><g clip-path="url(#adece116ef)"><g clip-path="url(#f7e3a39a70)"><path fill="#18cb96" d="M 283.316406 72.5 L 265.292969 71.695312 C 261.8125 71.542969 261.222656 78.324219 265.347656 78.4375 L 276.5625 78.738281 L 275.707031 90.023438 C 275.445312 93.460938 282.148438 93.824219 282.339844 90.332031 Z M 283.316406 72.5 " fill-opacity="1" fill-rule="nonzero"/></g></g></g></svg>